<svg width="1376" height="931" viewBox="0 0 1376 931" fill="none" xmlns="http://www.w3.org/2000/svg">
<path opacity="0.79" d="M1223.07 260.649C1218.77 254.267 1209.17 254.938 1205.8 261.857L1193.88 286.298C1190.5 293.217 1195.88 301.194 1203.56 300.657L1230.69 298.76C1238.37 298.223 1242.59 289.575 1238.28 283.193L1223.07 260.649Z" fill="url(#paint0_linear)"/>
<path opacity="0.81" d="M825.157 336.402C832.798 335.464 836.558 326.606 831.925 320.459L826.504 313.265C821.872 307.118 812.321 308.29 809.313 315.376L805.794 323.667C802.786 330.753 808.577 338.438 816.218 337.5L825.157 336.402Z" fill="url(#paint1_linear)"/>
<path opacity="0.94" d="M210.716 190.624C218.413 190.758 223.369 182.51 219.636 175.777L213.758 165.173C210.026 158.44 200.405 158.272 196.441 164.871L190.196 175.263C186.231 181.862 190.896 190.278 198.593 190.412L210.716 190.624Z" fill="url(#paint2_linear)"/>
<path opacity="0.76" d="M1250.02 631.701C1246.65 624.782 1237.05 624.111 1232.74 630.493L1223.06 644.852C1218.75 651.234 1222.97 659.883 1230.65 660.42L1247.93 661.628C1255.61 662.165 1260.99 654.188 1257.61 647.269L1250.02 631.701Z" fill="url(#paint3_linear)"/>
<path opacity="0.88" d="M751.826 463.894C746.944 458.658 738.224 460.672 736.131 467.518V467.518C734.038 474.364 740.141 480.909 747.117 479.299V479.299C754.092 477.688 756.709 469.13 751.826 463.894V463.894Z" fill="url(#paint4_linear)"/>
<path opacity="0.72" d="M208.597 668.256C210.976 675.577 220.388 677.577 225.539 671.857L240.258 655.51C245.409 649.789 242.436 640.637 234.906 639.037L213.39 634.463C205.86 632.863 199.421 640.014 201.8 647.335L208.597 668.256Z" fill="url(#paint5_linear)"/>
<path opacity="0.72" d="M995.736 295.785C990.772 293.364 984.785 295.426 982.364 300.39L976.885 311.625C974.464 316.588 976.525 322.575 981.489 324.996L992.724 330.476C997.688 332.897 1003.67 330.836 1006.1 325.872L1011.58 314.637C1014 309.673 1011.93 303.686 1006.97 301.265L995.736 295.785Z" fill="url(#paint6_linear)"/>
<path opacity="0.72" d="M1220.49 62.6343C1216.08 65.958 1215.2 72.2281 1218.52 76.6388L1230.26 92.2122C1233.58 96.623 1239.85 97.5041 1244.26 94.1804L1259.83 82.445C1264.24 79.1213 1265.13 72.8513 1261.8 68.4405L1250.07 52.8671C1246.74 48.4564 1240.47 47.5752 1236.06 50.8989L1220.49 62.6343Z" fill="url(#paint7_linear)"/>
<path opacity="0.91" d="M406.435 241.628C408.681 246.674 414.592 248.943 419.637 246.696L434.254 240.189C439.3 237.942 441.569 232.031 439.322 226.986L432.814 212.369C430.568 207.324 424.657 205.055 419.612 207.301L404.995 213.809C399.95 216.055 397.68 221.966 399.927 227.012L406.435 241.628Z" fill="url(#paint8_linear)"/>
<path opacity="0.74" d="M1352.96 317.755C1347.44 317.851 1343.04 322.406 1343.14 327.928L1343.33 338.926C1343.43 344.448 1347.98 348.847 1353.5 348.75L1364.5 348.558C1370.02 348.462 1374.42 343.907 1374.33 338.385L1374.13 327.387C1374.04 321.865 1369.48 317.467 1363.96 317.563L1352.96 317.755Z" fill="url(#paint9_linear)"/>
<path opacity="0.76" d="M562.616 452.923C562.809 447.404 558.49 442.773 552.971 442.581L534.982 441.952C529.462 441.76 524.832 446.078 524.639 451.597L524.011 469.586C523.818 475.106 528.136 479.736 533.656 479.929L551.645 480.557C557.164 480.75 561.795 476.432 561.988 470.912L562.616 452.923Z" fill="url(#paint10_linear)"/>
<path opacity="0.3" d="M2.30221 574.335C1.45358 578.328 4.0022 582.252 7.99471 583.101L36.5496 589.17C40.5421 590.019 44.4666 587.47 45.3153 583.478L51.3848 554.923C52.2334 550.93 49.6848 547.006 45.6923 546.157L17.1374 540.088C13.1449 539.239 9.22037 541.788 8.37174 545.78L2.30221 574.335Z" fill="url(#paint11_linear)"/>
<path opacity="0.7" fill-rule="evenodd" clip-rule="evenodd" d="M1291.76 310.385C1284.15 338.347 1264.41 359.805 1248.57 370.817L1259.99 387.239C1278.68 374.244 1301.93 349.189 1311.06 315.636C1320.38 281.391 1314.56 239.806 1277.43 195.559L1262.11 208.415C1295.48 248.183 1299.18 283.115 1291.76 310.385Z" fill="#F22C2C"/>
<path opacity="0.72" fill-rule="evenodd" clip-rule="evenodd" d="M678.828 562.866C658.582 564.559 639.603 556.674 628.507 548.848L616.979 565.191C630.914 575.02 654.475 584.972 680.495 582.796C707.229 580.56 734.989 565.64 756.418 528.523L739.098 518.523C720.592 550.576 698.36 561.232 678.828 562.866Z" fill="#F22C2C"/>
<path opacity="0.81" fill-rule="evenodd" clip-rule="evenodd" d="M149.204 102.606C143.37 127.443 126.635 146.969 113.017 157.158L124.999 173.172C141.398 160.902 161.515 137.658 168.674 107.179C175.997 76.0033 169.392 38.7847 134.731 0.289784L119.868 13.6724C150.616 47.8222 154.874 78.4658 149.204 102.606Z" fill="#F22C2C"/>
<path opacity="0.7" fill-rule="evenodd" clip-rule="evenodd" d="M1257.61 730.232C1268.98 747.896 1270.99 769.04 1269.23 782.966L1289.08 785.472C1291.27 768.1 1288.93 741.939 1274.42 719.404C1259.52 696.266 1232.63 678.281 1188.6 676.743L1187.91 696.731C1226.09 698.064 1246.62 713.171 1257.61 730.232Z" fill="#F22C2C"/>
<path opacity="0.6" fill-rule="evenodd" clip-rule="evenodd" d="M554.453 684.431C581.31 685.942 604.628 699.735 617.694 712.003L631.384 697.423C615.786 682.777 588.219 666.299 555.577 664.463C522.219 662.587 485.129 676.103 451.77 718.801L467.53 731.114C497.289 693.024 528.312 682.961 554.453 684.431Z" fill="#F22C2C"/>
<path opacity="0.86" fill-rule="evenodd" clip-rule="evenodd" d="M314.558 533.437C307.952 551.372 293.782 564.29 282.763 570.601L287.811 579.413C300.36 572.225 316.465 557.642 324.087 536.947C331.835 515.911 330.537 489.302 309.375 459.08L301.056 464.905C320.515 492.695 321.037 515.845 314.558 533.437Z" fill="#F22C2C"/>
<path opacity="0.83" fill-rule="evenodd" clip-rule="evenodd" d="M1337.62 821.622C1340.54 813.245 1347.18 806.906 1352.35 803.819L1342.11 786.641C1333.95 791.506 1323.56 801.19 1318.73 815.038C1313.67 829.563 1315.26 847.168 1328.88 865.912L1345.06 854.156C1334.88 840.142 1334.93 829.322 1337.62 821.622Z" fill="#F22C2C"/>
<path opacity="0.7" fill-rule="evenodd" clip-rule="evenodd" d="M812.542 770.252C800.077 783.991 782.464 790.561 770.165 792.246L772.881 812.061C788.621 809.904 810.995 801.721 827.354 783.691C844.195 765.131 853.594 737.294 844.636 698.493L825.149 702.992C832.792 736.096 824.527 757.044 812.542 770.252Z" fill="#F22C2C"/>
<path opacity="0.96" fill-rule="evenodd" clip-rule="evenodd" d="M71.8087 432.686C69.8182 439.109 64.9839 444.046 61.1631 446.509L67.9288 457.005C73.5726 453.368 80.6756 446.262 83.7372 436.383C86.9312 426.077 85.4268 413.698 75.2648 400.691L65.424 408.38C73.3383 418.509 73.6668 426.691 71.8087 432.686Z" fill="#F22C2C"/>
<path opacity="0.7" fill-rule="evenodd" clip-rule="evenodd" d="M1039.48 767.564C1022.04 761.823 1009.01 748.541 1002.53 738.097L985.534 748.637C993.841 762.033 1010.28 779.009 1033.23 786.561C1056.85 794.337 1085.88 791.618 1117.42 767.849L1105.38 751.877C1078.51 772.127 1056.24 773.08 1039.48 767.564Z" fill="#F22C2C"/>
<path opacity="0.73" fill-rule="evenodd" clip-rule="evenodd" d="M396.664 528.349C397.311 511.655 405.654 496.939 413.159 488.661L400.34 477.039C390.816 487.543 380.214 505.975 379.373 527.679C378.508 550.003 388.032 574.425 416.45 595.84L426.864 582.02C402.486 563.65 396.041 544.424 396.664 528.349Z" fill="#F22C2C"/>
<path opacity="0.4" fill-rule="evenodd" clip-rule="evenodd" d="M76.728 868.859C90.9631 871.942 102.414 881.377 108.412 889.108L124.214 876.849C116.087 866.374 100.859 853.621 80.961 849.312C60.3624 844.852 36.3019 849.785 12.1929 872.267L25.8329 886.894C45.6657 868.399 63.1931 865.928 76.728 868.859Z" fill="#F22C2C"/>
<path opacity="0.73" fill-rule="evenodd" clip-rule="evenodd" d="M1039.49 107.317C1026.69 94.4191 1021.16 76.8474 1020.14 64.7261L1000.21 66.401C1001.52 81.9836 1008.41 104.394 1025.29 121.405C1042.68 138.925 1069.56 149.59 1108.14 142.788L1104.66 123.092C1071.85 128.878 1051.78 119.707 1039.49 107.317Z" fill="#F22C2C"/>
<path opacity="0.92" fill-rule="evenodd" clip-rule="evenodd" d="M521.077 223.579C527.295 216.226 536.464 212.401 542.897 211.29L539.492 191.582C529.636 193.285 515.765 198.887 505.805 210.665C495.383 222.99 490.278 240.87 496.612 264.511L515.931 259.335C511.109 241.341 515.321 230.385 521.077 223.579Z" fill="#F22C2C"/>
<path opacity="0.76" fill-rule="evenodd" clip-rule="evenodd" d="M382.633 85.7622C372.985 89.6172 362.343 88.6139 355.666 86.4188L349.42 105.419C359.398 108.698 375.025 110.34 390.054 104.334C405.748 98.0634 419.309 84.0338 425.108 58.9135L405.621 54.4145C401.137 73.8377 391.615 82.173 382.633 85.7622Z" fill="#F22C2C"/>
<path opacity="0.74" fill-rule="evenodd" clip-rule="evenodd" d="M1177.22 549.063C1177.55 540.388 1181.95 532.549 1185.92 528.176L1171.1 514.742C1164.8 521.689 1157.79 533.824 1157.23 548.289C1156.64 563.469 1163.23 579.624 1181.48 593.371L1193.51 577.398C1179.94 567.17 1176.91 557.022 1177.22 549.063Z" fill="#F22C2C"/>
<path opacity="0.74" fill-rule="evenodd" clip-rule="evenodd" d="M194.156 548.272C181.823 532.923 177.868 513.39 178.143 500.227L158.148 499.81C157.8 516.446 162.603 540.933 178.565 560.799C194.976 581.224 222.205 595.528 263.885 592.614L262.489 572.663C226.642 575.169 206.04 563.063 194.156 548.272Z" fill="#F22C2C"/>
<path opacity="0.88" fill-rule="evenodd" clip-rule="evenodd" d="M242.022 251.921C228.689 253.506 215.848 248.714 208.289 243.768L197.339 260.504C207.805 267.352 225.297 274.05 244.383 271.781C264.181 269.427 284.121 257.599 298.677 230.223L281.018 220.833C269.207 243.047 254.642 250.42 242.022 251.921Z" fill="#F22C2C"/>
<defs>
<linearGradient id="paint0_linear" x1="1249" y1="243.799" x2="1182.76" y2="320.006" gradientUnits="userSpaceOnUse">
<stop stop-color="#03CEA4"/>
<stop offset="1" stop-color="#03A9CE"/>
</linearGradient>
<linearGradient id="paint1_linear" x1="832.502" y1="357.488" x2="805.801" y2="291.402" gradientUnits="userSpaceOnUse">
<stop stop-color="#03CEA4"/>
<stop offset="1" stop-color="#03A9CE"/>
</linearGradient>
<linearGradient id="paint2_linear" x1="214.127" y1="214.07" x2="195.652" y2="139.97" gradientUnits="userSpaceOnUse">
<stop stop-color="#03CEA4"/>
<stop offset="1" stop-color="#03A9CE"/>
</linearGradient>
<linearGradient id="paint3_linear" x1="1272.36" y1="618.226" x2="1208.32" y2="673.895" gradientUnits="userSpaceOnUse">
<stop stop-color="#03CEA4"/>
<stop offset="1" stop-color="#03A9CE"/>
</linearGradient>
<linearGradient id="paint4_linear" x1="758.963" y1="447.93" x2="731.085" y2="492.544" gradientUnits="userSpaceOnUse">
<stop stop-color="#03CEA4"/>
<stop offset="1" stop-color="#03A9CE"/>
</linearGradient>
<linearGradient id="paint5_linear" x1="181.965" y1="677.93" x2="259.533" y2="627.556" gradientUnits="userSpaceOnUse">
<stop stop-color="#03CEA4"/>
<stop offset="1" stop-color="#03A9CE"/>
</linearGradient>
<linearGradient id="paint6_linear" x1="989.669" y1="292.826" x2="1012.94" y2="331.115" gradientUnits="userSpaceOnUse">
<stop stop-color="#087CA7"/>
<stop offset="1" stop-color="#0B08A7"/>
</linearGradient>
<linearGradient id="paint7_linear" x1="1215.66" y1="66.2753" x2="1269.96" y2="62.202" gradientUnits="userSpaceOnUse">
<stop stop-color="#087CA7"/>
<stop offset="1" stop-color="#0B08A7"/>
</linearGradient>
<linearGradient id="paint8_linear" x1="409.038" y1="247.475" x2="416.554" y2="198.417" gradientUnits="userSpaceOnUse">
<stop stop-color="#087CA7"/>
<stop offset="1" stop-color="#0B08A7"/>
</linearGradient>
<linearGradient id="paint9_linear" x1="1346.06" y1="317.875" x2="1382.42" y2="340.339" gradientUnits="userSpaceOnUse">
<stop stop-color="#087CA7"/>
<stop offset="1" stop-color="#0B08A7"/>
</linearGradient>
<linearGradient id="paint10_linear" x1="562.832" y1="446.727" x2="533.001" y2="489.792" gradientUnits="userSpaceOnUse">
<stop stop-color="#087CA7"/>
<stop offset="1" stop-color="#0B08A7"/>
</linearGradient>
<linearGradient id="paint11_linear" x1="1.6799" y1="577.263" x2="44.3301" y2="534.179" gradientUnits="userSpaceOnUse">
<stop stop-color="#087CA7"/>
<stop offset="1" stop-color="#0B08A7"/>
</linearGradient>
</defs>
</svg>
