<svg width="217" height="109" viewBox="0 0 217 109" fill="none" xmlns="http://www.w3.org/2000/svg">
<mask id="path-1-inside-1" fill="white">
<path d="M216.79 0.881348C216.79 15.0654 213.996 29.1106 208.568 42.215C203.14 55.3194 195.184 67.2263 185.155 77.256C175.125 87.2856 163.218 95.2416 150.114 100.67C137.009 106.098 122.964 108.891 108.78 108.891C94.5959 108.891 80.5508 106.098 67.4464 100.67C54.342 95.2416 42.4351 87.2856 32.4054 77.256C22.3758 67.2263 14.4198 55.3194 8.99179 42.215C3.56378 29.1106 0.770018 15.0654 0.77002 0.881338L108.78 0.881348H216.79Z"/>
</mask>
<path d="M216.79 0.881348C216.79 15.0654 213.996 29.1106 208.568 42.215C203.14 55.3194 195.184 67.2263 185.155 77.256C175.125 87.2856 163.218 95.2416 150.114 100.67C137.009 106.098 122.964 108.891 108.78 108.891C94.5959 108.891 80.5508 106.098 67.4464 100.67C54.342 95.2416 42.4351 87.2856 32.4054 77.256C22.3758 67.2263 14.4198 55.3194 8.99179 42.215C3.56378 29.1106 0.770018 15.0654 0.77002 0.881338L108.78 0.881348H216.79Z" stroke="url(#paint0_linear)" stroke-width="60" mask="url(#path-1-inside-1)"/>
<defs>
<linearGradient id="paint0_linear" x1="108.78" y1="-107.129" x2="108.78" y2="108.891" gradientUnits="userSpaceOnUse">
<stop stop-color="#48304D"/>
<stop offset="1" stop-color="#44304D"/>
</linearGradient>
</defs>
</svg>
