<svg width="1500" height="900" viewBox="0 0 1500 900" fill="none" xmlns="http://www.w3.org/2000/svg">
<g opacity="0.75">
<circle cx="758.179" cy="698.364" r="15.4" transform="rotate(-136 758.179 698.364)" fill="#A91F1F"/>
<g clip-path="url(#clip0)">
<path d="M751.646 698.478L764.712 698.25" stroke="white" stroke-width="2" stroke-linecap="round" stroke-linejoin="round"/>
<path d="M758.293 704.896L758.065 691.831" stroke="white" stroke-width="2" stroke-linecap="round" stroke-linejoin="round"/>
</g>
</g>
<g opacity="0.86">
<circle cx="681.909" cy="431.4" r="19.8" transform="rotate(134 681.909 431.4)" fill="#A91F1F"/>
<g clip-path="url(#clip1)">
<path d="M682.056 439.799L681.763 423" stroke="white" stroke-width="2" stroke-linecap="round" stroke-linejoin="round"/>
<path d="M690.309 431.253L673.51 431.546" stroke="white" stroke-width="2" stroke-linecap="round" stroke-linejoin="round"/>
</g>
</g>
<g opacity="0.71">
<circle cx="1317.68" cy="377.483" r="12.8" transform="rotate(5 1317.68 377.483)" fill="#A91F1F"/>
<path d="M1321.84 373.993L1313.52 380.974" stroke="white" stroke-width="2" stroke-linecap="round" stroke-linejoin="round"/>
<path d="M1314.19 373.323L1321.17 381.643" stroke="white" stroke-width="2" stroke-linecap="round" stroke-linejoin="round"/>
</g>
<g opacity="0.79">
<circle cx="1344.29" cy="294.309" r="13.4" transform="rotate(-146 1344.29 294.309)" fill="#A91F1F"/>
<g clip-path="url(#clip2)">
<path d="M1338.71 295.393L1349.87 293.224" stroke="white" stroke-width="2" stroke-linecap="round" stroke-linejoin="round"/>
<path d="M1345.38 299.889L1343.21 288.728" stroke="white" stroke-width="2" stroke-linecap="round" stroke-linejoin="round"/>
</g>
</g>
<g opacity="0.99">
<circle cx="775.461" cy="601.35" r="22.6" transform="rotate(-62 775.461 601.35)" fill="#A91F1F"/>
<g clip-path="url(#clip3)">
<path d="M772.659 592.18L778.266 610.519" stroke="white" stroke-width="2" stroke-linecap="round" stroke-linejoin="round"/>
<path d="M766.293 604.153L784.632 598.546" stroke="white" stroke-width="2" stroke-linecap="round" stroke-linejoin="round"/>
</g>
</g>
<g opacity="0.73">
<circle cx="1398.51" cy="594.066" r="12.4" transform="rotate(135 1398.51 594.066)" fill="#A91F1F"/>
<g clip-path="url(#clip4)">
<path d="M1398.51 599.327V588.806" stroke="white" stroke-width="2" stroke-linecap="round" stroke-linejoin="round"/>
<path d="M1403.77 594.066H1393.25" stroke="white" stroke-width="2" stroke-linecap="round" stroke-linejoin="round"/>
</g>
</g>
<g opacity="0.71">
<circle cx="1272.6" cy="487.933" r="20.6" transform="rotate(-7 1272.6 487.933)" fill="#A91F1F"/>
<path d="M1277.98 481.046L1267.22 494.82" stroke="white" stroke-width="2" stroke-linecap="round" stroke-linejoin="round"/>
<path d="M1265.72 482.552L1279.49 493.314" stroke="white" stroke-width="2" stroke-linecap="round" stroke-linejoin="round"/>
</g>
<circle cx="1049.6" cy="495.479" r="21.6" transform="rotate(103 1049.6 495.479)" fill="#A91F1F"/>
<path d="M1054.46 503.251L1044.75 487.707" stroke="white" stroke-width="2" stroke-linecap="round" stroke-linejoin="round"/>
<path d="M1057.37 490.623L1041.83 500.335" stroke="white" stroke-width="2" stroke-linecap="round" stroke-linejoin="round"/>
<g opacity="0.86">
<circle cx="1142.2" cy="673.19" r="19.4" transform="rotate(159 1142.2 673.19)" fill="#A91F1F"/>
<path d="M1138.85 680.709L1145.55 665.671" stroke="white" stroke-width="2" stroke-linecap="round" stroke-linejoin="round"/>
<path d="M1149.72 676.538L1134.68 669.842" stroke="white" stroke-width="2" stroke-linecap="round" stroke-linejoin="round"/>
</g>
<g opacity="0.88">
<circle cx="529.263" cy="265.993" r="14.2" transform="rotate(-139 529.263 265.993)" fill="#A91F1F"/>
<g clip-path="url(#clip5)">
<path d="M523.253 266.413L535.273 265.573" stroke="white" stroke-width="2" stroke-linecap="round" stroke-linejoin="round"/>
<path d="M529.684 272.003L528.843 259.983" stroke="white" stroke-width="2" stroke-linecap="round" stroke-linejoin="round"/>
</g>
</g>
<g opacity="0.72">
<circle cx="318.537" cy="80.9109" r="12.4" transform="rotate(-55 318.537 80.9109)" fill="#A91F1F"/>
<g clip-path="url(#clip6)">
<path d="M317.625 75.73L319.452 86.0919" stroke="white" stroke-width="2" stroke-linecap="round" stroke-linejoin="round"/>
<path d="M313.357 81.8245L323.719 79.9974" stroke="white" stroke-width="2" stroke-linecap="round" stroke-linejoin="round"/>
</g>
</g>
<g opacity="0.97">
<circle cx="670.776" cy="265.067" r="20.4" transform="rotate(58 670.776 265.067)" fill="#A91F1F"/>
<g clip-path="url(#clip7)">
<path d="M679.209 267.013L662.343 263.12" stroke="white" stroke-width="2" stroke-linecap="round" stroke-linejoin="round"/>
<path d="M672.723 256.633L668.829 273.5" stroke="white" stroke-width="2" stroke-linecap="round" stroke-linejoin="round"/>
</g>
</g>
<g opacity="0.77">
<circle cx="217.326" cy="704.752" r="15.4" transform="rotate(-39 217.326 704.752)" fill="#A91F1F"/>
<g clip-path="url(#clip8)">
<path d="M218.009 698.254L216.643 711.25" stroke="white" stroke-width="2" stroke-linecap="round" stroke-linejoin="round"/>
<path d="M210.828 704.069L223.824 705.435" stroke="white" stroke-width="2" stroke-linecap="round" stroke-linejoin="round"/>
</g>
</g>
<g opacity="0.8">
<circle cx="13.3371" cy="386.097" r="14" transform="rotate(39 13.3371 386.097)" fill="#A91F1F"/>
<g clip-path="url(#clip9)">
<path d="M19.2448 385.476L7.43051 386.717" stroke="white" stroke-width="2" stroke-linecap="round" stroke-linejoin="round"/>
<path d="M12.7168 380.189L13.9585 392.004" stroke="white" stroke-width="2" stroke-linecap="round" stroke-linejoin="round"/>
</g>
</g>
<g opacity="0.71">
<circle cx="387.893" cy="590.609" r="22.6" transform="rotate(178 387.893 590.609)" fill="#A91F1F"/>
<path d="M381.355 597.621L394.433 583.596" stroke="white" stroke-width="2" stroke-linecap="round" stroke-linejoin="round"/>
<path d="M394.906 597.148L380.881 584.069" stroke="white" stroke-width="2" stroke-linecap="round" stroke-linejoin="round"/>
</g>
<g opacity="0.92">
<circle cx="626.271" cy="569.73" r="15.6" transform="rotate(110 626.271 569.73)" fill="#A91F1F"/>
<g clip-path="url(#clip10)">
<path d="M629.068 575.728L623.474 563.731" stroke="white" stroke-width="2" stroke-linecap="round" stroke-linejoin="round"/>
<path d="M632.27 566.933L620.273 572.527" stroke="white" stroke-width="2" stroke-linecap="round" stroke-linejoin="round"/>
</g>
</g>
<g opacity="0.97">
<circle cx="179.826" cy="189.779" r="18" transform="rotate(-121 179.826 189.779)" fill="#A91F1F"/>
<g clip-path="url(#clip11)">
<path d="M172.416 187.932L187.236 191.627" stroke="white" stroke-width="2" stroke-linecap="round" stroke-linejoin="round"/>
<path d="M177.979 197.189L181.674 182.369" stroke="white" stroke-width="2" stroke-linecap="round" stroke-linejoin="round"/>
</g>
</g>
<g opacity="0.97">
<circle cx="810.825" cy="90.6609" r="23.8" transform="rotate(-6 810.825 90.6609)" fill="#A91F1F"/>
<path d="M817.18 82.8135L804.471 98.5079" stroke="white" stroke-width="2" stroke-linecap="round" stroke-linejoin="round"/>
<path d="M802.979 84.3062L818.673 97.0153" stroke="white" stroke-width="2" stroke-linecap="round" stroke-linejoin="round"/>
</g>
<g opacity="0.77">
<circle cx="39.7495" cy="870.909" r="21.6" transform="rotate(156 39.7495 870.909)" fill="#A91F1F"/>
<g clip-path="url(#clip12)">
<path d="M36.4651 879.465L43.0334 862.354" stroke="white" stroke-width="2" stroke-linecap="round" stroke-linejoin="round"/>
<path d="M48.3047 874.193L31.1938 867.625" stroke="white" stroke-width="2" stroke-linecap="round" stroke-linejoin="round"/>
</g>
</g>
<g opacity="0.85">
<circle cx="244.859" cy="486.108" r="16.4" transform="rotate(47 244.859 486.108)" fill="#A91F1F"/>
<g clip-path="url(#clip13)">
<path d="M251.812 486.351L237.905 485.865" stroke="white" stroke-width="2" stroke-linecap="round" stroke-linejoin="round"/>
<path d="M245.102 479.154L244.616 493.062" stroke="white" stroke-width="2" stroke-linecap="round" stroke-linejoin="round"/>
</g>
</g>
<g opacity="0.74">
<circle cx="459.57" cy="293.765" r="21.4" transform="rotate(141 459.57 293.765)" fill="#A91F1F"/>
<g clip-path="url(#clip14)">
<path d="M458.621 302.795L460.519 284.736" stroke="white" stroke-width="2" stroke-linecap="round" stroke-linejoin="round"/>
<path d="M468.6 294.715L450.541 292.817" stroke="white" stroke-width="2" stroke-linecap="round" stroke-linejoin="round"/>
</g>
</g>
<g opacity="0.82">
<circle cx="444.828" cy="314.82" r="13.2" transform="rotate(18 444.828 314.82)" fill="#A91F1F"/>
<g clip-path="url(#clip15)">
<path d="M449.819 312.277L439.84 317.362" stroke="white" stroke-width="2" stroke-linecap="round" stroke-linejoin="round"/>
<path d="M442.287 309.83L447.372 319.81" stroke="white" stroke-width="2" stroke-linecap="round" stroke-linejoin="round"/>
</g>
</g>
<g opacity="0.73">
<circle cx="919.229" cy="274.096" r="16.6" transform="rotate(166 919.229 274.096)" fill="#A91F1F"/>
<path d="M915.601 280.133L922.856 268.059" stroke="white" stroke-width="2" stroke-linecap="round" stroke-linejoin="round"/>
<path d="M925.266 277.723L913.192 270.469" stroke="white" stroke-width="2" stroke-linecap="round" stroke-linejoin="round"/>
</g>
<g opacity="0.79">
<circle cx="147.686" cy="433.834" r="23.6" transform="rotate(-93 147.686 433.834)" fill="#A91F1F"/>
<path d="M140.245 427.135L155.127 440.534" stroke="white" stroke-width="2" stroke-linecap="round" stroke-linejoin="round"/>
<path d="M140.986 441.275L154.386 426.393" stroke="white" stroke-width="2" stroke-linecap="round" stroke-linejoin="round"/>
</g>
<g opacity="0.92">
<circle cx="488.722" cy="622.705" r="22.8" transform="rotate(39 488.722 622.705)" fill="#A91F1F"/>
<g clip-path="url(#clip16)">
<path d="M498.342 621.694L479.102 623.716" stroke="white" stroke-width="2" stroke-linecap="round" stroke-linejoin="round"/>
<path d="M487.711 613.085L489.733 632.325" stroke="white" stroke-width="2" stroke-linecap="round" stroke-linejoin="round"/>
</g>
</g>
<g opacity="0.84">
<circle cx="420.998" cy="676.969" r="20" transform="rotate(157 420.998 676.969)" fill="#A91F1F"/>
<g clip-path="url(#clip17)">
<path d="M417.819 684.837L424.176 669.102" stroke="white" stroke-width="2" stroke-linecap="round" stroke-linejoin="round"/>
<path d="M428.865 680.148L413.13 673.791" stroke="white" stroke-width="2" stroke-linecap="round" stroke-linejoin="round"/>
</g>
</g>
<g opacity="0.93">
<circle cx="1014.94" cy="672.618" r="12" transform="rotate(-55 1014.94 672.618)" fill="#A91F1F"/>
<g clip-path="url(#clip18)">
<path d="M1014.05 667.604L1015.82 677.632" stroke="white" stroke-width="2" stroke-linecap="round" stroke-linejoin="round"/>
<path d="M1009.92 673.502L1019.95 671.734" stroke="white" stroke-width="2" stroke-linecap="round" stroke-linejoin="round"/>
</g>
</g>
<defs>
<clipPath id="clip0">
<rect width="18.48" height="18.48" fill="white" transform="translate(758.406 711.429) rotate(-136)"/>
</clipPath>
<clipPath id="clip1">
<rect width="23.76" height="23.76" fill="white" transform="translate(698.707 431.106) rotate(134)"/>
</clipPath>
<clipPath id="clip2">
<rect width="16.08" height="16.08" fill="white" transform="translate(1346.46 305.47) rotate(-146)"/>
</clipPath>
<clipPath id="clip3">
<rect width="27.12" height="27.12" fill="white" transform="translate(757.123 606.957) rotate(-62)"/>
</clipPath>
<clipPath id="clip4">
<rect width="14.88" height="14.88" fill="white" transform="translate(1409.03 594.066) rotate(135)"/>
</clipPath>
<clipPath id="clip5">
<rect width="17.04" height="17.04" fill="white" transform="translate(530.104 278.013) rotate(-139)"/>
</clipPath>
<clipPath id="clip6">
<rect width="14.88" height="14.88" fill="white" transform="translate(308.176 82.738) rotate(-55)"/>
</clipPath>
<clipPath id="clip7">
<rect width="24.48" height="24.48" fill="white" transform="translate(674.67 248.2) rotate(58)"/>
</clipPath>
<clipPath id="clip8">
<rect width="18.48" height="18.48" fill="white" transform="translate(204.33 703.386) rotate(-39)"/>
</clipPath>
<clipPath id="clip9">
<rect width="16.8" height="16.8" fill="white" transform="translate(12.0957 374.282) rotate(39)"/>
</clipPath>
<clipPath id="clip10">
<rect width="18.72" height="18.72" fill="white" transform="translate(638.268 564.135) rotate(110)"/>
</clipPath>
<clipPath id="clip11">
<rect width="21.6" height="21.6" fill="white" transform="translate(176.131 204.599) rotate(-121)"/>
</clipPath>
<clipPath id="clip12">
<rect width="25.92" height="25.92" fill="white" transform="translate(56.8594 877.478) rotate(156)"/>
</clipPath>
<clipPath id="clip13">
<rect width="19.68" height="19.68" fill="white" transform="translate(245.344 472.201) rotate(47)"/>
</clipPath>
<clipPath id="clip14">
<rect width="25.68" height="25.68" fill="white" transform="translate(477.629 295.664) rotate(141)"/>
</clipPath>
<clipPath id="clip15">
<rect width="15.84" height="15.84" fill="white" transform="translate(439.744 304.84) rotate(18)"/>
</clipPath>
<clipPath id="clip16">
<rect width="27.36" height="27.36" fill="white" transform="translate(486.699 603.464) rotate(39)"/>
</clipPath>
<clipPath id="clip17">
<rect width="24" height="24" fill="white" transform="translate(436.732 683.327) rotate(157)"/>
</clipPath>
<clipPath id="clip18">
<rect width="14.4" height="14.4" fill="white" transform="translate(1004.91 674.386) rotate(-55)"/>
</clipPath>
</defs>
</svg>
