<svg width="84" height="112" viewBox="0 0 84 112" fill="none" xmlns="http://www.w3.org/2000/svg">
<path d="M46.5274 17.5052C39.3913 17.4527 33.8532 20.6374 29.9046 26.5716C27.2123 30.6182 26.7647 35.3012 26.6155 39.0065C26.6427 43.8881 27.357 48.7409 28.7368 53.4187C30.8539 60.6369 33.7429 67.5356 37.0623 74.2551C38.3598 76.9017 39.8281 79.4718 41.2532 82.0594C41.4045 82.335 41.8154 82.6631 42.0641 82.6303C42.3128 82.5975 42.5982 82.1557 42.6631 81.8472C43.0458 80.0624 46.2765 58.7295 49.0294 50.1662C53.2591 50.0699 68.7077 46.5396 69.6765 43.8339C70.7815 40.7848 73.8565 27.7025 73.9279 25.782C74.1679 19.5154 51.2005 17.5424 46.5274 17.5052Z" fill="#F7FAFB"/>
<path d="M45.4066 102.815C49.4562 101.848 51.9643 97.7439 51.0085 93.6478C50.0527 89.5516 45.995 87.0147 41.9453 87.9815C37.8957 88.9483 35.3876 93.0526 36.3434 97.1488C37.2992 101.245 41.357 103.782 45.4066 102.815Z" fill="#F7FAFB"/>
</svg>
