<svg width="395" height="374" viewBox="0 0 395 374" fill="none" xmlns="http://www.w3.org/2000/svg">
<g clip-path="url(#clip0)">
<path d="M131.389 153.364C134.773 141.214 144.975 138.048 149.653 137.984H177.339L186.567 142.021C192.104 144.021 194.514 149.519 195.026 152.019C195.334 157.709 202.589 166.438 206.177 170.091C211.253 177.166 210.984 181.242 210.215 182.395C208.215 186.548 209.382 189.509 210.215 190.47C211.291 198.776 203.742 199.186 199.833 198.353C203.37 213.426 201.307 221.296 199.833 223.346V229.691L127.928 228.73V221.808C123.16 216.579 125.942 203.351 127.928 197.391H121.584C114.816 195.7 116.072 191.303 117.546 189.317C118.469 187.317 117.931 184.51 117.546 183.357C113.855 179.511 116.008 174.961 117.546 173.167C120.469 170.86 127.992 159.004 131.389 153.364Z" fill="url(#paint0_linear)" stroke="url(#paint1_linear)"/>
<path d="M158.113 134.523C156.267 136.215 151.448 136.766 149.269 137.407V229.306H177.723V137.407C174.955 136.33 172.853 136.574 172.148 136.253C169.379 133.331 161.638 133.882 158.113 134.523Z" fill="#F7FAFB" stroke="#F7FAFB"/>
<path d="M185.413 155.671H140.041L138.502 184.895L186.567 186.048L185.413 155.671Z" fill="#48304D" stroke="#48304D"/>
<path d="M153.114 136.445H142.924C136.618 101.531 156.446 95.7508 167.149 97.2248C184.837 97.9938 185.67 123.692 183.875 136.445H173.493C168.725 136.445 164.393 131.895 162.823 129.62C160.208 133.465 155.261 135.773 153.114 136.445Z" fill="#087CA7" stroke="#087CA7"/>
<path d="M184.26 182.78C184.26 180.78 181.568 180.152 180.222 180.088C178.992 176.704 186.375 177.909 190.22 178.935V177.012C190.527 173.321 192.142 174.833 192.911 176.051C192.911 178.973 194.962 179.96 195.988 180.088C199.217 180.088 198.743 184.574 198.102 186.817C196.718 189.278 190.732 190.15 187.913 190.278C183.606 191.816 183.683 185.92 184.26 182.78Z" fill="url(#paint2_linear)" stroke="url(#paint3_linear)"/>
<path d="M143.569 184.106C143.569 182.106 146.26 181.478 147.606 181.414C148.837 178.031 141.454 179.235 137.609 180.261V178.338C137.301 174.647 135.686 176.159 134.917 177.377C134.917 180.299 132.866 181.286 131.841 181.414C128.611 181.414 129.085 185.9 129.726 188.143C131.111 190.604 137.096 191.476 139.916 191.604C144.223 193.142 144.146 187.246 143.569 184.106Z" fill="url(#paint4_linear)" stroke="url(#paint5_linear)"/>
<path d="M189.066 239.688H136.003V362.349H143.309L162.535 246.61L165.226 362.349H172.148L181.761 310.824C183.914 296.674 182.658 290.316 181.761 288.906C182.376 282.139 186.888 253.274 189.066 239.688Z" fill="#48304D" stroke="url(#paint6_linear)"/>
<path d="M142.348 362.349H136.58V366.963L129.659 373.5H142.348V362.349Z" fill="#48304D" stroke="url(#paint7_linear)"/>
<path d="M173.109 362.349H165.419V371.962H179.261L173.109 368.501V362.349Z" fill="#48304D" stroke="url(#paint8_linear)"/>
<path d="M194.065 228.922H129.466V238.535H198.295L194.065 228.922Z" fill="#F7FAFB" stroke="#F7FAFB"/>
<path d="M158.305 133.369C154.46 130.908 153.883 127.217 154.075 125.679C158.074 125.679 164.97 119.014 167.918 115.681C168.226 120.296 172.148 122.987 174.07 123.756C173.455 129.139 171.25 131.511 170.225 132.023V139.714C164.996 144.789 160.099 141.829 158.305 139.714V133.369Z" fill="url(#paint9_linear)" stroke="url(#paint10_linear)"/>
<path fill-rule="evenodd" clip-rule="evenodd" d="M77.2886 58.0902C77.2886 53.843 80.7317 50.3999 84.9789 50.3999H131.72C135.967 50.3999 139.41 53.843 139.41 58.0902V75.5738L141.949 97.5503L126.577 86.0847H84.9789C80.7317 86.0847 77.2886 82.6416 77.2886 78.3944V58.0902ZM84.5712 58.8956C84.5712 57.4091 85.7763 56.204 87.2628 56.204H129.436C130.922 56.204 132.128 57.4091 132.128 58.8956C132.128 60.3821 130.922 61.5872 129.436 61.5872H87.2628C85.7763 61.5872 84.5712 60.3821 84.5712 58.8956ZM97.8971 65.5505C96.4106 65.5505 95.2055 66.7556 95.2055 68.2421C95.2055 69.7286 96.4106 70.9337 97.8971 70.9337H129.436C130.922 70.9337 132.128 69.7286 132.128 68.2421C132.128 66.7556 130.922 65.5505 129.436 65.5505H97.8971ZM109.332 77.589C109.332 76.1024 110.537 74.8974 112.024 74.8974H129.436C130.922 74.8974 132.128 76.1024 132.128 77.589C132.128 79.0755 130.922 80.2806 129.436 80.2806H112.024C110.537 80.2806 109.332 79.0755 109.332 77.589Z" fill="#F22C2C"/>
<path d="M213.373 -8.58923L220.731 15.7799L237.366 -3.48935L234.176 21.766L257.21 10.9285L244.024 32.7032L269.475 32.1713L248.572 46.7004L272.039 56.5661L247.034 61.3372L264.459 79.8946L239.675 74.0829L248.046 98.1233L227.768 82.7336L225.637 108.1L213.373 85.7935L201.108 108.1L198.977 82.7336L178.7 98.1233L187.07 74.0829L162.286 79.8946L179.711 61.3372L154.706 56.5661L178.173 46.7004L157.27 32.1713L182.721 32.7032L169.535 10.9285L192.569 21.766L189.379 -3.48935L206.014 15.7799L213.373 -8.58923Z" fill="url(#paint11_linear)"/>
<path d="M192.617 46.5766L209.003 62.9625L234.128 37.8374" stroke="#F7FAFB" stroke-width="10" stroke-linecap="round"/>
</g>
<defs>
<linearGradient id="paint0_linear" x1="115.508" y1="137.984" x2="207.154" y2="233.053" gradientUnits="userSpaceOnUse">
<stop stop-color="#03CEA4"/>
<stop offset="1" stop-color="#03A9CE"/>
</linearGradient>
<linearGradient id="paint1_linear" x1="115.508" y1="137.984" x2="207.154" y2="233.053" gradientUnits="userSpaceOnUse">
<stop stop-color="#03CEA4"/>
<stop offset="1" stop-color="#03A9CE"/>
</linearGradient>
<linearGradient id="paint2_linear" x1="189.326" y1="174.685" x2="193.856" y2="190.941" gradientUnits="userSpaceOnUse">
<stop stop-color="#F22C2C"/>
<stop offset="1" stop-color="#FF5C00"/>
</linearGradient>
<linearGradient id="paint3_linear" x1="189.326" y1="174.685" x2="193.856" y2="190.941" gradientUnits="userSpaceOnUse">
<stop stop-color="#F22C2C"/>
<stop offset="1" stop-color="#FF5C00"/>
</linearGradient>
<linearGradient id="paint4_linear" x1="138.502" y1="176.011" x2="133.973" y2="192.267" gradientUnits="userSpaceOnUse">
<stop stop-color="#F22C2C"/>
<stop offset="1" stop-color="#FF5C00"/>
</linearGradient>
<linearGradient id="paint5_linear" x1="138.502" y1="176.011" x2="133.973" y2="192.267" gradientUnits="userSpaceOnUse">
<stop stop-color="#F22C2C"/>
<stop offset="1" stop-color="#FF5C00"/>
</linearGradient>
<linearGradient id="paint6_linear" x1="162.535" y1="239.688" x2="162.535" y2="362.349" gradientUnits="userSpaceOnUse">
<stop stop-color="#48304D"/>
<stop offset="1" stop-color="#44304D"/>
</linearGradient>
<linearGradient id="paint7_linear" x1="136.003" y1="362.349" x2="136.003" y2="373.5" gradientUnits="userSpaceOnUse">
<stop stop-color="#48304D"/>
<stop offset="1" stop-color="#44304D"/>
</linearGradient>
<linearGradient id="paint8_linear" x1="172.34" y1="362.349" x2="172.34" y2="371.962" gradientUnits="userSpaceOnUse">
<stop stop-color="#48304D"/>
<stop offset="1" stop-color="#44304D"/>
</linearGradient>
<linearGradient id="paint9_linear" x1="164.057" y1="115.681" x2="174.917" y2="140.621" gradientUnits="userSpaceOnUse">
<stop stop-color="#F22C2C"/>
<stop offset="1" stop-color="#FF5C00"/>
</linearGradient>
<linearGradient id="paint10_linear" x1="164.057" y1="115.681" x2="174.917" y2="140.621" gradientUnits="userSpaceOnUse">
<stop stop-color="#F22C2C"/>
<stop offset="1" stop-color="#FF5C00"/>
</linearGradient>
<linearGradient id="paint11_linear" x1="154.383" y1="3.20862" x2="242.277" y2="140.064" gradientUnits="userSpaceOnUse">
<stop stop-color="#087CA7"/>
<stop offset="1" stop-color="#0B08A7"/>
</linearGradient>
<clipPath id="clip0">
<rect width="394" height="373" fill="white" transform="translate(0.361816 0.5)"/>
</clipPath>
</defs>
</svg>
