<svg width="978" height="626" viewBox="0 0 978 626" fill="none" xmlns="http://www.w3.org/2000/svg">
<path fill-rule="evenodd" clip-rule="evenodd" d="M597.31 238.611C594.345 240.273 591.885 241.407 589.567 242.183L586.157 243.322L589.364 244.947C591.542 246.051 593.613 247.458 595.695 249.25L597.302 250.633L598.078 248.661C599.096 246.071 599.592 243.124 599.551 239.902L599.518 237.374L597.31 238.611ZM739.715 246.978C736.941 251.983 733.592 256.911 730.353 261.676C723.204 272.193 715.812 283.068 713.536 296.073C713.27 297.689 713.156 303.383 713.156 303.383L715.275 302.52C722.351 299.639 729.858 297.496 737.118 295.424C739.925 294.623 742.826 293.795 745.67 292.933C746.828 292.623 747.979 292.261 749.094 291.911C751.797 291.061 754.351 290.259 757.036 290.122L757.854 290.08L758.263 289.372C761.962 282.967 759.188 276.861 756.011 271.156C754.103 266.997 751.648 263.09 749.274 259.31C746.813 255.393 744.269 251.342 742.41 247.103L741.189 244.32L739.715 246.978ZM603.175 300.037C607.381 304.443 611.287 308.92 614.787 313.344L617.444 312.123C616.159 305.589 612.172 300.986 604.894 297.636L603.175 300.037ZM743.873 398.468C743.452 398.468 743.057 398.631 742.761 398.927C742.461 399.228 742.296 399.633 742.297 400.068L743.873 400.063V398.468ZM568.862 507.405C566.391 503.165 566.028 496.508 569.732 492.9C568.486 485.105 570.933 476.396 576.352 470.19L576.365 470.209C584.411 458.157 585.002 453.863 579.123 440.39C568.617 439.989 557.795 439.869 547.537 437.414L547.92 435.12C547.541 435.019 545.601 434.51 545.185 434.403C545.24 434.83 545.529 436.777 545.522 437.167C545.043 437.691 543.885 438.178 543.669 437.146C537.216 409.557 531.441 382.515 525.165 354.967C518.597 327.163 505.389 282.693 537.721 267.369L537.053 264.521C535.268 264.521 534.55 262.575 533.732 259.826C530.084 249.99 537.177 240.346 543.811 234.263C552.878 225.184 561.242 215.104 569.334 205.359C592.416 177.29 623.822 139.834 663.968 146.197L663.833 147.851C670.113 148.64 676.67 150.301 683.028 149.145C704.738 145.383 728.357 153.893 741.71 171.366L742.2 168.109C742.246 167.802 742.356 167.518 742.842 167.518C743.479 167.495 743.815 168.016 744.05 168.496C767.096 177.608 776.642 207.265 784.007 227.593C784.947 231.029 784.682 232.046 784.6 232.248L783.263 233.045C797.152 251.528 804.784 273.76 811.332 294.84C813.496 300.459 813.721 304.353 810.107 307.752C833.938 322.076 852.638 344.4 842.065 369.851C828.266 394.615 791.727 410.327 764.282 424.551C753.384 430.458 737.532 433.603 727.504 443.276C726.834 444.266 725.872 445.231 725.29 445.152C720.635 445.84 713.708 416.759 714.761 414.43C709.847 416.187 704.382 416.094 699.242 417.011C699.703 418.023 701.211 419.393 700.083 420.519C700.159 423.934 699.634 427.626 698.882 431.108C705.05 430.119 704.91 433.356 698.976 431.643C698.815 433.151 698.403 436.997 698.246 438.454C700.017 437.676 703.542 437.129 704.777 438.347C704.272 439.971 699.904 438.442 698.222 438.923C697.237 446.224 696.916 453.403 696.226 460.684C701.477 465.687 709.679 466.87 714.365 472.281C718.335 476.4 717.762 483.312 713.104 486.626C715.957 489.972 713.674 495.528 709.509 496.436C703.834 497.761 697.902 495.929 692.306 494.39C683.005 491.325 673.264 486.549 662.528 479.788C658.281 477.142 655.118 472.984 653.615 468.077C642.723 434.497 639.813 411.68 644.954 400.228C647.888 398.011 651.158 399.379 653.867 398.168C655.158 397.591 656.321 396.815 657.26 394.063C643.129 392.675 622.53 395.254 611.203 388.481L611.602 387.633C610.556 386.965 608.258 384.171 607.383 383.273C608.959 402.236 610.226 421.691 610.853 440.588C612.931 444.083 614.695 447.702 616.632 451.739C617.979 453.062 620.336 455.33 618.953 456.831C618.953 456.831 630.583 484.074 634.137 497.845C637.521 497.988 638.893 503.721 638.764 507.53C638.25 514.461 629.358 515.196 621.562 515.876C616.229 516.436 610.744 516.725 605.341 516.725C595.58 516.733 571.172 516.061 568.862 507.405Z" fill="#D08B5B"/>
<path fill-rule="evenodd" clip-rule="evenodd" d="M584.6 451.481C591.12 446.351 607.046 444.367 613.796 448.444C614.109 449.516 614.938 450.175 615.774 450.247C616.601 451.149 616.929 452.514 618.034 453.131C622.218 466.962 632.627 486.825 635.463 501.05C634.964 501.212 637.495 502.274 638.222 504.806C638.877 507.091 637.744 510.866 637.219 511.066C625.44 515.561 600.558 516.833 587.067 514.822C570.266 512.318 567.752 502.547 567.758 502.553C566.904 498.362 566.742 498.807 569.764 491.535C571.026 488.5 569.377 483.972 573.275 476.01C575.593 471.275 583.349 457.971 583.349 457.971C584.216 455.911 584.997 453.772 584.6 451.481ZM680.848 392.9L680.607 393.308C679.895 394.531 676.591 403.466 677.841 410.906C678.953 417.524 684.312 419.982 688.428 420.937C693.268 421.978 693.937 419.711 698.403 417.667C698.394 417.878 702.055 418.274 701.412 420.922C700.416 425.03 698.771 436.573 697.4 443.959C696.147 450.709 695.047 453.266 696.397 458.232C697.656 462.863 711.698 469.144 714.703 472.004C719.774 476.832 712.301 492.281 711.529 493.421C707.864 497.28 697.113 494.165 692.228 492.751L692.082 492.709L691.794 492.628C682.29 489.329 671.301 484.052 662.731 478.825C658.713 476.513 655.952 470.636 654.644 466.232C648.753 445.272 641.11 423.031 644.575 401.106C645.093 400.369 651.375 397.546 657.215 395.947C658.445 395.611 659.656 393.325 660.789 393.128C668.296 391.823 678.239 392.891 680.848 392.9Z" fill="white"/>
<path fill-rule="evenodd" clip-rule="evenodd" d="M528.665 273.452C539.886 266.221 552.314 266.328 565.657 272.381C575.587 276.887 585.145 284.091 596.23 294.443L596.566 294.757L596.958 295.131C603.296 301.193 608.761 307.197 613.42 313.345L613.73 313.754C613.932 314.01 614.075 314.046 614.243 313.968L614.269 313.955L615.793 313.157L616.724 314.602C617.491 315.793 617.859 317.082 617.926 318.529L617.933 318.709C617.957 319.417 617.92 320.029 617.803 321.02L617.755 321.41L617.64 322.297C617.428 323.939 617.381 324.792 617.507 325.643L617.529 325.781L617.552 325.913L617.641 326.382L617.081 328.116C615.582 332.762 614.122 337.352 612.7 341.891L612.274 343.252L611.488 345.774L611.164 346.759L610.995 347.277L610.917 347.53C610.805 347.896 610.72 348.205 610.651 348.504L610.613 348.675C610.296 350.149 610.485 350.715 611.325 351.037C611.877 351.249 612.495 351.148 613.254 350.699L613.336 350.649L617.755 347.921L616.108 352.842C615.855 353.6 615.56 354.332 615.133 355.289L615.061 355.451L614.93 355.741L614.365 356.978L614.242 357.252C613.344 359.264 612.96 360.386 612.813 361.596L612.798 361.728L612.814 361.851C612.868 362.226 612.946 362.521 613.038 362.736L613.061 362.788L613.085 362.837L613.119 362.901C613.161 362.975 613.188 363.006 613.205 363.018L613.215 363.023L613.221 363.025L613.243 363.03C613.287 363.037 613.349 363.039 613.429 363.033C613.653 363.014 613.951 362.934 614.306 362.786C615.703 362.204 617.55 360.768 619.168 359.156L619.281 359.043L619.425 358.897L625.735 352.366L622.694 360.69C621.703 363.402 621.307 365.409 621.424 366.613C621.444 366.827 621.48 366.996 621.526 367.121C621.541 367.164 621.556 367.197 621.568 367.22L621.578 367.238L621.619 367.244C622.813 367.384 625.596 365.665 628.399 362.731L628.595 362.525L628.79 362.314L633.195 357.527L632.025 363.922C631.719 365.598 632.049 366.683 633.012 367.239L633.101 367.288L633.172 367.328C634.13 367.854 635.291 367.2 637.048 365.13L637.207 364.941L637.365 364.75L637.618 364.437L638.208 363.698L638.347 363.517C643.07 357.342 646.031 349.368 647.195 340.482L647.231 340.201L647.265 339.923L647.642 336.836L648.919 337.718L648.695 336.212L652.767 340.42C662.28 350.25 672.597 352.776 682.751 348.835C691.901 345.284 700.479 336.536 706.379 325.081L706.557 324.733L706.762 324.317C708.455 320.872 710.045 317.247 711.212 313.91L711.317 313.606C712.732 309.481 713.247 306.361 712.743 305.026L712.724 304.978L711.915 303.003L713.981 302.453L733.696 297.191C740.812 295.301 746.184 293.898 751.537 292.537L752.163 292.379L757.705 290.981L756.286 294.427C753.58 300.998 750.767 306.337 744.925 316.403L744.179 317.686L741.663 321.998L740.881 323.349C734.805 333.869 731.524 340.41 729.079 347.541L729.002 347.766L728.845 348.233C725.582 358.013 724.757 367.293 726.681 376.963L726.719 377.154L726.902 377.713C728.861 383.68 731.012 389.366 733.054 393.407L733.157 393.608L733.354 393.989L733.452 394.175C734.088 395.374 734.685 396.344 735.226 397.053L735.359 397.224C735.589 397.511 735.795 397.733 735.962 397.888L736.027 397.946L736.035 397.933C736.269 397.5 736.516 396.77 736.736 395.752L736.763 395.628L736.788 395.506L737.798 390.518L740.314 395.038L740.405 395.205C740.674 395.704 740.908 396.191 741.224 396.902L741.332 397.147L741.827 398.282L742.066 398.821C742.396 399.554 742.64 400.043 742.901 400.486L742.936 400.546L743.038 400.712L743.089 400.793L743.116 400.824C743.658 401.415 744.615 401.24 745.158 400.297L745.192 400.236L745.224 400.174C745.712 399.229 745.905 398.038 745.895 396.322L745.892 396.11C745.889 395.888 745.884 395.675 745.874 395.42L745.87 395.308L745.787 393.418L745.777 393.121L745.775 393.028L745.767 392.66L745.758 392.318C745.745 391.796 745.74 391.256 745.74 390.605L745.74 390.269L745.749 388.13C745.75 387.221 745.743 386.611 745.722 385.992L745.715 385.815L745.253 375.022L749.503 385.223C750.086 386.615 750.664 387.953 751.479 389.807L751.651 390.198L753.882 395.244L754.511 396.679L754.923 397.628L754.945 397.618L755.181 397.339C755.707 396.717 756.035 395.582 756.161 394.07L756.171 393.935L756.181 393.803L756.187 393.704L756.198 393.491L756.313 390.575L756.422 387.688L757.071 369.855L757.783 351.728L760.954 364.932C761.785 368.391 763.222 371.769 765.582 376.154L765.839 376.628L766.098 377.101L766.224 377.33L766.245 377.287C766.339 377.095 766.428 376.883 766.503 376.669L766.545 376.541L766.569 376.464L766.589 376.394L766.738 375.853L767.068 375.509C767.368 375.196 767.602 374.637 767.733 373.905L767.751 373.804L767.769 373.685L767.771 373.619C767.935 368.495 765.95 346.534 764.836 338.951L764.769 338.505L764.743 338.322L764.713 338.128L764.675 337.898C764.663 337.824 764.65 337.75 764.635 337.668L764.603 337.492L764.31 335.957C764.257 335.679 764.216 335.447 764.178 335.22L764.163 335.135L764.111 334.808C763.861 333.171 763.831 331.866 764.107 330.62C764.478 328.949 765.398 327.579 766.91 326.597L767.017 326.529L767.196 326.417L768.04 326.125L768.677 325.908C770.119 325.421 771.632 324.933 773.57 324.325L774.232 324.118L780.406 322.202L781.799 321.762L782.674 321.482C788.426 319.633 792.588 318.078 796.516 316.223C801.634 313.805 805.87 311.045 809.403 307.695L809.599 307.508L810.65 306.497L811.891 307.263C813.166 308.049 814.42 308.855 815.651 309.68L816.176 310.034L816.333 310.141L816.709 310.526L821.724 315.624L822.562 316.486C829.091 323.229 833.131 327.995 836.48 333.293L836.585 333.461L836.806 333.814C841.512 341.412 843.863 349.041 843.586 357.251L843.577 357.5L843.573 357.669C843.401 363.961 841.021 369.698 836.735 375.065C833.335 379.322 828.946 383.156 823.1 387.31L822.525 387.716L821.945 388.121C804.743 400.472 785.873 411.405 765.481 420.98C759.14 423.964 752.493 426.889 745.323 429.871L744.649 430.15L743.333 430.694L742.598 430.992L741.85 431.298L741.378 431.494C734.585 434.321 730.29 436.752 726.785 440.14L726.664 440.257L724.982 441.902L723.747 439.9C718.713 431.745 715.81 422.366 713.588 409.378L713.467 408.662L713.347 407.942L713.066 404.71C712.899 402.821 712.767 401.394 712.633 400.057L712.537 399.123L712.401 397.851L712.289 397.21L711.992 395.484L711.792 394.343L711.683 393.734L711.564 393.082C711.427 392.331 711.291 391.614 711.156 390.923L711.098 390.628C710.913 389.699 710.734 388.844 710.559 388.069L710.445 387.569L710.307 387.617C700.794 390.918 690.678 392.481 680.695 392.184L680.334 392.172L680.032 392.161L679.001 392.176C675.042 392.227 671.083 392.212 666.033 392.137L663.799 392.101L660.409 392.039L651.934 391.871C645.678 391.754 641.794 391.714 637.735 391.736L637.278 391.739L635.714 391.752L633.411 391.781L632.51 391.796L628.83 391.873L627.538 391.897C623.549 391.961 621.164 391.918 618.566 391.696L618.025 391.647L617.56 391.602L617.347 391.555L617.14 391.507C615.395 391.093 614.018 390.485 611.481 389.141L610.328 388.527C609.49 388.083 608.959 387.816 608.398 387.559L608.25 387.492L607.242 387.038L607.131 385.725C606.937 383.488 606.67 381.661 606.354 380.278L606.292 380.016L606.279 379.961L606.267 380.034C606.101 381.102 606.025 382.381 606.06 383.771L606.066 383.981L606.073 384.173L606.139 386.924C606.228 390.365 606.343 393.746 606.524 398.303L606.633 401.016L607.24 415.457L607.354 418.315C607.606 424.786 607.761 429.94 607.842 434.956L607.858 436.029L607.889 438.438L606.208 438.637C588.43 440.737 569.815 440.067 547.118 437.111L546.429 437.021L545.123 436.849L543.953 431.583C542.645 425.728 541.359 420.064 539.672 412.735L538.218 406.432L531.803 378.756C531.126 375.828 530.535 373.262 529.983 370.853L529.008 366.592L527.769 361.137L527.699 360.768C527.306 358.707 526.805 356.416 526.139 353.606L525.897 352.593L525.455 350.771L523.473 342.78L522.788 340.003L522.372 338.29C520.861 332.015 519.789 327.046 518.938 322.147L518.832 321.53C517.088 311.276 516.61 302.598 517.651 295.056C518.895 286.049 522.316 278.884 528.288 273.752L528.47 273.597L528.563 273.518L528.665 273.452Z" fill="#8FA7DF"/>
<path fill-rule="evenodd" clip-rule="evenodd" d="M616.379 156.261C632.948 145.254 654.459 139.458 673.675 146.665C673.903 146.746 673.813 147.079 673.575 147.026C670.538 146.36 667.453 145.987 664.352 145.859C670.639 146.627 676.739 148.276 683.106 147.164C704.371 143.653 726.92 150.866 741.049 167.386C741.414 164.959 744.431 165.049 745.414 166.765C764.204 173.382 774.846 198.24 781.943 215.49C782.777 218.565 788.568 231.334 785.787 232.991C799.023 251.119 806.47 272.585 813.079 293.818L813.268 294.334C814.768 298.49 815.913 303.193 812.736 306.891C825.916 314.947 838.102 325.768 843.862 340.43C853.037 362.058 841.346 380.382 823.117 392.1C805.052 405.177 785.48 416.064 765.249 425.413C758.446 428.553 751.558 431.5 744.63 434.355L743.94 434.637C738.498 436.874 733.006 439.504 728.935 443.808C721.019 455.357 713.706 420.762 713.626 415.941C709.913 417.056 705.825 417.081 701.993 417.664C702.48 418.497 702.517 419.582 701.925 420.471C701.934 423.293 701.635 426.138 701.083 428.934C706.964 428.412 706.761 434.343 700.629 432.975L700.323 435.842V435.842C703.122 434.975 709.035 436.36 705.572 439.696C703.758 440.592 701.826 439.766 699.892 439.861C699.058 446.415 698.741 452.973 698.132 459.555C703.385 464.12 711.184 465.329 715.847 470.808C719.923 475.262 720.024 482.231 715.359 486.423C717.865 490.701 714.835 496.272 710.201 497.396C704.227 498.815 697.971 496.924 692.206 495.328C681.722 491.878 671.802 486.663 662.468 480.813L662.062 480.559C657.444 477.681 654.101 473.202 652.513 468.016L652.173 466.965C646.532 449.452 636.498 415.102 644.025 398.876C647.572 394.948 653.288 399.522 655.354 394.894C642.021 393.852 620.537 396.172 609.674 388.557C610.74 403.875 612.323 419.184 612.259 434.548C611.989 436.568 613.355 437.832 612.806 439.871C614.789 443.26 616.501 446.792 618.2 450.328L618.307 450.428C620.071 452.098 622.338 455.486 620.017 457.472C627.915 469.029 632.199 482.669 635.7 496.084C639.424 496.936 640.83 503.86 640.6 507.169C639.555 516.061 628.998 516.119 622.061 516.869C618.009 517.295 613.944 517.56 609.872 517.671C601.632 517.893 593.382 517.458 585.21 516.386C578.552 515.803 571.193 514.065 567.877 507.625C565.204 503.002 564.786 496.065 568.484 491.917C567.403 483.972 569.937 475.691 574.888 469.427L575.039 469.238L575.026 469.233C574.913 469.184 574.923 468.996 575.386 468.902L575.438 468.893L575.66 468.549C582.935 457.288 583.842 454.2 578.444 441.356L573.539 441.181C564.45 440.849 555.266 440.37 546.47 438.113C545.224 439.15 543.032 439.03 542.543 436.997C536.144 409.654 530.273 382.183 524.035 354.8C517.551 325.982 503.579 282.233 537.39 265.523C533.936 265.524 533.167 261.386 532.328 258.775C529.25 248.627 536.031 239.251 543.122 232.663C568.018 207.707 586.748 176.266 616.379 156.261ZM568.902 494.972C568.434 508.407 578.616 511.629 590.077 511.972C597.218 512.65 604.413 512.858 611.581 512.578L614.958 512.383C620.598 512.051 626.281 511.637 631.77 510.352C635.384 509.61 636.291 506.381 634.985 503.225C634.421 503.476 633.754 503.493 633.232 503.127C632.648 502.719 632.224 502.286 631.903 501.776C613.332 510.028 589.964 509.124 571.967 499.629C569.66 499.516 569.361 496.766 568.902 494.972ZM614.048 452.447C607.298 448.37 593.629 446.598 587.109 451.728C587.556 454.305 586.511 456.69 585.531 458.987C588.506 458.278 614.382 454.796 610.727 461.148C608.681 462.796 605.896 461.661 603.531 461.438C597.188 460.912 590.802 461.079 584.478 461.797C583.927 463.34 583.714 465.071 583.029 466.526C589.433 464.416 596.134 463.406 602.854 463.046L603.227 463.026C606.161 462.871 609.594 462.222 611.778 464.616C613.64 467.157 609.508 468.907 607.38 468.657C598.315 468.386 589.232 468.721 580.175 469.111L579.777 469.767C573.377 480.347 571.999 484.514 574.586 497.203C574.571 497.19 574.555 497.18 574.543 497.168C574.533 497.854 574.312 498.473 573.843 498.933C593.361 505.258 611.539 504.899 630.934 498.626C628.098 484.401 622.47 470.965 618.286 457.134C617.181 456.516 616.853 455.152 616.026 454.249C615.19 454.178 614.361 453.518 614.048 452.447ZM660.818 395.052C652.315 401.057 656.155 408.153 658.506 416.306C661.943 428.291 664.583 440.502 667.524 452.614C669.256 463.372 676.068 472.703 685.869 477.541C690.277 479.861 695.114 481.361 700.057 481.978C701.965 482.172 704.08 481.968 705.358 483.676C706.083 484.46 706.163 485.747 705.358 486.516C702.83 489.377 695.484 486.796 692.076 486.082C666.821 478.438 662.983 460.165 658.111 437.254C655.751 424.53 649.951 411.129 653.451 398.225C651.334 399.355 648.083 398.967 646.582 401.102C643.116 423.026 650.76 445.268 656.651 466.228C657.959 470.632 660.72 474.506 664.737 476.818C673.307 482.044 682.29 486.821 691.794 490.119L692.083 490.201C696.906 491.583 707.326 495.312 711.028 491.413C711.8 490.274 711.765 489.055 710.792 488.298L710.32 488.119C709.415 487.77 708.349 487.277 708.184 486.221L708.174 486.148L708.209 486.135C707.422 484.693 708.949 483.078 710.318 482.725C712.246 482.655 713.143 481.372 713.829 479.489C715.059 470.272 702.099 467.809 697.802 461.503C697.347 463.805 693.799 463.367 693.818 461.045C693.677 453.993 695.212 446.876 696.263 439.919C694.646 439.85 692.927 440.502 691.353 440.149C691.12 438.696 695.662 437.174 696.912 436.694C697.171 435.492 697.444 434.295 697.735 433.103C687.632 433.713 692.325 430.477 698.705 429.37C698.904 428.694 699.078 427.999 699.237 427.313L699.315 426.97C699.718 425.25 699.932 423.625 700.002 421.945C695.535 423.989 690.511 425.229 685.671 424.189C676.926 422.16 672.393 411.559 675.903 403.603C675.105 400.781 676.673 397.78 678.09 395.4C672.333 395.38 666.573 395.222 660.818 395.052ZM575.322 469.03C575.246 469.075 575.175 469.126 575.107 469.182L575.038 469.238L575.056 469.243C575.138 469.26 575.259 469.213 575.332 469.038C575.316 469.053 575.316 469.045 575.322 469.03ZM575.854 468.853C575.716 468.857 575.599 468.868 575.497 468.883L575.437 468.893L575.418 468.922C575.383 468.976 575.361 468.998 575.335 469.036C575.48 468.918 575.678 468.863 575.854 468.853ZM586.294 460.449C585.823 460.511 585.353 460.568 584.879 460.627L584.786 460.88V460.88C585.288 460.729 585.79 460.587 586.294 460.449ZM607.194 440.057C598.792 440.911 590.325 440.385 581.92 441.339C583.568 443.612 584.744 446.128 585.729 448.783C592.632 442.274 603.706 444.265 612.011 446.662C611.452 445.032 610.937 443.387 610.477 441.727C609.234 441.927 607.815 441.23 607.194 440.057ZM812.121 307.688C800.636 319.375 783.278 322.588 768.424 327.748C764.817 330.003 766.58 334.473 767.039 337.868C767.9 343.441 768.582 349.041 769.078 354.658C770.913 352.538 775.721 352.261 778.411 351.4L778.769 351.319C782.358 350.497 786.089 349.263 789.751 350.063C791.228 350.383 791.328 352.424 790.154 353.15C787.181 354.994 783.545 355.047 780.137 355.45L779.266 355.555C776.25 355.913 773.211 356.24 770.181 356.113C769.8 356.173 769.416 356.027 769.176 355.77C769.553 361.642 770.31 367.598 770.053 373.48C769.913 374.524 769.577 375.661 768.835 376.435L768.81 376.524C768.39 378.01 767.023 380.662 765.45 378.699L765.154 378.168C762.843 374.003 760.651 369.648 759.534 364.997C759.162 374.403 758.861 383.804 758.486 393.207L758.473 393.433C758.378 395.029 758.065 396.949 757.026 398.177C757.118 398.907 756.463 399.332 755.878 399.071L755.8 399.107C755.24 399.358 754.337 399.59 753.995 398.906C752.021 394.296 749.92 389.759 747.994 385.136C748.096 387.509 747.981 389.886 748.057 392.26C748.095 394.97 748.599 398.155 747.304 400.661C746.2 402.857 743.447 403.431 741.971 401.52C740.787 399.695 740.116 397.44 739.04 395.505C736.006 410.479 728.323 388.468 726.913 383.932C722.577 386.464 718.006 388.602 713.279 390.312C714.579 392.279 714.265 394.953 714.673 397.213C715.042 400.584 715.333 403.956 715.624 407.335L715.731 407.981C717.502 418.546 720.081 429.345 725.757 438.542C730.563 433.842 736.868 431.07 743.034 428.581C750.459 425.523 757.824 422.326 765.088 418.908C784.724 409.687 803.631 398.877 821.256 386.223L821.855 385.804C831.649 378.921 841.856 369.895 842.106 357.052C842.951 335.997 825.322 321.634 812.121 307.688ZM595.689 295.753C578.923 280.044 553.252 259.732 530.095 274.657C508.464 292.939 525.602 336.776 530.021 360.384C535.639 385.2 541.577 409.947 547.085 434.785C566.725 437.374 586.66 438.73 606.397 436.398C606.174 418.885 604.99 401.394 604.604 383.874C604.244 374.848 604.369 365.786 603.014 356.846C601.865 349.577 603.341 340.795 599.288 334.445C597.787 332.133 595.347 330.109 594.802 327.322C594.789 327.191 594.959 327.149 595.042 327.221C596.229 328.263 597.181 329.505 598.44 330.504L599.366 331.22C600.871 332.39 602.37 333.64 603.303 335.304C603.398 334.595 601.602 328.272 602.678 329.027L602.88 329.581C604.327 333.556 605.632 337.577 606.003 341.83C607.423 356.324 608.217 370.891 609.433 385.407C612.367 386.727 615.062 388.669 618.265 389.37C623.512 389.889 628.766 389.596 634.022 389.526L634.514 389.521C649.85 389.292 665.137 390.152 680.461 389.909C696.124 390.516 712.136 386.418 725.505 378.185C718.18 345.146 743.329 321.582 754.956 293.34C741.562 296.714 728.232 300.339 714.875 303.894C716.678 308.296 710.847 320.769 708.653 325.19C696.914 348.306 673.173 363.413 651.824 341.351C651.834 341.419 651.842 341.486 651.849 341.557C651.133 340.903 650.34 340.328 649.542 339.776C648.47 348.567 645.57 357.427 640.096 364.486L639.499 365.234C637.792 367.36 635.32 370.156 632.586 368.55C630.573 367.462 630.195 365.346 630.585 363.211C624.009 370.36 616.843 371.974 621.337 359.673L621.188 359.827C618.673 362.407 611.996 368.109 611.317 361.368C611.613 358.012 613.683 355.017 614.735 351.873C613.611 352.567 612.347 352.91 611.061 352.416C607.611 351.094 609.386 347.153 610.155 344.672C612.104 338.399 614.092 332.137 616.114 325.887C615.413 322.171 617.632 318.474 615.552 315.245C614.662 315.71 613.463 315.613 612.603 314.466C607.558 307.755 601.768 301.538 595.689 295.753ZM547.318 435.925C547.323 435.963 547.323 435.995 547.326 436.033C547.519 436.046 547.709 436.063 547.902 436.08C547.706 436.033 547.512 435.976 547.318 435.925ZM712.946 411.799C709.851 379.973 717.881 394.961 685.267 395.323C685.414 396.12 684.365 396.028 684.735 395.806C684.263 394.047 681.585 399.201 681.212 399.87C680.508 401.362 680.187 403.22 679.939 404.852C678.191 413.996 684.704 422.006 694.202 418.119C692.979 418.017 691.606 418.458 690.591 417.678C690.596 417.676 690.598 417.671 690.603 417.666C689.695 416.04 694.678 415.97 695.669 415.535C699.53 414.729 703.402 413.98 707.241 413.076C709.112 412.635 711.028 411.944 712.946 411.799ZM744.302 399.502C744.023 399.339 744.166 399.872 744.259 399.602C744.271 399.567 744.289 399.534 744.302 399.502ZM779.42 229.565C765.461 230.561 756.424 237.447 746.518 246.277C745.778 246.915 745.028 247.541 744.261 248.147C748.589 255.728 753.256 263.108 757.766 270.583L758.612 271.989C759.927 274.182 761.212 276.415 761.995 278.857C764.663 287.288 755.345 302.129 751.96 310.407C735.758 338.965 720.54 358.792 735.281 392.616C736.072 390.481 734.324 383.03 736.939 382.74L736.886 382.21C736.05 373.612 736.013 363.257 738.621 355.664C737.177 370.355 738.742 385.752 744.316 399.467C745.774 386.465 743.842 371.94 744.291 358.584C744.273 356.531 747.382 356.553 747.47 358.584L747.576 362.032C747.941 373.719 748.57 385.957 755.374 395.843C756.029 380.793 753.281 364.94 758.561 350.511C758.993 349.472 760.547 349.552 760.592 350.787C760.689 355.698 762.769 372.324 766.357 375.208C767.343 372.201 767.242 368.91 767.084 365.76C766.596 354.345 764.948 343.207 762.925 331.952C762.559 329.728 763.214 326.99 765.52 326.132C767.232 324.505 769.597 323.35 771.553 322.424C783.983 316.29 801.083 317.471 809.491 304.838L809.899 304.223C810.879 302.742 811.798 301.279 812.211 299.502C811.078 295.275 809.449 291.155 808.066 287.005C806.83 283.338 805.56 279.683 804.229 276.05L803.783 274.84C797.84 258.636 790.274 243.081 779.42 229.565ZM683.171 395.375C682.853 395.479 682.601 395.797 682.331 396.034L682.272 396.083L682.437 395.951C682.613 395.81 682.771 395.679 683.014 395.493L683.171 395.375ZM609.556 387.027L609.631 388.008V388.008C610.112 388.106 610.584 388.229 611.055 388.349C610.508 387.953 610 387.515 609.556 387.027ZM680.67 364.854C680.615 364.661 680.891 364.549 680.994 364.718C685.051 371.847 693.037 374.685 700.726 375.814C702.035 376.12 701.875 377.925 700.726 378.306C696.428 379.728 691.466 377.812 687.948 375.261C684.342 372.649 681.882 369.121 680.67 364.854ZM758.013 360.785C757.252 366.272 757.321 371.868 757.255 377.406C757.506 371.868 757.714 366.324 758.013 360.785ZM646.011 370.448C646.808 370.723 647.633 370.904 648.445 370.974C647.583 371.385 646.597 371.179 646.011 370.448ZM583.459 193.017C571.264 206.806 560.589 221.9 547.473 234.859C539.787 241.795 532.516 251.275 538.51 261.714C539.774 262.212 539.996 264.072 538.906 264.947C539.167 264.913 540.839 264.104 540.463 264.766C537.104 266.199 534.149 268.275 531.604 270.786C547.462 259.136 568.489 268.463 582.32 278.904C589.146 283.884 595.492 289.373 601.435 295.28C603.562 295.661 605.761 296.795 607.534 297.682C619.76 303.547 621.675 311.472 620.666 324.141C616.997 331.126 615.261 339.114 612.705 346.602C610.075 352.424 615.248 348.5 615.99 345.961C617.79 343.724 618.659 340.75 619.762 338.149L619.841 337.964C620.155 337.22 620.827 336.666 621.692 336.914C622.387 337.113 623.031 337.971 622.761 338.714L622.207 340.139C619.525 347.023 616.754 353.943 614.618 360.998C621.835 356.681 625.408 348.511 629.197 341.296C630.238 339.378 633.039 341.068 632.101 342.991C631.231 344.767 630.343 346.537 629.403 348.277C626.945 353.507 625.164 359.025 623.688 364.606C631.8 359.774 634.627 349.931 636.96 341.624C637.104 339.255 640.526 339.721 640.173 342.047C639.305 346.665 637.981 351.215 635.91 355.444L635.362 358.642C634.998 360.774 634.637 362.907 634.293 365.042C634.488 364.946 634.699 364.934 634.902 364.984C642.089 357.757 644.965 347.786 647.475 338.202C646.282 334.148 647.742 330.003 647.575 325.824C648.21 320.474 646.482 315.488 644.089 310.711C642.655 295.932 628.402 289.522 618.464 280.835C606.293 268.824 599.894 250.432 582.787 244.479C581.008 244.592 579.293 244.211 577.628 243.638C577.556 243.618 577.543 243.492 577.628 243.48C579.322 243.204 581.014 242.772 582.712 242.463C583.169 240.973 584.998 240.791 586.373 241.457C601.165 234.983 613.426 223.598 625.18 212.766C613.703 202.163 598.843 195.58 583.459 193.017ZM651.525 343.32C651.771 343.593 651.986 343.888 652.147 344.211C652.191 344.294 652.186 344.393 652.2 344.484C651.989 344.089 651.766 343.698 651.525 343.32ZM604.601 298.501C608.688 302.782 612.611 307.244 616.304 311.912C614.98 305.175 610.642 301.281 604.601 298.501ZM741.367 247.206C732.495 263.212 718.602 277.272 715.354 295.831C715.093 297.419 715.075 299.027 715.042 300.629C724.947 296.596 735.374 294.083 745.592 290.988C749.465 289.955 753.226 288.329 757.295 288.121C760.649 282.315 757.955 276.631 755.003 271.335C751.157 262.927 745.073 255.656 741.367 247.206ZM598.382 239.421C595.816 240.859 593.17 242.174 590.38 243.107C592.782 244.324 594.979 245.861 597.013 247.612C598.034 245.013 598.417 242.198 598.382 239.421ZM663.612 147.154C662.28 158.879 662.345 170.979 665.463 182.423C670.112 200.258 687.328 216.931 706.808 213.435C726.462 209.333 736.122 189.006 740.174 171.132C729.824 158.018 713.621 149.815 696.923 149.154C686.065 148.711 673.79 152.207 663.612 147.154Z" fill="black"/>
<path fill-rule="evenodd" clip-rule="evenodd" d="M712.768 59.7725C723.971 59.7725 737.413 65.2073 738.556 65.316L738.587 65.3176C739.188 65.3176 741.538 67.1088 745.635 70.6911L741.197 79.3535L741.556 79.6967C743.275 81.3456 744.742 82.8486 745.9 84.0334C755.357 93.7075 757.057 131.691 754.828 144.936C752.599 158.182 748.472 171.144 729.254 171.144C710.037 171.144 688.657 159.581 685.364 155.98C683.168 153.58 680.702 152.43 677.965 152.53C677.853 152.388 677.741 152.246 677.631 152.105L677.228 152.048C673.44 151.499 670.726 150.76 669.086 149.832C665.882 148.018 662.361 138.483 662.361 136.382C662.361 134.303 657.103 119.176 656.998 117.575L656.996 117.531C656.996 116.192 650.127 110.041 650.127 108.087C650.127 106.133 648.743 106.252 650.127 99.3675L650.529 97.345C652.003 90.0152 654.887 77.878 665.882 72.604C677.965 66.8084 701.452 59.7725 712.768 59.7725Z" fill="#D08B5B"/>
<path fill-rule="evenodd" clip-rule="evenodd" d="M744.202 73.5586C740.829 73.66 736.941 73.8117 732.855 74.0386C726.691 74.3809 720.085 74.8939 714.126 75.6621C708.151 76.4323 702.881 77.4524 699.357 78.7907C695.985 80.0711 693.158 83.1832 690.815 87.2881C688.48 91.3779 686.685 96.3513 685.329 101.189C683.974 106.022 683.067 110.689 682.498 114.15C682.214 115.88 682.014 117.307 681.886 118.3C681.822 118.797 681.776 119.185 681.746 119.448C681.731 119.579 681.72 119.68 681.712 119.747L681.704 119.822L681.702 119.841L681.702 119.845L681.702 119.846C681.702 119.846 681.702 119.846 680.956 119.77L681.702 119.846L681.659 120.267L681.277 120.448L681.277 120.448L681.277 120.448L681.274 120.449L681.265 120.454L681.224 120.473L681.141 120.514L681.061 120.553C680.917 120.624 680.704 120.731 680.433 120.871C679.889 121.152 679.11 121.568 678.175 122.104C676.302 123.179 673.81 124.734 671.321 126.659C670.079 127.62 669.334 128.324 668.906 128.828C668.704 129.067 668.589 129.241 668.525 129.359L669.076 129.388L669.057 130.118L669.057 130.118L669.057 130.119L669.057 130.123L669.057 130.14L669.055 130.208C669.054 130.269 669.053 130.358 669.051 130.474C669.048 130.706 669.046 131.041 669.048 131.454C669.052 132.282 669.073 133.418 669.142 134.655C669.211 135.894 669.328 137.224 669.521 138.441C669.716 139.67 669.981 140.733 670.325 141.466C670.603 142.059 671.278 142.622 672.31 143.119C673.319 143.606 674.555 143.975 675.776 144.25C676.993 144.524 678.166 144.697 679.038 144.802C679.473 144.855 679.831 144.89 680.079 144.912C680.203 144.923 680.299 144.93 680.364 144.935L680.437 144.94L680.455 144.942L680.459 144.942L680.459 144.942H680.459L680.981 144.975L681.13 145.476L682.69 150.704L682.731 150.841L682.719 150.985L682.476 153.704C682.004 153.439 681.521 153.222 681.029 153.052L681.212 150.995L679.839 146.396C679.587 146.373 679.253 146.339 678.858 146.291C677.954 146.183 676.728 146.002 675.447 145.714C674.172 145.427 672.813 145.027 671.658 144.47C670.525 143.924 669.466 143.168 668.966 142.103C668.533 141.176 668.241 139.948 668.04 138.676C667.836 137.391 667.715 136.007 667.645 134.739C667.574 133.469 667.552 132.307 667.548 131.461C667.546 131.131 667.547 130.849 667.549 130.627C667.255 130.448 666.934 130.103 666.943 129.535C666.951 129.003 667.26 128.449 667.762 127.858C668.286 127.24 669.123 126.463 670.403 125.473C672.962 123.493 675.516 121.901 677.428 120.803C678.385 120.254 679.184 119.828 679.744 119.538C679.947 119.434 680.118 119.347 680.255 119.278L680.256 119.277C680.286 119.007 680.334 118.612 680.399 118.108C680.529 117.1 680.731 115.656 681.018 113.907C681.592 110.411 682.511 105.686 683.884 100.784C685.257 95.8881 687.092 90.7841 689.512 86.5445C691.923 82.3202 694.974 78.8508 698.824 77.3884C702.522 75.984 707.94 74.9471 713.934 74.1744C719.943 73.3998 726.588 72.8843 732.772 72.5409C737.21 72.2945 741.415 72.1365 744.982 72.0352L744.202 73.5586Z" fill="#9DDADB"/>
<path fill-rule="evenodd" clip-rule="evenodd" d="M664.018 72.3318C670.044 65.9311 704.256 56.0308 721.565 58.1294L722.084 58.1967C723.465 58.372 724.826 58.6374 726.17 58.998C730.512 60.0129 734.998 61.5496 738.586 64.1164C741.581 66.2163 751.031 69.6455 748.246 75.1388C749.279 77.0966 749.664 79.5155 748.966 81.4438C748.878 82.1099 748.673 82.7234 748.41 83.3594C750.617 86.6174 752.364 90.3017 753.778 93.8061C756.249 102.625 757.786 111.804 758.012 120.802C758.761 137.897 756.888 158.317 742.008 169.372C733.02 176.377 718.94 176.612 708.839 167.927C708.266 167.248 705.57 165.416 706.469 165.095C706.737 165.378 707.012 165.653 707.293 165.924C707.28 165.894 707.277 165.864 707.283 165.831L707.019 165.592C706.523 165.133 705.88 164.466 706.612 164.597C706.644 164.634 706.68 164.667 706.714 164.704C706.87 164.797 706.987 164.878 707.078 164.949L707.125 164.987L707.11 164.972C706.688 164.522 706.435 164.062 707.066 164.356L707.15 164.396C707.43 164.692 707.715 164.975 708.006 165.25C708.001 165.218 708.006 165.185 708.023 165.15L707.753 164.888C707.489 164.629 707.529 164.628 707.658 164.419C707.097 163.631 708.145 164.099 708.218 164.406C708.874 164.251 709.45 165.483 709.872 165.633C728.389 179.879 755.261 167.239 754.825 127.544L754.819 126.767C754.691 114.075 753.624 101.029 748.378 89.5393C747.867 88.4325 747.297 87.3558 746.669 86.3141C746.236 85.5329 745.773 84.7717 745.275 84.0305C743.881 83.9178 742.505 83.6624 741.149 83.2668C740.683 83.1491 740.223 83.0189 739.763 82.8661C733.036 83.2332 726.46 83.6326 719.715 84.0112L717.608 84.1425C711.895 84.5101 705.985 85.0988 701.375 88.6353C696.85 91.855 696.83 98.2039 692.957 101.739C687.434 105.489 687.394 108.872 686.331 114.399C686.41 118.566 689.297 124.62 683.999 126.373C684.892 127.648 683.646 127.036 683.548 126.588C683.538 126.591 683.528 126.593 683.521 126.593C684.317 128.075 683.147 127.142 683.043 126.666C682.98 126.649 682.918 126.603 682.855 126.541C683.658 127.839 682.361 126.93 682.437 126.694C680.887 124.309 677.695 123.938 675.446 124.57C675.418 124.655 675.318 124.663 675.256 124.618C665.69 126.692 668.158 146.508 677.961 144.592C678.38 144.507 678.37 144.708 678.454 144.727C678.227 144.132 678.866 144.375 678.859 144.5L678.898 144.498C678.929 144.495 678.916 144.492 678.939 144.5C678.72 143.283 679.952 145.046 679.855 145.118C679.893 145.096 679.935 145.083 679.973 145.078L679.93 144.962C679.726 144.417 679.743 144.644 679.745 144.332C679.591 143.946 679.58 144.115 679.616 143.863C680.156 143.445 680.315 144.715 680.495 144.808C680.187 144.377 680.432 144.025 680.723 144.259C682.931 148.906 685.783 153.272 689.469 156.712C689.872 157.03 690.28 157.343 690.702 157.638C692.27 159.004 694.675 159.883 696.142 161.094C696.142 161.114 696.132 161.139 696.117 161.164L696.151 161.194V161.194L696.185 161.226L696.695 161.472C696.846 161.599 696.981 161.742 697.101 161.9C697.228 162.048 697.341 162.21 697.436 162.383C697.484 162.593 697.379 162.681 697.178 162.591C697.091 162.561 697.003 162.526 696.916 162.493C696.921 162.501 696.923 162.506 696.928 162.511C696.957 162.554 697.151 163.005 696.927 162.932L696.901 162.921C696.778 162.876 696.655 162.826 696.535 162.779C696.678 162.957 696.808 163.149 696.923 163.312C697.046 163.44 697.121 163.59 697.151 163.76C697.146 163.855 697.093 163.896 696.998 163.883C696.853 163.835 696.71 163.785 696.568 163.733L696.608 163.81C696.709 164.009 696.853 164.342 696.598 164.231C696.38 164.163 696.17 164.086 695.96 164.001C695.942 164.036 695.907 164.048 695.837 164.016C695.169 163.778 694.523 163.487 693.905 163.144C693.362 162.749 692.814 162.361 692.269 161.967C691.756 161.659 691.26 161.316 690.788 160.931C687.623 158.886 684.853 156.287 682.655 153.394C678.979 156.579 671.63 153.536 667.085 151.043C663.064 148.814 661.483 144.693 661.074 140.251C660.225 134.27 655.34 132.222 655.68 119.099C655.673 119.101 655.665 119.101 655.655 119.101C655.477 119.049 655.305 118.979 655.142 118.889C654.975 118.809 654.817 118.713 654.669 118.598L654.486 118.345V118.345C654.392 118.293 654.307 118.238 654.241 118.183L654.208 118.226C654.101 118.355 654.173 118.161 654.179 118.122L653.862 117.691C653.109 116.663 652.284 115.509 651.611 114.587L651.59 114.624C651.575 114.653 651.567 114.673 651.574 114.682C649.974 112.381 648.469 109.602 648.051 106.912C647.557 104.84 647.75 102.704 648.181 100.785C650.027 94.0627 656.076 78.8514 664.018 72.3318ZM707.444 165.294L707.344 165.204L707.432 165.315C707.479 165.372 707.526 165.423 707.603 165.476C707.598 165.458 707.598 165.441 707.6 165.421C707.549 165.382 707.497 165.339 707.444 165.294ZM721.487 61.5069C709.75 60.4971 698.205 63.0847 687.004 66.217L686.231 66.4392C679.862 68.2577 673.128 69.8941 667.746 73.7865C660.226 79.55 656.343 88.7186 652.954 97.1839C649.995 103.473 651.508 110.566 655.967 114.957C656.431 110.593 657.222 106.357 658.458 102.154C658.716 101.498 658.521 101.282 659.077 101.197C659.917 112.522 655.781 120.889 663.966 134.311C667.517 140.644 663.406 145.278 673.435 148.611L673.707 148.715C675.796 149.504 678.078 150.126 680.124 149.685L679.941 149.387C679.754 149.08 679.697 148.93 679.969 148.799C679.962 148.784 679.952 148.769 679.942 148.751C679.722 148.336 679.509 147.915 679.306 147.489C679.224 147.517 679.141 147.537 679.056 147.559C679.111 147.662 679.118 147.765 678.963 147.8C678.412 147.989 677.846 148.065 677.266 148.029L677.142 148.02C676.487 147.98 676.074 147.861 675.705 147.75C675.583 147.73 675.46 147.71 675.34 147.685C674.153 147.421 672.896 146.751 672.082 146.087C662.809 140.817 663.768 122.876 675.198 121.18C675.432 109.884 680.801 90.8263 689.712 80.0623C697.766 70.1613 719.755 65.8699 735.053 67.3831C735.276 67.4569 735.499 67.5316 735.722 67.6069C738.082 67.8168 740.331 68.8689 742.693 69.3577C740.997 68.0859 739.074 67.2388 737.092 66.5189C733.144 64.1023 728.618 62.7947 724.245 61.8725C723.339 61.6497 722.421 61.527 721.487 61.5069ZM674.676 130.254C675.29 129.92 675.22 130.243 675.361 130.149C679.782 129.788 684.548 133.661 687.019 136.89C686.824 137.093 686.296 136.492 686.204 136.397C686.191 136.409 686.176 136.419 686.161 136.424L686.23 136.521C687.232 137.959 685.246 136.267 685.06 135.918C685.028 135.936 684.995 135.946 684.958 135.938C685.115 136.093 685.596 136.496 685.678 136.782L685.806 136.888C687.007 137.918 686.908 138.693 685.543 137.23C685.576 137.298 685.588 137.361 685.566 137.411L685.613 137.442C686.283 137.911 686.835 139.219 685.433 137.876C685.579 138.857 684.043 136.962 683.994 136.975C681.337 134.888 677.425 132.858 674.093 132.585L673.978 132.572C673.366 132.494 673.077 132.312 673.292 131.912C672.539 131.733 672.715 131.361 673.072 131.374C672.54 131.024 673.019 130.69 673.327 130.82C673.115 130.233 673.965 130.624 674.043 130.542C674.484 129.861 674.603 130.429 674.676 130.254ZM665.41 93.8587C667.533 93.0804 673.804 95.4102 673.303 98.4956C673.004 99.204 672.019 99.6099 671.328 99.21L670.425 98.6031C668.853 97.5499 667.436 96.6264 665.748 95.7079C664.83 95.2519 664.435 94.2839 665.41 93.8587ZM677.489 89.2735L676.669 88.7395C672.244 85.8415 665.988 81.4503 677.082 85.9935C678.347 86.5361 680.027 86.8572 680.717 88.0621C681.8 90.2829 678.948 90.4321 677.489 89.2735ZM677.987 76.2705C677.632 74.9221 682.05 76.5043 683.336 76.9215L683.532 76.9955C684.783 77.4621 686.217 77.8948 686.966 78.9753C687.842 80.4682 686.068 80.7774 684.969 80.1031C682.715 78.6292 680.244 77.5172 677.987 76.2705ZM689.222 69.9892C686.735 67.2715 693.39 69.8749 694.387 70.5976L694.416 70.6189C695.16 71.143 695.009 72.2718 694.31 72.6033C692.321 72.6412 690.858 70.9825 689.222 69.9892ZM700.539 67.0117C696.585 64.1684 701.793 65.5209 703.602 66.6351C704.835 67.7231 703.565 69.5598 700.539 67.0117Z" fill="black"/>
<path fill-rule="evenodd" clip-rule="evenodd" d="M723.016 140.798C724.419 138.494 727.409 144.139 727.727 145.109C728.008 145.969 728.194 146.85 728.288 147.741C729.376 147.984 730.505 147.984 731.619 147.771C733.276 147.454 734.288 146.565 735.727 145.801C736.722 145.274 737.975 145.892 738.492 146.767C739.1 147.797 738.712 148.866 737.912 149.634C736.396 151.089 733.411 151.424 731.431 151.037C730.297 150.816 729.257 150.391 728.339 149.774C728.333 149.889 728.329 150.004 728.32 150.119L728.302 150.319C728.15 151.933 727.706 153.963 726.45 155.014C724.39 156.737 721.848 153.423 723.849 151.702L723.911 151.65C725.155 150.646 725.427 147.953 725.36 146.47C725.316 145.502 725.139 144.521 724.833 143.599L724.77 143.415C724.678 143.155 723.673 140.684 723.31 140.999L723.293 141.017C723.143 141.195 722.901 140.987 723.016 140.798ZM734.217 127.796C736.11 128.946 738.995 131.626 736.958 134.475C734.56 136.987 731.108 134.107 729.407 132.804C727.829 131.794 726.057 134.391 727.521 135.57C739.814 144.658 744.803 128.097 735.174 126.445C734.114 126.263 733.72 127.441 734.217 127.796ZM713.997 117.173C715.847 116.845 717.743 117.304 719.274 118.385L719.39 118.469C720.866 119.546 722.516 121.438 721.67 123.295C721.33 124.041 720.312 124.158 719.667 123.82C718.592 123.257 718.397 121.872 717.438 121.106C716.651 120.477 715.592 120.096 714.579 120.188C712.199 120.404 710.735 122.748 709.996 124.768C709.901 125.026 709.521 125.127 709.373 124.849C707.63 121.596 710.715 117.754 713.997 117.173ZM743.639 115.945C747.184 115.653 751.333 119.323 750.4 123.059C749.952 124.852 747.289 124.801 746.815 123.059C746.555 122.101 746.581 121.253 745.89 120.457C745.32 119.8 744.51 119.419 743.639 119.477C742.679 119.542 741.793 120.021 741.121 120.694C740.513 121.302 740.15 122.192 739.52 122.73C739.365 122.862 739.158 122.871 739.005 122.73C737.922 121.733 738.572 119.656 739.259 118.615C740.242 117.125 741.842 116.093 743.639 115.945ZM707.246 110.546C709.52 108.535 713.652 106.594 716.719 107.583C718.482 108.152 719.25 110.989 717.282 111.888C715.003 112.929 712.375 112.505 710.056 113.585C709.081 114.038 708.165 114.605 707.487 115.436C706.952 116.091 706.409 116.953 705.636 117.33C705.433 117.43 705.158 117.432 704.995 117.248C703.301 115.335 705.767 111.853 707.246 110.546ZM739.73 107.484C741.136 107.09 742.695 107.098 744.123 107.345C745.55 107.593 746.999 108.183 748.164 109.045L748.3 109.146C749.572 110.103 751.09 111.496 751.009 113.191C750.941 114.607 749.449 115.565 748.161 114.823C747.111 114.218 746.617 113.005 745.728 112.198C744.995 111.532 744.133 111.006 743.214 110.638C742.193 110.229 741.17 110.038 740.074 110.02C739.23 110.006 738.381 110.282 737.553 110.37C737.621 110.51 736.967 110.445 736.592 110.321C736.314 110.203 736.313 109.852 736.409 109.625C736.887 108.497 738.625 107.793 739.73 107.484Z" fill="black"/>
<path fill-rule="evenodd" clip-rule="evenodd" d="M422.923 520.318C415.481 509.741 399.793 507.99 389.714 500.578C384.405 496.512 378.787 493.822 374.661 488.348C381.23 480.639 373.106 462.569 371.434 452.133C364.81 424.812 358.682 397.054 350.803 369.765C364.458 374.01 360.9 348.59 358.95 342.712C358.815 341.904 357.813 341.742 357.199 341.488C357.371 340.334 357.844 340.08 356.409 339.762C355.93 332.845 357.889 325.101 354.348 318.991C350.357 312.322 340.817 306.741 332.934 306.649C327.397 284.687 326.382 274.328 300.149 283.638C300.729 281.499 300.909 279.537 299.898 277.376C295.954 265.47 290.996 252.445 286.685 240.38C281.716 226.496 276.579 212.139 269.934 198.798C265.305 190.326 250.826 188.062 241.012 189.464C238.671 185.339 232.77 173.928 225.305 176.566C225.249 173.125 225.195 169.683 225.15 166.241C225.112 163.25 225.427 160.182 224.275 157.341C223.055 154.332 220.571 152.744 217.653 151.593C208.821 148.679 198.675 143.998 189.355 146.894C181.212 150.606 182.161 164.563 178.22 172.15C172.698 163.972 163.281 169.455 161.289 178.226C138.604 187.257 119.106 176.997 117.654 212.449C118.905 218.912 119.968 224.974 119.375 231.499L118.689 231.57C112.883 262.982 110.65 296.655 112.054 331.66C111.773 345.443 106.744 358.308 101.88 370.746C98.3033 379.891 94.6096 389.348 92.8586 399.051C90.917 407.132 83.7796 445.993 99.6504 433.091C100.258 477.303 139.704 482.963 175.226 473.198C212.935 465.368 255.386 467.619 278.921 429.74C286.905 443.386 289.659 451.811 291.663 466.081C293.863 476.534 297.056 488.406 302.927 495.32C297.872 504.408 295.396 515.478 295.64 522.693C295.736 525.527 294.438 526.84 296.304 528.601C305.251 537.052 325.214 537.147 340.394 540.91C350.803 542.233 388.44 547.295 394.192 543.995C398.203 545.115 393.538 534.689 397.549 534.467C398.922 534.477 399.105 532.731 400.514 532.795C409.511 533.205 428.908 535.846 424.218 528.601L422.923 520.318Z" fill="#D08B5B"/>
<path fill-rule="evenodd" clip-rule="evenodd" d="M383.714 545.872C360.935 545.009 329.39 538.61 307.203 533.803C301.442 532.722 297.344 529.715 296.145 527.162C295.601 526.005 295.775 523.917 296.3 521.481C296.721 519.525 295.477 517.343 295.707 515.238C296.033 512.253 298.069 507.377 299.122 505.594C301.215 502.052 302.647 493.013 302.803 493.108C305.587 494.804 308.743 495.541 311.992 496.449C312.034 496.46 312.828 498.475 312.869 498.487C312.884 498.528 312.898 498.568 312.913 498.609C313.777 501.013 314.953 502.035 316.349 503.281C317.876 504.643 319.665 504.622 321.588 504.867C326.363 505.475 329.447 503.118 333.978 499.986L334.313 499.977C334.817 499.966 335.336 499.967 335.864 499.968C338.52 499.973 341.399 500 343.453 498.333C343.509 498.288 343.563 498.242 343.616 498.196C343.665 498.243 343.717 498.289 343.771 498.334C343.871 498.416 343.975 498.489 344.082 498.554C344.538 498.284 344.986 498.011 345.431 497.741C346.939 496.824 351.068 494.515 351.105 494.577C352.35 496.68 372.673 484.856 374.436 486.527C376.694 488.668 381.814 496.818 389.379 500.334C402.772 506.559 412.05 511.066 419.071 516.325C426.093 521.583 422.392 524.793 423.084 525.089C424.839 525.84 424.174 531.293 424.087 532.1C424.01 532.814 414.31 534.023 408.289 533.853C401.465 533.66 398.193 532.08 397.578 533.001C395.121 536.348 396.754 543.618 396.754 543.618C396.754 543.618 391.237 547.374 383.714 545.872Z" fill="white"/>
<path fill-rule="evenodd" clip-rule="evenodd" d="M187.709 335.09L189.621 335.858C196.646 338.657 204.36 339.797 215.858 340.264L229.968 340.817C237.497 341.107 243.025 341.301 248.555 341.467L250.35 341.519L253.135 341.597L254.064 341.637L254.597 342.398C255.531 343.733 257.322 344.805 259.919 345.622L260.193 345.707C262.211 346.318 264.456 346.731 267.638 347.15L267.852 347.178L270.446 347.508L270.991 347.58L271.404 347.636C271.58 347.661 271.745 347.685 271.902 347.708L272.136 347.743L272.153 347.725C272.185 347.686 272.216 347.639 272.241 347.592L272.264 347.545L272.279 347.507C272.93 345.641 273.613 343.741 274.337 341.789L274.555 341.202C274.555 341.202 274.441 340.227 275.136 340.043C276.592 339.658 281.008 340.497 281.008 340.497C283.983 341.038 287.126 340.589 291.129 341.278L295.87 342.089L304.784 343.612L309.824 344.49L310.288 344.572L310.525 344.758L310.608 344.786L310.701 344.817C310.734 344.827 310.77 344.838 310.809 344.85L310.93 344.885C311.281 344.986 311.753 345.105 312.378 345.251L313.074 345.41C314.183 345.659 316.751 346.228 317.644 346.436L318.185 346.563L318.889 346.732C321.519 347.374 323.362 347.936 324.612 348.539L324.692 348.578L324.767 348.615L324.793 348.626C328.101 350 331.418 352.602 337.343 358.027L337.709 358.363L340.05 360.518C345.188 365.241 348.077 367.606 350.725 369.018L350.887 369.104L352.087 369.715L352.206 370.861L352.23 371.075L352.256 371.296C352.376 372.26 352.559 373.268 352.861 374.707L352.93 375.035L353.255 376.554L353.357 377.046L353.429 377.395C353.578 378.132 353.693 378.754 353.79 379.362L353.82 379.552L355.575 387.727C357.046 394.553 358.622 401.796 360.503 410.39L361.933 416.913L368.736 447.921L370.38 455.462L371.072 458.643L371.182 459.191L371.252 459.525C371.368 460.069 371.512 460.693 371.716 461.544L372.037 462.874L372.387 464.318L372.556 465.029L372.723 465.738C374.302 472.511 374.903 476.899 374.463 481.047C373.972 485.675 372.025 489.076 368.35 490.824L368.295 490.85L368.253 490.873L368.057 490.978C366.103 492 364.325 492.357 360.799 492.697L359.702 492.801L359.561 492.816L359.398 492.835C358.181 492.991 355.862 493.455 353.993 493.956L353.696 494.038L353.407 494.119C352.46 494.39 351.666 494.662 351.086 494.918C350.929 494.987 350.794 495.053 350.683 495.113L350.621 495.147L350.589 495.348L350.04 495.802C348.283 497.251 346.467 498.39 344.395 499.377L344.164 499.486L343.735 499.686L342.849 499.637L341.923 499.591C341.024 499.548 340.042 499.51 338.871 499.469L337.877 499.435L334.244 499.318L332.691 499.263L331.606 499.22C327.896 499.066 325.075 498.871 322.215 498.545C317.774 498.039 313.928 497.256 310.546 496.089L310.305 496.005L309.965 495.883C303.916 493.679 299.558 490.215 297.163 485.204L297.068 485.001L296.974 484.763L296.901 484.572C295.714 481.402 294.577 475.81 293.059 466.701L291.998 460.278L291.809 459.167C291.692 458.491 291.593 457.939 291.505 457.481C289.656 448.198 285.668 439.208 279.024 428.191C278.643 427.559 278.229 427.135 277.833 426.903L277.79 426.879L278.217 427.651L277.66 428.681C271.072 440.818 260.52 449.817 246.455 456.283C235.198 461.458 222.223 464.846 206.452 467.277L205.973 467.35L205.498 467.413C198.132 468.407 171.79 472.966 169.339 473.889L169.271 473.917L169.067 474.005L168.847 474.044C158.53 475.852 150.47 476.716 143.144 476.595L142.892 476.591C134.01 476.416 126.52 474.734 120.184 471.224C109.082 465.072 101.783 453.423 98.3421 435.174L98.239 434.619L98.1006 433.863L98.5334 433.226C98.8425 432.772 99.1254 432.379 99.4662 431.926L99.7085 431.606L100.393 430.716L100.606 430.443C100.656 430.38 100.703 430.32 100.75 430.262L101.645 429.152C103.749 426.535 105.852 423.831 108.658 420.157L110.005 418.389L113.231 414.144C122.652 401.756 128.043 395.311 134.894 388.94L135.342 388.526L136.304 387.713C138.16 386.15 140.098 384.549 142.522 382.572L144.306 381.121L149.55 376.865L151.252 375.476C158.585 369.48 163.272 365.429 167.917 360.96L168.072 360.812C174.486 354.628 179.696 348.588 183.983 342.166L184.237 341.783L184.273 341.735C184.953 340.838 185.841 339.208 186.897 336.885L187.709 335.09ZM322.82 282.413L322.953 282.497L323.095 282.586L323.218 282.699C325.564 284.847 327.243 287.505 328.496 290.79L328.625 291.134L328.71 291.366C329.509 293.569 330.047 295.747 330.848 299.603L331.224 301.419L331.375 302.13C331.941 304.769 332.369 306.415 332.945 308.051L333 308.206L333.016 308.261C334.243 312.495 335.507 316.216 336.926 319.672L337.059 319.995L339.273 325.291L335.2 323.763C331.947 322.543 328.435 321.696 324.397 321.097L323.83 321.015L323.399 320.955C320.717 320.588 319.507 319.341 315.205 319.037L314.512 318.989L312.513 318.85L309.876 318.665L309.873 318.643L305.522 318.35L304.774 318.294L304.596 318.279C304.479 318.269 304.387 318.26 304.311 318.251C304.248 318.243 304.193 318.235 304.133 318.224L303.738 318.15L303.586 318.119C303.491 318.1 303.408 318.081 303.335 318.061L303.266 318.042L302.955 318.004C297.643 317.349 293.204 315.614 289.044 314.047L288.79 313.95L288.546 313.856L286.394 313.005L285.801 312.176C285.825 312.128 285.85 312.075 285.875 312.018C285.953 311.842 286.002 311.702 286.028 311.598L286.036 311.561L286.041 311.535L286.01 311.506C285.914 311.421 285.724 311.28 285.398 311.073L285.275 310.995L284.502 310.52L284.249 310.363L284.016 310.215C283.904 310.143 283.796 310.072 283.691 310.002L283.518 309.884L283.366 309.79C280.769 308.179 278.68 306.154 276.583 305.559L276.429 305.516L276.3 305.481L276.212 305.461C275.419 305.288 274.407 305.256 273.68 305.403L273.578 305.425L273.484 305.449C273.358 305.483 273.258 305.519 273.186 305.552L273.152 305.569L273.126 305.582L269.147 307.613C269.115 307.544 269.082 307.495 269.055 307.466L269.045 307.457L269.041 307.454L268.703 307.346C266.999 306.808 265.238 306.388 262.689 305.88L261.896 305.725L258.984 305.165L258.38 305.046C257.326 304.838 256.549 304.674 255.756 304.493L255.177 304.357L250.819 303.446L245.404 302.326L232.272 299.615L226.322 298.369L230.169 295.891L230.694 295.555C232.711 294.271 234.744 293.06 236.792 291.925L237.38 291.601L237.41 291.586C244.755 287.9 252.315 285.159 259.879 283.503C267.837 281.757 275.734 281.228 283.404 282.005L283.864 282.053L283.958 282.073C286.356 282.58 288.063 283.857 289.714 286.043L289.825 286.193L292.145 285.549C293.2 285.252 293.914 285.046 294.273 284.933L294.433 284.88L296.67 284.11C302.561 282.087 306.189 281.05 309.994 280.509C315.121 279.781 319.384 280.296 322.82 282.413Z" fill="#FFCF77"/>
<path fill-rule="evenodd" clip-rule="evenodd" d="M287.275 311.354L286.468 312.976C282.769 320.429 271.981 346.897 271.981 346.897C271.981 346.897 259.416 344.325 257.233 343.204L257.143 343.157C257.143 343.157 261.093 327.88 263.35 322.015C265.997 315.135 270.603 308.177 270.886 307.434L271.549 305.683L272.705 305.564C272.784 305.556 272.863 305.549 272.942 305.544C273.702 305.496 275.81 305.213 279.267 306.697C281.416 307.62 287.275 311.354 287.275 311.354ZM196.398 292.718C192.135 299.979 173.273 265.808 178.943 262.361C184.612 258.914 200.661 285.456 196.398 292.718ZM273.021 266.701C264.887 268.979 256.381 229.761 264.63 227.436C272.879 225.11 281.154 264.422 273.021 266.701ZM118.662 222.856C118.662 222.856 135.965 260.416 130.448 263.421C124.931 266.426 116.254 233.023 116.254 233.023L118.662 222.856ZM189.627 206.33C190.328 206.723 189.697 211.989 188.971 212.199C188.789 212.251 184.069 210.422 181.101 211.838C176.963 213.814 173.778 219.108 169.315 218.098C164.754 217.067 162.748 207.612 162.057 205.542C161.799 204.769 164.424 202.501 164.802 201.822C164.967 201.526 167.803 205.483 172.575 206.33C178.72 207.42 187.319 205.033 189.627 206.33ZM250.284 203.619C250.626 203.682 253.429 207.256 253.32 209.585C253.209 211.945 250.182 213.059 249.806 212.896C249.806 212.896 237.598 215.85 236.866 215.648C236.543 215.559 235.453 214.017 235.516 212.089C235.591 209.789 236.905 206.997 237.589 206.262C238.904 204.851 249.573 203.488 250.284 203.619Z" fill="white"/>
<path fill-rule="evenodd" clip-rule="evenodd" d="M229.868 297.277C228.906 297.169 220.485 295.707 217.986 294.865C217.479 293.852 213.617 278.893 213.617 278.893C211.486 271.327 209.39 263.751 207.294 256.174C204.431 245.825 198.513 223.546 198.463 223.37C198.546 223.41 207.599 226.762 216.459 226.862C225.134 226.961 237.381 222.808 237.427 222.773C237.46 222.885 259.43 283.144 259.323 283.173C257.264 283.742 251.005 285.751 243.721 289.287C238.037 292.045 230.944 296.419 229.868 297.277Z" fill="white"/>
<path fill-rule="evenodd" clip-rule="evenodd" d="M420.69 530.556C414.057 531.988 407.235 531.588 400.515 532.147C400.732 531.585 400.914 531.01 401.056 530.425C408.001 529.586 415.283 529.187 421.904 526.895C422.06 527.64 422.177 528.394 422.224 529.155C422.23 529.257 422.216 530.396 422.379 530.186C422.177 530.447 420.991 530.5 420.69 530.556M387.179 513.361C375.062 509.383 362.209 505.954 352.895 496.686C361.512 493.564 367.714 497.544 375.12 489.552C375.402 489.612 375.675 489.697 375.941 489.801C383.895 503.319 400.841 505.894 413.251 513.727C418.282 516.653 427.652 524.531 415.664 524.708C410.932 525.425 406.173 525.955 401.401 526.321C401.033 518.71 393.487 515.375 387.179 513.361M395.618 532.857C393.218 536.127 388.884 537.42 384.963 537.1C382.079 536.708 379.535 535.695 376.535 535.913C353.798 535.05 331.44 530.344 309.267 525.54C289.407 521.817 304.584 507.167 302.927 495.316C305.73 497.024 308.908 498.271 312.178 499.187C316.393 510.908 327.911 507.848 336.07 502.233C344.051 502.867 345.433 500.177 351.959 497.063C358.975 509.623 374.681 512.423 387.102 517.194C394.65 519.227 400.831 525.055 395.618 532.857M395.205 543.332C388.824 545.238 382.072 544.908 375.488 544.371C353.86 542.498 332.375 538.815 311.393 533.243C306.416 531.92 296.762 530.385 296.304 524.145C300.734 529.95 308.641 530.634 315.285 532.131C337.091 536.401 359.428 541.917 381.73 540.853C386.44 542.193 391.573 541.135 395.558 538.528C395.432 540.129 395.317 541.73 395.205 543.332M327.108 501.674C322.304 503.682 317.825 503.187 313.919 499.638C318.38 500.727 322.644 501.175 327.108 501.674M299.041 483.59C296.887 478.222 294.69 462.121 293.614 456.507C291.488 445.83 286.598 436.034 280.869 426.534C269.127 407.069 253.857 388.85 251.561 366.851C251.604 365.562 251.652 364.274 251.677 362.984C251.728 360.303 251.973 357.397 251.466 354.764C251.449 354.676 251.333 354.696 251.307 354.764C250.301 357.4 249.993 360.531 249.605 363.329C249.246 365.918 248.951 368.497 248.93 371.113C248.911 373.599 249.072 376.129 249.644 378.556C249.667 378.653 249.691 378.751 249.714 378.848C249.377 379.815 249.008 380.772 248.603 381.714C247.644 383.942 246.576 386.131 245.503 388.306C243.324 392.723 241.131 397.133 238.926 401.536C236.678 406.023 234.441 410.516 232.145 414.979C231.43 416.368 230.758 417.781 230.105 419.203C224.425 427.805 218.248 436.077 211.574 443.935C205.776 450.197 200.613 457.689 192.754 461.485C184.953 465.449 176.44 467.935 168.441 471.406C136.973 476.91 108.268 476.94 100.355 433.678C101.15 432.732 101.874 431.72 102.591 430.836C106.488 426.026 110.225 421.088 113.968 416.16C121.032 406.863 128.161 397.498 136.777 389.558C154.125 374.852 173.253 361.731 186.001 342.447C187.205 340.86 188.19 339.135 188.85 337.277C197.393 340.68 207.018 341.488 216.143 341.846C228.405 342.327 240.672 342.833 252.939 343.161C256.377 348.074 267.034 348.507 272.097 349.331C273.135 349.444 274.003 348.532 274.311 347.648C275.164 345.202 276.049 342.77 276.959 340.349C287.772 342.377 298.635 344.117 309.472 346.027C310.202 346.635 310.492 347.468 310.772 348.514C311.201 350.122 311.615 351.734 312.051 353.34C312.878 356.389 313.808 359.417 314.664 362.46C315.141 364.156 315.559 365.935 316.119 367.652C325.51 407.473 338.75 451.633 348.263 489.064C348.575 490.449 348.849 492.255 348.613 493.756C346.938 495.057 345.174 496.115 343.28 496.999C329.915 496.064 305.76 497.984 299.041 483.59M205.671 464.688C201.792 465.186 197.845 465.834 193.866 466.556C197.346 464.998 200.616 463.047 203.262 460.233C222.186 441.13 237.543 418.253 247.458 393.243C248.811 389.881 250.181 386.481 251.346 383.029C251.557 383.349 251.793 383.652 252.058 383.935C256.648 399.052 267.083 412.841 275.806 427.108C262.157 452.25 232.131 460.656 205.671 464.688M98.2323 435.73C98.3173 435.667 98.4039 435.607 98.4869 435.541C98.4949 435.659 98.5062 435.774 98.5144 435.892C98.4204 435.838 98.3259 435.784 98.2323 435.73M165.533 204.473C166.726 208.044 167.942 211.611 169.828 214.879C172.915 212.877 175.479 210.121 178.687 208.326C182.001 206.473 185.364 206.973 188.586 208.784C189.431 209.259 188.672 210.556 187.827 210.081C186.199 209.167 184.408 208.431 182.502 208.603C181.013 208.736 179.671 209.424 178.446 210.242C175.5 212.209 173.01 214.744 169.954 216.571C169.599 216.784 169.135 216.645 168.925 216.302C166.743 212.748 165.396 208.807 164.083 204.873C163.775 203.952 165.229 203.56 165.533 204.473M195.519 290.562C196.322 291.096 195.568 292.396 194.76 291.86C185.669 285.822 185.133 273.82 179.757 265.196C179.243 264.372 180.546 263.618 181.056 264.438C186.237 272.749 186.79 284.765 195.519 290.562M226.905 227.897C228.826 227.393 233.066 226.89 235.27 225.443C240.569 243.587 247.781 261.12 255.283 278.455C255.8 279.637 256.261 281.202 256.991 282.441C253.312 283.458 249.952 284.635 247.259 285.822C243.903 287.29 240.62 289.014 237.508 291.002C234.777 292.597 232.168 294.375 229.704 296.34C228.949 296.183 228.196 296.026 227.441 295.865C224.889 295.315 222.303 294.726 219.813 293.887C219.176 292.327 218.968 290.494 218.427 288.957C217.486 285.584 216.546 282.209 215.606 278.836C210.563 260.935 205.718 242.976 200.603 225.095C208.68 228.833 218.259 229.354 226.905 227.897M236.879 212.694C237.571 209.776 238.983 206.176 242.553 206.283C245.288 206.365 247.906 207.968 250.384 209.172C250.268 208.289 249.645 207.536 249.087 206.783C248.51 206.004 249.817 205.255 250.386 206.025C251.409 207.406 252.27 208.741 251.762 210.498C251.615 211.007 251.099 211.138 250.657 210.946C248.244 209.902 245.809 208.28 243.18 207.849C239.988 207.327 238.929 210.565 238.329 213.094C238.106 214.036 236.655 213.634 236.879 212.694M283.562 283.601C286.852 284.297 288.419 287.247 290.071 289.881C294.181 296.429 298.123 303.082 301.907 309.823C302.933 311.648 303.946 313.481 304.946 315.321C305.217 315.775 305.456 316.265 305.701 316.749C299.605 316.205 293.585 315.309 287.845 313.07C289.048 310.348 287.004 309.883 284.713 308.3C282.258 306.765 279.662 305.356 276.844 304.612C275.231 304.186 271.523 304.093 271.087 306.232C270.883 305.653 270.454 305.145 269.807 304.9C265.226 303.395 260.359 302.839 255.667 301.722C247.736 300.053 239.793 298.449 231.859 296.791C233.996 295.431 236.175 294.138 238.394 292.925C245.357 289.431 252.756 286.686 260.356 285.023C267.969 283.353 275.786 282.769 283.562 283.601M266.061 230.002C268.227 241.282 270.018 252.645 272.994 263.752C273.245 264.689 271.793 265.084 271.543 264.151C268.567 253.044 266.777 241.682 264.61 230.401C264.429 229.455 265.879 229.053 266.061 230.002M321.833 283.736C328.548 289.891 328.107 300.205 330.993 308.308C332.215 312.524 333.606 316.696 335.317 320.742C335.354 320.833 335.391 320.923 335.429 321.013C327.36 318.108 318.761 317.708 310.205 317.102C310.14 316.814 310.045 316.548 309.922 316.33C308.548 313.691 307.056 311.105 305.616 308.498C301.79 301.687 297.78 294.981 293.61 288.373C293.349 287.963 293.088 287.539 292.823 287.116C301.637 284.237 314.079 278.833 321.833 283.736M353.516 323.076C354.316 326.855 353.802 330.829 353.586 334.675C349.928 329.82 345.291 325.676 339.867 322.916C339.506 320.487 337.974 318.371 337.267 316.013C335.96 312.685 334.902 309.284 333.949 305.851C342.793 307.692 351.402 314.107 353.516 323.076M271.212 307.206C271.217 307.121 271.22 307.038 271.217 306.953C271.222 306.951 271.227 306.948 271.23 306.946C271.46 306.72 271.716 306.548 271.997 306.425C271.731 306.678 271.47 306.938 271.212 307.206M272.531 339.5C271.879 341.163 271.24 342.83 270.611 344.501C267.493 343.967 260.858 342.71 258.143 341.278C259.111 341.31 260.069 340.807 260.314 339.653C260.422 339.142 260.592 338.664 260.726 338.165C262.363 332.834 263.76 327.396 266.072 322.285C268.334 316.889 271.024 311.646 273.08 306.169C276.566 305.949 282.073 310.271 284.563 312.034C280.122 320.981 276.177 330.158 272.546 339.46C272.478 339.46 272.408 339.46 272.341 339.463C272.403 339.475 272.469 339.488 272.531 339.5M355.414 345.332C355.66 346.662 355.938 347.981 356.126 349.323C356.602 354.569 357.252 360.096 355.226 365.129C353.969 368.211 351.394 365.732 349.686 364.525C346.908 362.587 344.35 360.363 341.8 358.14C333.967 350.781 324.811 344.523 313.823 343.489C301.96 341.841 289.106 339.783 277.285 339.483C280.515 330.921 284.018 322.475 287.406 313.967C293.692 317.487 300.788 318.775 308.036 319.596C308.206 319.681 308.387 319.756 308.582 319.816C308.926 319.886 309.214 319.854 309.445 319.749C319.109 320.77 328.966 321.171 337.467 325.12C340.757 326.647 343.844 328.705 346.637 331.54C349.694 334.465 352.156 337.995 353.809 341.891C354.326 343.093 354.599 344.343 355.414 345.332M369.007 458.535C370.529 466.428 376.848 484.013 367.352 488.39C363.111 490.738 357.772 489.383 353.57 491.533C353.463 490.186 353.209 488.851 352.906 487.614C340.662 447.653 329.344 395.34 315.084 355.409C314.636 353.788 314.18 352.168 313.694 350.557C313.288 349.211 312.968 347.775 312.372 346.539C316.339 347.266 320.284 348.122 323.888 349.989C331.496 353.079 342.151 366.498 350.105 370.527C350.421 373.492 351.293 376.444 351.74 379.371C357.384 405.781 363.275 432.141 369.007 458.535M425.663 524.635C425.528 523.993 425.173 523.577 424.725 523.351C424.793 509.884 396.446 505.507 387.856 496.931C383.927 494.157 381.068 489.575 376.504 487.858C376.586 487.743 376.672 487.631 376.751 487.514C381.591 479.546 373.948 460.183 372.593 451.867C366.38 425.873 360.354 399.816 353.323 374.028C353.18 373.534 352.914 372.558 352.58 371.479C353.338 371.661 354.062 371.722 354.742 371.634C364.604 369.45 362.39 349.529 360.073 342.31C359.825 341.458 359.246 340.92 358.566 340.667C358.654 340.226 358.574 339.758 358.26 339.31C358.092 339.069 357.834 338.897 357.553 338.809C357.255 331.958 358.967 324.594 355.357 318.334C351.299 311.488 341.62 305.824 333.831 305.426C332.716 301.389 331.738 297.313 330.659 293.269C329.476 289.034 327.79 284.485 324.247 281.645C319.664 277.574 309.879 278.816 301.762 281.693C302.206 279.572 301.195 277.654 300.576 275.666C298.557 269.716 296.478 263.787 294.357 257.875C286.741 237.943 280.487 217.282 270.961 198.172C267.017 191.694 259.431 188.774 252.149 188.173C248.734 187.83 245.1 187.698 241.652 188.101C241.542 187.89 241.429 187.683 241.314 187.475C238.488 182.584 232.753 173.48 226.153 175.042C225.456 170.392 225.446 165.627 226.02 160.975C226.06 160.644 225.518 160.502 225.383 160.802C221.01 170.598 221.822 182.652 227.158 191.927C227.549 192.57 228.081 192.903 228.633 192.999C229.483 202.737 231.607 212.347 234.227 221.779C233.833 221.795 233.455 221.877 233.139 222.017C224.779 225.075 215.586 225.573 206.885 223.788C204.435 223.272 202.062 222.578 199.678 221.872C199.226 220.31 198.775 218.752 198.321 217.192C197.183 212.264 196.892 207.529 194.003 203.56C193.832 203.267 193.657 202.977 193.489 202.686C191.169 198.485 188.812 194.306 186.438 190.136C185.861 189.453 182.004 181.863 179.003 177.273C179.379 177.263 179.768 177.168 180.146 176.978C182.262 175.924 182.24 172.866 182.626 170.816C183.81 164.443 185.179 158.06 185.555 151.577C185.575 151.247 185.069 151.107 184.92 151.407C182.034 157.121 180.033 163.236 177.897 169.258C177.854 169.378 177.809 169.501 177.762 169.626C175.781 167.132 172.303 166.539 169.273 167.21C164.211 168.529 161.658 172.638 160.186 177.311C145.629 184.25 128.307 177.163 119.472 195.52C117.259 200.855 116.302 206.587 116.33 212.572C116.644 213.932 116.882 215.312 117.097 216.679C117.619 219.987 117.963 223.322 118.55 226.619C119.192 230.223 120.216 233.767 121.345 237.245C123.835 244.92 127.14 252.289 130.359 259.678C130.741 260.557 129.445 261.321 129.06 260.436C127.287 256.367 125.489 252.308 123.808 248.2C121.375 242.252 119.08 236.114 117.667 229.814C111.335 263.334 109.366 297.583 110.729 331.653C110.232 355.273 95.723 375.765 91.5654 398.752C89.4916 407.812 88.1902 417.099 88.3509 426.406C88.0643 430.831 89.7955 437.15 94.741 436.979C95.6076 437.329 96.4717 437.645 97.3454 437.946C97.5911 438.038 97.8263 438.118 98.0435 438.184C98.2887 438.259 98.5144 438.244 98.7113 438.17C102.51 475.698 132.651 482.913 167.277 476.208C168.711 476.233 170.121 475.903 171.628 475.48C172.36 475.262 173.087 475.034 173.814 474.794C174.361 474.663 174.91 474.531 175.459 474.393C199.144 469.578 223.969 468.784 246.354 458.921C259.301 453.264 271.485 444.433 278.822 432.203C283.1 439.708 286.669 447.4 288.462 455.535C289.743 461.402 291.94 477.578 293.589 483.365C294.359 486.244 295.688 488.668 297.423 490.709C297.419 490.718 297.415 490.727 297.41 490.736C298.898 491.569 300.22 492.67 301.278 493.993C300.151 503.541 290.407 512.723 295.39 522.693C293.039 528.097 298.809 532.493 303.558 533.608C310.837 535.933 318.35 537.681 325.805 539.34C340.566 542.088 386.762 552.246 397.82 544.339C397.662 542.651 399.74 537.168 397.287 537.087C398.375 536.015 399.276 534.762 399.959 533.401C406.727 535.601 414.248 534.813 421.139 534.002C426.712 534.122 426.507 528.7 425.663 524.635" fill="black"/>
<path fill-rule="evenodd" clip-rule="evenodd" d="M200.405 65.7731C238.332 63.9067 255.447 90.6289 256.554 102.564C257.323 110.85 252.431 120.399 252.431 127.803C252.431 131.582 257.055 139.695 254.902 145.202C250.111 157.462 239.967 171.067 227.04 171.067C214.113 171.067 197.289 174.645 183.006 154.179C181.665 152.259 164.714 141.345 163.067 130.974C158.965 105.142 173.342 67.1049 200.405 65.7731Z" fill="#D08B5B"/>
<path fill-rule="evenodd" clip-rule="evenodd" d="M198.617 49.143C199.974 47.5905 202.263 46.9695 204.297 47.0897C207.253 47.265 209.823 49.0904 212.763 49.2256C215.846 49.3684 218.821 48.2991 221.911 48.7949C223.805 49.1004 225.682 49.9793 226.896 51.4617C231.1 50.2573 235.664 51.8523 238.341 55.3354C241.644 54.8221 245.238 57.0108 246.249 60.1956C250.445 60.3309 254.406 63.7037 254.874 67.9305C256.551 68.3737 258.007 69.5308 258.9 71.0605C259.939 72.8333 260.111 74.8666 259.924 76.8648C261.898 77.8739 262.901 80.0423 263.164 82.336C264.968 83.6832 265.751 86.1045 265.384 88.3907C266.765 89.1694 267.478 90.9823 267.471 92.5999C267.463 94.1098 267.063 95.4472 267.626 96.9043C268.127 98.2021 268.308 99.2836 268.032 100.643L268.004 100.775C267.955 100.997 267.914 101.21 267.877 101.419C268.251 101.747 268.567 102.158 268.804 102.637C269.669 104.384 269.54 106.378 268.88 108.15C269.169 109.279 269.133 110.472 268.705 111.557C269.505 112.71 269.926 114.124 269.802 115.591C269.664 117.234 268.914 118.705 267.777 119.793C268.08 122.037 267.168 124.462 265.519 126.042C265.753 127.385 265.552 128.793 264.817 130.067C264.294 130.974 263.589 131.651 262.776 132.122C262.803 132.871 262.701 133.638 262.452 134.406C262.106 135.471 261.52 136.453 260.749 137.244C261.209 140.188 259.447 143.455 256.347 144.281C256.086 144.351 255.838 144.382 255.6 144.387C255.292 147.219 254.619 150.012 253.578 152.664C250.93 159.417 246.116 165.321 239.838 169.004C236.732 170.825 233.244 172.072 229.683 172.593C227.121 172.968 224.656 172.876 222.084 172.62C218.856 172.297 215.613 171.814 212.475 170.983L211.97 170.848C210.669 170.5 209.298 170.097 208.171 169.395C206.91 168.609 206.255 167.397 205.964 165.97C205.802 165.175 206.305 164.321 207.174 164.304L207.23 164.304C207.42 164.308 207.609 164.301 207.8 164.289L207.944 164.279H207.951C207.961 164.277 207.966 164.277 207.976 164.277C208.061 164.264 208.144 164.239 208.226 164.227C209.182 164.066 210.018 164.225 210.916 164.524L211.029 164.562C212.54 165.083 214.039 165.566 215.6 165.925C217.214 166.293 218.848 166.586 220.487 166.816L220.65 166.836L220.7 166.843L220.725 166.846V166.846C220.73 166.846 220.735 166.846 220.74 166.848L221.223 166.909V166.909C221.604 166.954 221.984 166.994 222.364 167.034C223.065 167.104 223.765 167.159 224.466 167.199C236.56 167.88 246.716 158.352 249.782 146.929C250.893 142.795 250.965 138.671 250.638 134.544C250.532 134.244 250.47 133.911 250.472 133.545C250.472 133.355 250.483 133.167 250.495 132.977C250.087 128.986 249.379 124.992 248.936 120.985C248.418 116.305 248.13 111.598 248.235 106.888C248.288 104.562 248.536 102.258 248.861 99.9544L248.979 99.1268V99.1268C247.508 98.8396 246.142 98.142 245.053 97.1321C242.692 98.4968 239.635 98.6178 237.304 97.1767C234.692 98.8161 231.042 98.9648 228.411 97.362C226.821 98.4978 224.818 98.9879 222.851 98.5567C221.967 98.3629 221.087 97.9434 220.334 97.3628C219.796 97.4577 219.251 97.4945 218.71 97.4662L218.598 97.5288V97.5288C217.349 98.1873 215.966 98.6208 214.542 98.5724C213.488 98.5369 212.403 98.3288 211.398 97.9352C210.324 98.5837 209.149 99.0264 207.892 99.1852C206.056 99.4168 204.074 99.0104 202.547 97.9682C199.757 99.5588 196.325 99.8037 193.313 98.735C192.696 99.7804 191.843 100.682 190.843 101.377C191.022 102.018 191.079 102.702 191.018 103.36C190.917 104.443 190.645 105.414 190.202 106.286C190.669 107.259 190.81 108.454 190.548 109.654C190.175 111.366 189.18 112.854 187.892 114.014C187.779 116.744 186.282 119.305 183.846 120.728C183.723 120.799 183.6 120.858 183.478 120.911C183.37 121.058 183.242 121.188 183.095 121.297C181.546 122.729 179.095 122.615 177.153 121.806C177.116 121.808 177.078 121.811 177.04 121.812C176.347 121.829 175.874 121.559 175.594 121.161C175.311 121.176 175.031 121.206 174.748 121.258C173.717 121.451 172.586 121.822 171.652 122.303C169.23 123.549 168.109 125.753 167.774 128.402C167.409 131.292 168.239 134.236 170.474 136.192C171.56 137.144 172.949 137.74 174.36 137.99C175.919 138.268 177.585 137.584 178.737 138.924C178.967 139.189 179.124 139.56 178.999 139.918C178.609 141.035 177.966 141.463 176.96 141.618C178.414 143.343 179.905 145.011 181.557 146.561C183.343 148.241 185.19 149.869 186.802 151.722C188.505 153.682 190.044 155.761 191.113 158.14C191.723 159.507 192.214 160.917 192.742 162.316L192.836 162.56C193.425 164.047 194.209 165.481 193.302 167.034C192.942 167.645 192.126 168.236 191.376 168.138C189.261 167.868 188.553 166.438 187.902 164.575C187.412 163.168 187.037 161.72 186.509 160.326C186.41 160.067 186.302 159.812 186.19 159.558C184.97 159.898 183.63 159.628 182.542 158.932C181.379 159.448 180.091 159.705 178.848 159.683C177.182 159.654 175.66 159.191 174.352 158.356C174.248 158.328 174.144 158.302 174.04 158.272C172.05 159.035 169.719 158.898 167.917 157.662C166.75 156.862 165.953 155.793 165.499 154.603C163.991 154.575 162.5 154.04 161.42 152.97C160.428 151.987 159.848 150.719 159.676 149.402C158.378 149.145 157.162 148.517 156.208 147.46C155.411 146.576 154.927 145.452 154.763 144.284C153.183 143.832 151.757 142.8 150.979 141.36C150.254 140.02 150.15 138.566 150.504 137.243L150.412 137.111V137.111C148.784 136.258 147.542 134.862 147.414 132.869C147.378 132.301 147.439 131.733 147.593 131.196C147.538 130.595 147.573 129.995 147.731 129.414C145.541 127.283 144.748 123.86 145.936 121.03C143.797 118.727 143.231 115.083 144.8 112.349C143.724 111.047 143.171 109.387 143.264 107.614C143.379 105.401 144.392 103.467 145.606 101.677C144.705 100.68 144.225 99.2906 144.26 97.9484C144.31 96.0028 145.343 94.3277 146.637 92.9404C145.508 89.515 146.77 85.799 149.54 83.6306C148.979 82.7066 148.771 81.5623 148.954 80.4029C149.274 78.3772 150.793 76.9975 152.432 75.9057C152.09 74.7892 152.18 73.5845 152.725 72.4302C153.453 70.8902 154.827 69.9137 156.261 69.0873C156.631 65.6719 160.445 62.7547 163.643 64.5176C162.849 61.976 165.134 59.2316 167.762 58.9411C169.048 55.0399 173.484 52.581 177.473 53.55C179.512 50.7606 183.308 49.6866 186.531 50.8833C190.075 48.1664 194.471 47.7633 198.617 49.143ZM173.376 125.743C175.866 125.608 177.732 127.641 179.044 129.501C180.275 131.247 177.117 133.09 176.196 131.167C175.866 130.481 175.49 129.754 174.987 129.153C174.903 129.272 174.828 129.394 174.754 129.52L174.68 129.647C174.625 129.739 174.567 129.835 174.52 129.932C174.525 129.95 174.449 130.18 174.447 130.19C174.242 130.814 173.794 131.214 173.184 131.43C172.395 131.705 171.649 131.112 171.397 130.415C170.994 129.304 171.93 128.335 172.903 127.894C171.947 127.739 171.006 128.064 170.316 128.8C170.221 128.903 170.06 128.82 170.056 128.693C169.975 126.947 171.8 125.828 173.376 125.743Z" fill="black"/>
<path fill-rule="evenodd" clip-rule="evenodd" d="M234.273 151.782C232.426 152.316 230.443 152.364 228.56 151.812C226.852 151.312 225.098 150.21 223.841 148.753C222.725 147.458 222.002 145.885 222.03 144.205C222.033 144.014 222.102 143.854 222.208 143.729C222.321 143.596 222.48 143.504 222.65 143.464C222.825 143.423 223.01 143.437 223.168 143.509C223.311 143.573 223.433 143.683 223.509 143.844C223.702 144.097 223.895 144.347 224.088 144.59C225.641 146.505 227.145 147.936 229.481 148.449C230.748 148.728 232.014 148.604 233.175 148.179C234.418 147.724 235.542 146.924 236.422 145.901C236.82 145.438 237.29 145.249 237.749 145.246C238.27 145.243 238.784 145.484 239.172 145.87C239.553 146.25 239.808 146.765 239.831 147.305C239.852 147.778 239.697 148.273 239.286 148.714C237.93 150.168 236.174 151.232 234.273 151.782ZM234.216 127.796C236.11 128.945 238.995 131.625 236.958 134.475C234.56 136.987 231.108 134.106 229.407 132.804C227.829 131.794 226.057 134.391 227.52 135.57C239.814 144.658 244.802 128.096 235.174 126.444C234.114 126.262 233.72 127.44 234.216 127.796ZM216.503 122.738C215.894 122.35 215.178 122.216 214.385 122.577C213.765 122.858 212.677 123.797 211.921 125.031C211.403 125.875 211.036 126.865 211.112 127.897C211.13 128.136 211.041 128.313 210.901 128.444C210.791 128.547 210.631 128.623 210.444 128.646C210.285 128.666 210.107 128.648 209.962 128.603C209.687 128.517 209.541 128.339 209.486 128.193C208.956 126.788 209.185 125.22 209.778 123.805C210.58 121.896 212.035 120.296 212.989 119.781C214.621 118.898 216.546 118.858 218.18 119.757C219.571 120.522 220.441 121.758 221.306 123.017C221.49 123.285 221.673 123.551 221.861 123.812C222.239 124.335 222.277 124.854 222.131 125.299C221.968 125.792 221.555 126.208 221.038 126.426C220.56 126.627 220.005 126.655 219.514 126.448C219.099 126.274 218.719 125.933 218.478 125.356C218.072 124.383 217.397 123.309 216.503 122.738V122.738ZM247.412 124.903C246.995 125.12 246.669 125.185 246.207 125.047C245.951 124.97 245.699 124.823 245.501 124.626C245.305 124.43 245.163 124.186 245.108 123.916C244.973 123.25 244.608 122.626 244.087 122.219C243.642 121.871 243.081 121.687 242.458 121.791C241.786 121.903 241.145 122.333 240.704 122.841C240.557 123.011 240.441 123.203 240.325 123.395C240.108 123.753 239.897 124.086 239.597 124.349C239.483 124.449 239.312 124.519 239.146 124.519C239.079 124.519 239.011 124.508 238.945 124.488C238.276 123.817 238.148 123.308 238.169 122.804C238.192 122.275 238.401 121.739 238.738 121.239C239.53 120.067 241.033 119.106 242.048 118.888C243.437 118.59 244.817 118.948 245.923 119.723C247.062 120.52 247.905 121.758 248.168 123.153C248.231 123.489 248.204 123.852 248.076 124.166C247.951 124.473 247.733 124.736 247.412 124.903ZM219.567 110.239C218.733 111.05 217.746 111.176 216.748 111.288C216.193 111.35 215.75 111.401 215.314 111.499C214.117 111.769 212.933 112.176 211.853 112.761C210.724 113.373 209.493 114.112 208.608 115.057C208.398 115.283 208.199 115.519 208 115.755C207.819 115.971 207.645 116.179 207.461 116.379C207.249 116.609 207.049 116.851 206.849 117.091C206.726 117.294 206.702 117.344 206.677 117.396C206.639 117.474 206.596 117.561 206.546 117.655C206.478 117.784 206.398 117.924 206.315 118.052C206.176 118.284 206.102 118.349 206.037 118.377C205.93 118.425 205.829 118.448 205.731 118.436C205.639 118.424 205.552 118.379 205.466 118.307C205.038 117.946 204.912 117.353 204.925 116.724C204.944 115.769 205.297 114.712 205.622 114.063C206.378 112.553 207.426 110.983 208.687 109.856C210.125 108.57 211.699 107.596 213.506 106.925C214.629 106.508 215.93 106.125 217.154 106.174C218.035 106.208 218.875 106.47 219.57 107.123C219.996 107.524 220.201 108.094 220.201 108.663C220.201 109.244 219.988 109.829 219.567 110.239ZM249.108 117.667C249.055 117.754 248.982 117.814 248.9 117.85C248.815 117.887 248.719 117.898 248.627 117.883C248.536 117.867 248.449 117.826 248.38 117.763C248.314 117.702 248.264 117.622 248.242 117.524C247.688 115.096 246.613 113.29 244.319 112.125C243.191 111.552 241.893 111.188 240.664 110.898C240.307 110.813 239.93 110.759 239.55 110.703C238.36 110.53 237.161 110.331 236.384 109.37C235.917 108.791 235.72 108.051 235.831 107.374C235.936 106.736 236.309 106.152 236.987 105.801C238.675 104.93 240.773 105.785 242.478 106.514C242.605 106.568 242.729 106.621 242.85 106.672C244.517 107.375 246.038 108.302 247.288 109.629C248.28 110.681 249.199 112.237 249.569 113.837C249.877 115.169 249.804 116.528 249.108 117.667Z" fill="black"/>
</svg>
