<svg width="123" height="49" viewBox="0 0 123 49" fill="none" xmlns="http://www.w3.org/2000/svg">
<path d="M8.8814 10.8596C6.26728 10.8387 4.23349 12.0985 2.78179 14.4451C1.79539 16.0449 1.62983 17.8956 1.57581 19.3606C1.58609 21.2913 1.84839 23.2106 2.35481 25.0608C3.15108 27.9009 4.17391 30.6596 5.41159 33.3052C5.89084 34.3522 6.42587 35.3687 6.94869 36.3909C7.00446 36.4993 7.15608 36.6304 7.2467 36.6171C7.33732 36.6038 7.44189 36.427 7.46628 36.3073C7.60745 35.6005 8.79252 27.1661 9.80157 23.7801C11.3544 23.7421 17.0183 22.3456 17.3773 21.2758C17.7816 20.0693 18.9092 14.8973 18.9458 14.1373C19.0224 11.6596 10.5963 10.8786 8.8814 10.8596Z" fill="#F7FAFB"/>
<path d="M7.83913 44.676C9.36564 44.676 10.6031 43.3268 10.6031 41.6624C10.6031 39.9981 9.36564 38.6489 7.83913 38.6489C6.31261 38.6489 5.07513 39.9981 5.07513 41.6624C5.07513 43.3268 6.31261 44.676 7.83913 44.676Z" fill="#F7FAFB"/>
<path d="M32.8581 20.1933C32.3114 19.8191 31.6788 19.6215 31.0334 19.6232C30.5963 19.6076 30.1619 19.7032 29.7647 19.9026C29.4494 20.0692 29.1693 20.3054 28.9421 20.5961C28.7492 20.8418 28.5874 21.1147 28.4611 21.4074H28.3496V19.7524H25.8784V33.3038H28.3862V28.0368H28.4611C28.5885 28.3324 28.7553 28.6058 28.956 28.8481C29.1892 29.1294 29.4727 29.3557 29.7891 29.5131C30.1793 29.6991 30.6025 29.7886 31.0282 29.7753C31.6862 29.7866 32.333 29.5885 32.8894 29.2053C33.4706 28.7851 33.9285 28.1915 34.2087 27.4952C34.5553 26.6134 34.7196 25.6591 34.6897 24.7002C34.6897 23.5716 34.5224 22.6317 34.1878 21.8805C33.9036 21.1897 33.4417 20.6036 32.8581 20.1933V20.1933ZM31.9135 26.2051C31.7907 26.6061 31.5673 26.9615 31.2687 27.2311C30.9738 27.4822 30.6075 27.6126 30.2335 27.5997C29.8623 27.6119 29.4986 27.4844 29.2035 27.2387C28.9047 26.972 28.6807 26.6191 28.557 26.2203C28.3984 25.728 28.3222 25.2086 28.3321 24.6869C28.3227 24.1696 28.3988 23.6547 28.557 23.1669C28.6797 22.7733 28.9028 22.426 29.2 22.1655C29.498 21.9238 29.8623 21.7992 30.2335 21.8121C30.6105 21.7981 30.9803 21.9278 31.2791 22.1788C31.5752 22.4447 31.7973 22.7955 31.9205 23.1916C32.0729 23.6742 32.1467 24.1823 32.1383 24.6926C32.1446 25.2072 32.0685 25.719 31.9135 26.2051V26.2051Z" fill="#F7FAFB"/>
<path d="M43.2483 20.0777C42.7463 19.7714 42.1782 19.6172 41.6031 19.6311C40.9993 19.6068 40.4026 19.7802 39.89 20.129C39.436 20.4601 39.09 20.9398 38.9019 21.4989H38.7956V16.4751H36.3557V29.6161H38.8722V23.9158C38.8656 23.5388 38.9433 23.1658 39.0988 22.829C39.2353 22.5379 39.4483 22.2978 39.7105 22.1392C39.9877 21.9768 40.2986 21.895 40.6132 21.9017C40.8337 21.8878 41.0543 21.926 41.2601 22.0135C41.4658 22.1011 41.6517 22.236 41.8053 22.409C42.0894 22.7454 42.2305 23.2185 42.2253 23.8265V29.6142H44.7279V23.3439C44.7477 22.6579 44.6156 21.9768 44.3427 21.3583C44.0998 20.8246 43.7195 20.3795 43.2483 20.0777V20.0777Z" fill="#F7FAFB"/>
<path d="M53.7466 20.8777C53.3623 20.4633 52.9003 20.1444 52.3925 19.9429C51.8579 19.7319 51.2932 19.6264 50.7247 19.6312C49.9133 19.6102 49.1122 19.8324 48.4086 20.2735C47.7549 20.7021 47.2276 21.3258 46.8889 22.0709C46.5318 22.9121 46.3469 23.8279 46.3469 24.7548C46.3469 25.6817 46.5318 26.5975 46.8889 27.4387C47.2323 28.1785 47.7698 28.7903 48.4329 29.1962C49.1689 29.6276 49.9957 29.8412 50.831 29.8157C51.5054 29.8276 52.1756 29.6986 52.8055 29.4357C53.3399 29.2097 53.8177 28.849 54.1997 28.383C54.5625 27.9307 54.8111 27.3833 54.9212 26.7945L52.6016 26.6311C52.5223 26.8696 52.3934 27.0849 52.2252 27.2601C52.0549 27.4325 51.852 27.5622 51.6309 27.6401C51.384 27.7279 51.1255 27.7709 50.8658 27.7674C50.4856 27.7787 50.1096 27.679 49.7766 27.4786C49.4714 27.2868 49.2248 27.0013 49.0673 26.6577C48.8937 26.264 48.8083 25.8309 48.8181 25.3942V25.3942H54.9735V24.6342C54.9872 23.8867 54.8774 23.1427 54.6493 22.4377C54.4571 21.8517 54.1489 21.3191 53.7466 20.8777V20.8777ZM48.8233 23.6936C48.8346 23.3526 48.9194 23.0194 49.0708 22.7208C49.2342 22.4065 49.4704 22.1444 49.7557 21.9607C50.0564 21.7772 50.3944 21.6786 50.739 21.674C51.0836 21.6693 51.4237 21.7588 51.7285 21.9341C51.9999 22.1011 52.2247 22.3454 52.3785 22.641C52.5393 22.961 52.6204 23.3212 52.6138 23.686L48.8233 23.6936Z" fill="#F7FAFB"/>
<path d="M63.4659 20.0817C62.9662 19.7723 62.3988 19.6167 61.8243 19.6314C61.22 19.6116 60.6238 19.7874 60.1111 20.1368C59.6488 20.4598 59.2952 20.938 59.1038 21.4992H58.9993V19.7606H56.61V29.6162H59.116V23.916C59.1103 23.5398 59.1861 23.1674 59.3374 22.8292C59.4699 22.5394 59.6786 22.2993 59.9369 22.1395C60.2103 21.977 60.5178 21.8952 60.8291 21.902C61.0484 21.8892 61.2675 21.9281 61.4717 22.016C61.6759 22.1038 61.8603 22.2386 62.0125 22.4112C62.2983 22.7519 62.4394 23.2238 62.436 23.8267V29.6143H64.942V23.3441C64.9589 22.6605 64.8256 21.9823 64.5534 21.3662C64.314 20.8312 63.9359 20.3846 63.4659 20.0817V20.0817Z" fill="#F7FAFB"/>
<path d="M73.3665 20.2694C72.6363 19.85 71.8234 19.6309 70.9981 19.6309C70.1727 19.6309 69.3598 19.85 68.6296 20.2694C67.9692 20.6892 67.4346 21.309 67.0908 22.0535C66.7338 22.8883 66.5488 23.7982 66.5488 24.7193C66.5488 25.6404 66.7338 26.5503 67.0908 27.3851C67.4346 28.1297 67.9692 28.7494 68.6296 29.1693C69.3598 29.5887 70.1727 29.8078 70.9981 29.8078C71.8234 29.8078 72.6363 29.5887 73.3665 29.1693C74.0269 28.7494 74.5615 28.1297 74.9053 27.3851C75.2623 26.5503 75.4473 25.6404 75.4473 24.7193C75.4473 23.7982 75.2623 22.8883 74.9053 22.0535C74.5615 21.309 74.0269 20.6892 73.3665 20.2694V20.2694ZM72.6816 26.2508C72.5623 26.66 72.3437 27.0263 72.0489 27.311C71.7565 27.5774 71.384 27.7162 71.0033 27.7006C70.6196 27.7145 70.2443 27.5761 69.9472 27.311C69.6475 27.0288 69.425 26.6619 69.3041 26.2508C69.0183 25.2517 69.0183 24.1813 69.3041 23.1822C69.4255 22.7702 69.6478 22.4023 69.9472 22.1181C70.2441 21.8525 70.6194 21.7135 71.0033 21.7267C71.3842 21.7116 71.7568 21.8511 72.0489 22.1181C72.3434 22.4046 72.5619 22.7721 72.6816 23.1822C72.9697 24.1809 72.9697 25.252 72.6816 26.2508V26.2508Z" fill="#F7FAFB"/>
<path d="M87.3694 19.631C86.7626 19.6146 86.1646 19.7923 85.6493 20.1422C85.1834 20.4573 84.8294 20.9356 84.6455 21.4988H84.5514C84.4198 20.9457 84.1106 20.4623 83.68 20.1365C83.2083 19.8077 82.6601 19.6329 82.1002 19.6329C81.5403 19.6329 80.9922 19.8077 80.5204 20.1365C80.0801 20.4701 79.7496 20.9489 79.5776 21.5026H79.4783V19.764H77.0837V29.6197H79.5898V23.6991C79.5829 23.3698 79.6499 23.0437 79.785 22.7491C79.9035 22.4899 80.0842 22.2706 80.3078 22.1144C80.5323 21.9614 80.7925 21.8822 81.0572 21.8864C81.2419 21.8778 81.4263 21.9116 81.5983 21.9856C81.7703 22.0595 81.9262 22.172 82.0558 22.3158C82.1859 22.4715 82.2865 22.6538 82.3517 22.8521C82.4169 23.0503 82.4454 23.2607 82.4357 23.4711V29.6178H84.8651V23.5908C84.8451 23.1393 84.982 22.6963 85.2485 22.35C85.383 22.1905 85.5482 22.0655 85.7324 21.9841C85.9165 21.9026 86.1149 21.8666 86.3133 21.8788C86.6833 21.8666 87.0428 22.0141 87.3137 22.2892C87.5797 22.5628 87.7133 22.9733 87.7145 23.5205V29.6102H90.2153V22.9885C90.2153 21.9181 89.9516 21.0909 89.4241 20.507C89.1551 20.2151 88.8338 19.9867 88.4803 19.836C88.1268 19.6853 87.7487 19.6155 87.3694 19.631V19.631Z" fill="#F7FAFB"/>
<path d="M102.482 19.631C101.875 19.6146 101.277 19.7922 100.761 20.1421C100.295 20.4567 99.9411 20.9353 99.7585 21.4987H99.6644C99.5321 20.9459 99.2231 20.4628 98.793 20.1364C98.321 19.8077 97.7725 19.633 97.2124 19.633C96.6522 19.633 96.1038 19.8077 95.6317 20.1364C95.1918 20.4701 94.8619 20.949 94.6906 21.5025H94.5843V19.764H92.2002V29.6197H94.708V23.699C94.7014 23.37 94.7678 23.0441 94.9015 22.749C95.0201 22.49 95.2008 22.2707 95.4243 22.1144C95.6487 21.9613 95.909 21.8821 96.1737 21.8864C96.3581 21.8779 96.5422 21.9117 96.7139 21.9857C96.8856 22.0597 97.0412 22.1721 97.1705 22.3158C97.301 22.4712 97.4017 22.6534 97.467 22.8518C97.5322 23.0501 97.5606 23.2606 97.5505 23.471V29.6178H99.9816V23.5907C99.962 23.1396 100.098 22.6969 100.363 22.35C100.499 22.1897 100.666 22.0645 100.851 21.9833C101.037 21.9021 101.237 21.8671 101.437 21.8807C101.807 21.8684 102.166 22.0159 102.437 22.2911C102.703 22.5647 102.836 22.9751 102.836 23.5223V29.6121H105.337V22.9884C105.337 21.918 105.073 21.0909 104.546 20.5069C104.276 20.2136 103.953 19.9844 103.598 19.8336C103.243 19.6829 102.863 19.6139 102.482 19.631V19.631Z" fill="#F7FAFB"/>
<path d="M108.568 15.724C108.214 15.7175 107.871 15.8636 107.615 16.1306C107.489 16.2533 107.388 16.4036 107.319 16.5717C107.25 16.7399 107.214 16.9221 107.214 17.1063C107.214 17.2906 107.25 17.4728 107.319 17.6409C107.388 17.8091 107.489 17.9594 107.615 18.082C107.876 18.3443 108.218 18.4899 108.573 18.4899C108.929 18.4899 109.271 18.3443 109.532 18.082C109.657 17.9587 109.757 17.8082 109.826 17.6401C109.894 17.4721 109.929 17.2902 109.929 17.1063C109.929 16.9224 109.894 16.7406 109.826 16.5725C109.757 16.4044 109.657 16.2539 109.532 16.1306C109.273 15.8613 108.926 15.7151 108.568 15.724V15.724Z" fill="#F7FAFB"/>
<path d="M109.816 19.7598H107.308V29.6155H109.816V19.7598Z" fill="#F7FAFB"/>
<path d="M120.084 25.3858V24.6258C120.098 23.8783 119.988 23.1343 119.76 22.4293C119.568 21.8427 119.26 21.3094 118.857 20.8674C118.473 20.4531 118.011 20.1342 117.503 19.9326C116.969 19.7216 116.404 19.6161 115.835 19.621C115.024 19.6 114.223 19.8221 113.519 20.2632C112.864 20.6886 112.334 21.3097 111.993 22.0531C111.636 22.8943 111.451 23.81 111.451 24.7369C111.451 25.6638 111.636 26.5796 111.993 27.4208C112.336 28.1606 112.874 28.7724 113.537 29.1784C114.273 29.6097 115.099 29.8233 115.935 29.7978C116.609 29.8097 117.279 29.6807 117.909 29.4178C118.444 29.1918 118.921 28.8311 119.303 28.3651C119.666 27.9128 119.915 27.3654 120.025 26.7767L117.712 26.6304C117.633 26.8688 117.504 27.0841 117.336 27.2593C117.166 27.4317 116.963 27.5614 116.742 27.6393C116.495 27.7271 116.236 27.7701 115.977 27.7666C115.596 27.7779 115.22 27.6782 114.887 27.4778C114.582 27.286 114.335 27.0005 114.178 26.657C114.004 26.2632 113.919 25.8302 113.929 25.3934V25.3934L120.084 25.3858ZM114.866 21.9657C115.167 21.7822 115.505 21.6836 115.85 21.6789C116.194 21.6743 116.534 21.7637 116.839 21.9391C117.112 22.1087 117.337 22.3564 117.489 22.6554C117.65 22.9754 117.731 23.3357 117.725 23.7005H113.934C113.945 23.3595 114.03 23.0262 114.182 22.7276C114.344 22.4098 114.58 22.1444 114.866 21.9581V21.9657Z" fill="#F7FAFB"/>
</svg>
