<svg width="267" height="122" viewBox="0 0 267 122" fill="none" xmlns="http://www.w3.org/2000/svg">
<path d="M37.1689 24.1718C32.5157 24.1378 28.8956 26.187 26.3116 30.0041C24.5558 32.6066 24.2611 35.617 24.1649 38C24.1832 41.1407 24.6501 44.2628 25.5516 47.2724C26.9689 51.8923 28.7895 56.3798 30.9926 60.6833C31.8457 62.3863 32.798 64.0399 33.7287 65.7028C33.8279 65.8789 34.0978 66.0922 34.2591 66.0706C34.4204 66.0489 34.6065 65.7615 34.65 65.5668C34.9012 64.417 37.0107 50.697 38.8068 45.1892C41.5707 45.1274 51.6525 42.8556 52.2915 41.1155C53.0112 39.1529 55.0183 30.7397 55.0834 29.5034C55.2199 25.473 40.2213 24.2027 37.1689 24.1718Z" fill="#F7FAFB"/>
<path d="M35.3137 79.1795C38.0309 79.1795 40.2336 76.9848 40.2336 74.2775C40.2336 71.5702 38.0309 69.3755 35.3137 69.3755C32.5965 69.3755 30.3938 71.5702 30.3938 74.2775C30.3938 76.9848 32.5965 79.1795 35.3137 79.1795Z" fill="#F7FAFB"/>
<path d="M79.8473 39.3543C78.8744 38.7457 77.7482 38.4242 76.5994 38.427C75.8215 38.4015 75.0482 38.5571 74.3411 38.8814C73.78 39.1524 73.2814 39.5366 72.8769 40.0095C72.5335 40.4092 72.2455 40.8531 72.0208 41.3293H71.8222V38.6372H67.4235V60.6807H71.8874V52.113H72.0208C72.2475 52.5938 72.5443 53.0386 72.9018 53.4328C73.3168 53.8903 73.8214 54.2585 74.3846 54.5145C75.0792 54.817 75.8324 54.9627 76.5901 54.9411C77.7614 54.9593 78.9127 54.6371 79.9032 54.0138C80.9376 53.3303 81.7528 52.3647 82.2514 51.2321C82.8685 49.7977 83.1608 48.2454 83.1076 46.6856C83.1076 44.8497 82.8098 43.3208 82.2142 42.0989C81.7084 40.9751 80.8862 40.0217 79.8473 39.3543V39.3543ZM78.166 49.1335C77.9474 49.7857 77.5498 50.3639 77.0182 50.8025C76.4933 51.2109 75.8413 51.4231 75.1756 51.4021C74.5149 51.4219 73.8676 51.2145 73.3422 50.8149C72.8103 50.3811 72.4116 49.807 72.1914 49.1582C71.9091 48.3574 71.7735 47.5126 71.7912 46.664C71.7743 45.8225 71.9099 44.9849 72.1914 44.1913C72.4099 43.5511 72.807 42.9861 73.336 42.5625C73.8664 42.1693 74.5148 41.9666 75.1756 41.9876C75.8467 41.9648 76.5049 42.1757 77.0368 42.5841C77.5639 43.0166 77.9592 43.5872 78.1784 44.2315C78.4498 45.0166 78.581 45.843 78.5662 46.6732C78.5773 47.5103 78.4419 48.3428 78.166 49.1335V49.1335Z" fill="#F7FAFB"/>
<path d="M98.3419 39.1668C97.4483 38.6686 96.4372 38.4178 95.4135 38.4405C94.3387 38.4009 93.2766 38.683 92.3642 39.2502C91.556 39.7889 90.9401 40.5691 90.6053 41.4787H90.4161V33.3066H86.0731V54.6826H90.5525V45.4102C90.5407 44.797 90.6791 44.1901 90.9558 43.6423C91.1988 43.1688 91.5779 42.7782 92.0446 42.5203C92.5381 42.2561 93.0915 42.1231 93.6515 42.134C94.044 42.1114 94.4367 42.1734 94.8028 42.3158C95.169 42.4583 95.5001 42.6777 95.7734 42.9592C96.279 43.5063 96.5303 44.2759 96.521 45.2649V54.6795H100.976V44.4799C101.011 43.364 100.776 42.2561 100.29 41.25C99.8576 40.3818 99.1806 39.6579 98.3419 39.1668V39.1668Z" fill="#F7FAFB"/>
<path d="M117.029 40.4673C116.345 39.7933 115.523 39.2745 114.619 38.9466C113.667 38.6034 112.662 38.4318 111.65 38.4397C110.206 38.4056 108.78 38.7669 107.527 39.4844C106.364 40.1816 105.425 41.1962 104.822 42.4083C104.187 43.7766 103.857 45.2663 103.857 46.774C103.857 48.2818 104.187 49.7715 104.822 51.1398C105.433 52.3433 106.39 53.3385 107.571 53.9988C108.881 54.7004 110.352 55.0478 111.839 55.0064C113.04 55.0257 114.233 54.8159 115.354 54.3882C116.305 54.0207 117.156 53.4339 117.835 52.6759C118.481 51.9402 118.924 51.0497 119.12 50.092L114.991 49.8262C114.85 50.2141 114.62 50.5643 114.321 50.8493C114.018 51.1297 113.657 51.3407 113.263 51.4674C112.823 51.6103 112.363 51.6802 111.901 51.6745C111.224 51.6929 110.555 51.5307 109.962 51.2047C109.419 50.8927 108.98 50.4283 108.7 49.8695C108.391 49.229 108.239 48.5245 108.256 47.8141V47.8141H119.213V46.5778C119.237 45.3619 119.042 44.1516 118.636 43.0048C118.294 42.0517 117.745 41.1854 117.029 40.4673V40.4673ZM108.266 45.0478C108.286 44.4932 108.436 43.951 108.706 43.4653C108.997 42.9541 109.417 42.5278 109.925 42.229C110.46 41.9305 111.062 41.7701 111.675 41.7626C112.289 41.755 112.894 41.9005 113.437 42.1858C113.92 42.4574 114.32 42.8548 114.594 43.3355C114.88 43.8561 115.024 44.4421 115.013 45.0355L108.266 45.0478Z" fill="#F7FAFB"/>
<path d="M134.329 39.1725C133.44 38.6692 132.43 38.416 131.407 38.44C130.331 38.4077 129.27 38.6938 128.358 39.2621C127.535 39.7875 126.905 40.5653 126.565 41.4782H126.379V38.6501H122.126V54.682H126.587V45.4097C126.576 44.7977 126.711 44.1919 126.98 43.6417C127.216 43.1703 127.588 42.7797 128.048 42.5198C128.534 42.2555 129.082 42.1224 129.636 42.1334C130.026 42.1127 130.416 42.1759 130.78 42.3189C131.143 42.4618 131.471 42.6811 131.742 42.9618C132.251 43.516 132.502 44.2836 132.496 45.2644V54.6789H136.957V44.4793C136.987 43.3672 136.75 42.2641 136.265 41.2618C135.839 40.3916 135.166 39.6651 134.329 39.1725V39.1725Z" fill="#F7FAFB"/>
<path d="M151.952 39.4781C150.653 38.7959 149.206 38.4395 147.737 38.4395C146.267 38.4395 144.82 38.7959 143.521 39.4781C142.345 40.1611 141.394 41.1692 140.782 42.3803C140.146 43.7383 139.817 45.2184 139.817 46.7167C139.817 48.215 140.146 49.6951 140.782 51.0531C141.394 52.2642 142.345 53.2724 143.521 53.9553C144.82 54.6375 146.267 54.994 147.737 54.994C149.206 54.994 150.653 54.6375 151.952 53.9553C153.128 53.2724 154.079 52.2642 154.691 51.0531C155.327 49.6951 155.656 48.215 155.656 46.7167C155.656 45.2184 155.327 43.7383 154.691 42.3803C154.079 41.1692 153.128 40.1611 151.952 39.4781V39.4781ZM150.733 49.2079C150.521 49.8735 150.132 50.4694 149.607 50.9325C149.087 51.3658 148.424 51.5915 147.746 51.5662C147.063 51.5889 146.395 51.3637 145.866 50.9325C145.333 50.4734 144.936 49.8767 144.721 49.2079C144.212 47.5826 144.212 45.8415 144.721 44.2163C144.937 43.5461 145.333 42.9476 145.866 42.4854C146.394 42.0534 147.062 41.8271 147.746 41.8487C148.424 41.8242 149.087 42.0511 149.607 42.4854C150.131 42.9514 150.52 43.5492 150.733 44.2163C151.246 45.8409 151.246 47.5833 150.733 49.2079V49.2079Z" fill="#F7FAFB"/>
<path d="M176.878 38.4395C175.797 38.4127 174.733 38.7017 173.816 39.2709C172.986 39.7835 172.356 40.5616 172.029 41.4777H171.861C171.627 40.5779 171.077 39.7917 170.31 39.2616C169.471 38.7268 168.495 38.4426 167.498 38.4426C166.502 38.4426 165.526 38.7268 164.686 39.2616C163.903 39.8043 163.314 40.5833 163.008 41.4839H162.831V38.6558H158.569V54.6878H163.03V45.0569C163.018 44.5212 163.137 43.9907 163.377 43.5115C163.588 43.09 163.91 42.7332 164.308 42.4792C164.707 42.2302 165.171 42.1014 165.642 42.1083C165.971 42.0943 166.299 42.1492 166.605 42.2695C166.911 42.3898 167.189 42.5729 167.419 42.8068C167.651 43.0601 167.83 43.3565 167.946 43.679C168.062 44.0016 168.113 44.3438 168.096 44.686V54.6847H172.42V44.8807C172.384 44.1463 172.628 43.4256 173.102 42.8624C173.342 42.603 173.636 42.3996 173.964 42.2671C174.291 42.1345 174.645 42.0761 174.998 42.0959C175.656 42.076 176.296 42.3159 176.778 42.7635C177.252 43.2086 177.49 43.8762 177.492 44.7663V54.6723H181.943V43.9009C181.943 42.1598 181.474 40.8142 180.535 39.8643C180.056 39.3895 179.484 39.018 178.855 38.7728C178.226 38.5277 177.553 38.4142 176.878 38.4395V38.4395Z" fill="#F7FAFB"/>
<path d="M203.779 38.4392C202.698 38.4125 201.632 38.7015 200.714 39.2706C199.884 39.7824 199.255 40.5609 198.93 41.4774H198.763C198.527 40.5782 197.977 39.7924 197.212 39.2613C196.371 38.7266 195.395 38.4425 194.398 38.4425C193.401 38.4425 192.425 38.7266 191.584 39.2613C190.801 39.8042 190.214 40.5832 189.909 41.4836H189.72V38.6555H185.476V54.6875H189.94V45.0566C189.929 44.5213 190.047 43.9912 190.285 43.5112C190.496 43.0898 190.817 42.7332 191.215 42.4789C191.615 42.2299 192.078 42.1011 192.549 42.108C192.877 42.0942 193.205 42.1493 193.511 42.2696C193.816 42.3899 194.093 42.5728 194.324 42.8065C194.556 43.0594 194.735 43.3558 194.851 43.6784C194.967 44.001 195.018 44.3434 195 44.6857V54.6844H199.327V44.8804C199.292 44.1467 199.535 43.4265 200.007 42.8621C200.248 42.6015 200.545 42.3977 200.876 42.2657C201.206 42.1336 201.562 42.0766 201.917 42.0987C202.576 42.0788 203.216 42.3187 203.698 42.7663C204.172 43.2114 204.408 43.879 204.408 44.7691V54.6751H208.86V43.9006C208.86 42.1595 208.391 40.8139 207.452 39.864C206.971 39.387 206.397 39.0141 205.765 38.7689C205.133 38.5237 204.456 38.4114 203.779 38.4392V38.4392Z" fill="#F7FAFB"/>
<path d="M214.611 32.0841C213.98 32.0736 213.371 32.3112 212.914 32.7455C212.69 32.945 212.51 33.1896 212.387 33.4631C212.264 33.7366 212.201 34.0329 212.201 34.3327C212.201 34.6324 212.264 34.9288 212.387 35.2023C212.51 35.4758 212.69 35.7203 212.914 35.9198C213.38 36.3464 213.989 36.5832 214.621 36.5832C215.253 36.5832 215.862 36.3464 216.327 35.9198C216.55 35.7193 216.728 35.4744 216.85 35.201C216.971 34.9276 217.034 34.6318 217.034 34.3327C217.034 34.0335 216.971 33.7377 216.85 33.4643C216.728 33.191 216.55 32.9461 216.327 32.7455C215.865 32.3075 215.248 32.0696 214.611 32.0841V32.0841Z" fill="#F7FAFB"/>
<path d="M216.832 38.6494H212.368V54.6813H216.832V38.6494Z" fill="#F7FAFB"/>
<path d="M235.11 47.801V46.5647C235.134 45.3489 234.939 44.1386 234.533 42.9918C234.191 42.0376 233.643 41.1701 232.926 40.4512C232.242 39.7771 231.42 39.2584 230.516 38.9305C229.564 38.5873 228.559 38.4157 227.547 38.4236C226.103 38.3894 224.677 38.7508 223.424 39.4683C222.258 40.1603 221.315 41.1706 220.707 42.3798C220.071 43.7481 219.742 45.2378 219.742 46.7455C219.742 48.2533 220.071 49.743 220.707 51.1113C221.318 52.3148 222.275 53.3099 223.455 53.9702C224.765 54.6719 226.237 55.0193 227.724 54.9778C228.924 54.9972 230.117 54.7873 231.239 54.3597C232.19 53.9921 233.04 53.4054 233.72 52.6474C234.366 51.9117 234.809 51.0212 235.004 50.0635L230.888 49.8255C230.747 50.2134 230.517 50.5636 230.218 50.8486C229.915 51.129 229.554 51.34 229.16 51.4667C228.721 51.6096 228.261 51.6795 227.798 51.6738C227.122 51.6922 226.452 51.53 225.859 51.204C225.316 50.892 224.877 50.4276 224.597 49.8688C224.288 49.2283 224.136 48.5238 224.153 47.8134V47.8134L235.11 47.801ZM225.822 42.2376C226.357 41.9391 226.959 41.7787 227.573 41.7712C228.186 41.7636 228.791 41.9091 229.334 42.1944C229.819 42.4702 230.219 42.8732 230.491 43.3596C230.777 43.8801 230.921 44.4662 230.91 45.0595H224.163C224.183 44.5049 224.334 43.9627 224.603 43.477C224.892 42.9601 225.312 42.5283 225.822 42.2253V42.2376Z" fill="#F7FAFB"/>
</svg>
