<svg width="123" height="44" viewBox="0 0 123 44" fill="none" xmlns="http://www.w3.org/2000/svg">
<path d="M8.8814 5.85963C6.26728 5.83873 4.23349 7.09848 2.78179 9.44507C1.79539 11.0449 1.62983 12.8956 1.57581 14.3606C1.58609 16.2913 1.84839 18.2106 2.35481 20.0608C3.15108 22.9009 4.17391 25.6596 5.41159 28.3052C5.89084 29.3522 6.42587 30.3687 6.94869 31.3909C7.00446 31.4993 7.15608 31.6304 7.2467 31.6171C7.33732 31.6038 7.44189 31.427 7.46628 31.3073C7.60745 30.6005 8.79252 22.1661 9.80157 18.7801C11.3544 18.7421 17.0183 17.3456 17.3773 16.2758C17.7816 15.0693 18.9092 9.89729 18.9458 9.13726C19.0224 6.65956 10.5963 5.87863 8.8814 5.85963Z" fill="#F7FAFB"/>
<path d="M7.83913 39.676C9.36564 39.676 10.6031 38.3268 10.6031 36.6624C10.6031 34.9981 9.36564 33.6489 7.83913 33.6489C6.31261 33.6489 5.07513 34.9981 5.07513 36.6624C5.07513 38.3268 6.31261 39.676 7.83913 39.676Z" fill="#F7FAFB"/>
<path d="M32.8581 15.1933C32.3114 14.8191 31.6788 14.6215 31.0334 14.6232C30.5963 14.6076 30.1619 14.7032 29.7647 14.9026C29.4494 15.0692 29.1693 15.3054 28.9421 15.5961C28.7492 15.8418 28.5874 16.1147 28.4611 16.4074H28.3496V14.7524H25.8784V28.3038H28.3862V23.0368H28.4611C28.5885 23.3324 28.7553 23.6058 28.956 23.8481C29.1892 24.1294 29.4727 24.3557 29.7891 24.5131C30.1793 24.6991 30.6025 24.7886 31.0282 24.7753C31.6862 24.7866 32.333 24.5885 32.8894 24.2053C33.4706 23.7851 33.9285 23.1915 34.2087 22.4952C34.5553 21.6134 34.7196 20.6591 34.6897 19.7002C34.6897 18.5716 34.5224 17.6317 34.1878 16.8805C33.9036 16.1897 33.4417 15.6036 32.8581 15.1933V15.1933ZM31.9135 21.2051C31.7907 21.6061 31.5673 21.9615 31.2687 22.2311C30.9738 22.4822 30.6075 22.6126 30.2335 22.5997C29.8623 22.6119 29.4986 22.4844 29.2035 22.2387C28.9047 21.972 28.6807 21.6191 28.557 21.2203C28.3984 20.728 28.3222 20.2086 28.3321 19.6869C28.3227 19.1696 28.3988 18.6547 28.557 18.1669C28.6797 17.7733 28.9028 17.426 29.2 17.1655C29.498 16.9238 29.8623 16.7992 30.2335 16.8121C30.6105 16.7981 30.9803 16.9278 31.2791 17.1788C31.5752 17.4447 31.7973 17.7955 31.9205 18.1916C32.0729 18.6742 32.1467 19.1823 32.1383 19.6926C32.1446 20.2072 32.0685 20.719 31.9135 21.2051V21.2051Z" fill="#F7FAFB"/>
<path d="M43.2483 15.0777C42.7463 14.7714 42.1782 14.6172 41.6031 14.6311C40.9993 14.6068 40.4026 14.7802 39.89 15.129C39.436 15.4601 39.09 15.9398 38.9019 16.4989H38.7956V11.4751H36.3557V24.6161H38.8722V18.9158C38.8656 18.5388 38.9433 18.1658 39.0988 17.829C39.2353 17.5379 39.4483 17.2978 39.7105 17.1392C39.9877 16.9768 40.2986 16.895 40.6132 16.9017C40.8337 16.8878 41.0543 16.926 41.2601 17.0135C41.4658 17.1011 41.6517 17.236 41.8053 17.409C42.0894 17.7454 42.2305 18.2185 42.2253 18.8265V24.6142H44.7279V18.3439C44.7477 17.6579 44.6156 16.9768 44.3427 16.3583C44.0998 15.8246 43.7195 15.3795 43.2483 15.0777V15.0777Z" fill="#F7FAFB"/>
<path d="M53.7466 15.8777C53.3623 15.4633 52.9003 15.1444 52.3925 14.9429C51.8579 14.7319 51.2932 14.6264 50.7247 14.6312C49.9133 14.6102 49.1122 14.8324 48.4086 15.2735C47.7549 15.7021 47.2276 16.3258 46.8889 17.0709C46.5318 17.9121 46.3469 18.8279 46.3469 19.7548C46.3469 20.6817 46.5318 21.5975 46.8889 22.4387C47.2323 23.1785 47.7698 23.7903 48.4329 24.1962C49.1689 24.6276 49.9957 24.8412 50.831 24.8157C51.5054 24.8276 52.1756 24.6986 52.8055 24.4357C53.3399 24.2097 53.8177 23.849 54.1997 23.383C54.5625 22.9307 54.8111 22.3833 54.9212 21.7945L52.6016 21.6311C52.5223 21.8696 52.3934 22.0849 52.2252 22.2601C52.0549 22.4325 51.852 22.5622 51.6309 22.6401C51.384 22.7279 51.1255 22.7709 50.8658 22.7674C50.4856 22.7787 50.1096 22.679 49.7766 22.4786C49.4714 22.2868 49.2248 22.0013 49.0673 21.6577C48.8937 21.264 48.8083 20.8309 48.8181 20.3942V20.3942H54.9735V19.6342C54.9872 18.8867 54.8774 18.1427 54.6493 17.4377C54.4571 16.8517 54.1489 16.3191 53.7466 15.8777V15.8777ZM48.8233 18.6936C48.8346 18.3526 48.9194 18.0194 49.0708 17.7208C49.2342 17.4065 49.4704 17.1444 49.7557 16.9607C50.0564 16.7772 50.3944 16.6786 50.739 16.674C51.0836 16.6693 51.4237 16.7588 51.7285 16.9341C51.9999 17.1011 52.2247 17.3454 52.3785 17.641C52.5393 17.961 52.6204 18.3212 52.6138 18.686L48.8233 18.6936Z" fill="#F7FAFB"/>
<path d="M63.4659 15.0817C62.9662 14.7723 62.3988 14.6167 61.8243 14.6314C61.22 14.6116 60.6238 14.7874 60.1111 15.1368C59.6488 15.4598 59.2952 15.938 59.1038 16.4992H58.9993V14.7606H56.61V24.6162H59.116V18.916C59.1103 18.5398 59.1861 18.1674 59.3374 17.8292C59.4699 17.5394 59.6786 17.2993 59.9369 17.1395C60.2103 16.977 60.5178 16.8952 60.8291 16.902C61.0484 16.8892 61.2675 16.9281 61.4717 17.016C61.6759 17.1038 61.8603 17.2386 62.0125 17.4112C62.2983 17.7519 62.4394 18.2238 62.436 18.8267V24.6143H64.942V18.3441C64.9589 17.6605 64.8256 16.9823 64.5534 16.3662C64.314 15.8312 63.9359 15.3846 63.4659 15.0817V15.0817Z" fill="#F7FAFB"/>
<path d="M73.3665 15.2694C72.6363 14.85 71.8234 14.6309 70.9981 14.6309C70.1727 14.6309 69.3598 14.85 68.6296 15.2694C67.9692 15.6892 67.4346 16.309 67.0908 17.0535C66.7338 17.8883 66.5488 18.7982 66.5488 19.7193C66.5488 20.6404 66.7338 21.5503 67.0908 22.3851C67.4346 23.1297 67.9692 23.7494 68.6296 24.1693C69.3598 24.5887 70.1727 24.8078 70.9981 24.8078C71.8234 24.8078 72.6363 24.5887 73.3665 24.1693C74.0269 23.7494 74.5615 23.1297 74.9053 22.3851C75.2623 21.5503 75.4473 20.6404 75.4473 19.7193C75.4473 18.7982 75.2623 17.8883 74.9053 17.0535C74.5615 16.309 74.0269 15.6892 73.3665 15.2694V15.2694ZM72.6816 21.2508C72.5623 21.66 72.3437 22.0263 72.0489 22.311C71.7565 22.5774 71.384 22.7162 71.0033 22.7006C70.6196 22.7145 70.2443 22.5761 69.9472 22.311C69.6475 22.0288 69.425 21.6619 69.3041 21.2508C69.0183 20.2517 69.0183 19.1813 69.3041 18.1822C69.4255 17.7702 69.6478 17.4023 69.9472 17.1181C70.2441 16.8525 70.6194 16.7135 71.0033 16.7267C71.3842 16.7116 71.7568 16.8511 72.0489 17.1181C72.3434 17.4046 72.5619 17.7721 72.6816 18.1822C72.9697 19.1809 72.9697 20.252 72.6816 21.2508V21.2508Z" fill="#F7FAFB"/>
<path d="M87.3694 14.631C86.7626 14.6146 86.1646 14.7923 85.6493 15.1422C85.1834 15.4573 84.8294 15.9356 84.6455 16.4988H84.5514C84.4198 15.9457 84.1106 15.4623 83.68 15.1365C83.2083 14.8077 82.6601 14.6329 82.1002 14.6329C81.5403 14.6329 80.9922 14.8077 80.5204 15.1365C80.0801 15.4701 79.7496 15.9489 79.5776 16.5026H79.4783V14.764H77.0837V24.6197H79.5898V18.6991C79.5829 18.3698 79.6499 18.0437 79.785 17.7491C79.9035 17.4899 80.0842 17.2706 80.3078 17.1144C80.5323 16.9614 80.7925 16.8822 81.0572 16.8864C81.2419 16.8778 81.4263 16.9116 81.5983 16.9856C81.7703 17.0595 81.9262 17.172 82.0558 17.3158C82.1859 17.4715 82.2865 17.6538 82.3517 17.8521C82.4169 18.0503 82.4454 18.2607 82.4357 18.4711V24.6178H84.8651V18.5908C84.8451 18.1393 84.982 17.6963 85.2485 17.35C85.383 17.1905 85.5482 17.0655 85.7324 16.9841C85.9165 16.9026 86.1149 16.8666 86.3133 16.8788C86.6833 16.8666 87.0428 17.0141 87.3137 17.2892C87.5797 17.5628 87.7133 17.9733 87.7145 18.5205V24.6102H90.2153V17.9885C90.2153 16.9181 89.9516 16.0909 89.4241 15.507C89.1551 15.2151 88.8338 14.9867 88.4803 14.836C88.1268 14.6853 87.7487 14.6155 87.3694 14.631V14.631Z" fill="#F7FAFB"/>
<path d="M102.482 14.631C101.875 14.6146 101.277 14.7922 100.761 15.1421C100.295 15.4567 99.9411 15.9353 99.7585 16.4987H99.6644C99.5321 15.9459 99.2231 15.4628 98.793 15.1364C98.321 14.8077 97.7725 14.633 97.2124 14.633C96.6522 14.633 96.1038 14.8077 95.6317 15.1364C95.1918 15.4701 94.8619 15.949 94.6906 16.5025H94.5843V14.764H92.2002V24.6197H94.708V18.699C94.7014 18.37 94.7678 18.0441 94.9015 17.749C95.0201 17.49 95.2008 17.2707 95.4243 17.1144C95.6487 16.9613 95.909 16.8821 96.1737 16.8864C96.3581 16.8779 96.5422 16.9117 96.7139 16.9857C96.8856 17.0597 97.0412 17.1721 97.1705 17.3158C97.301 17.4712 97.4017 17.6534 97.467 17.8518C97.5322 18.0501 97.5606 18.2606 97.5505 18.471V24.6178H99.9816V18.5907C99.962 18.1396 100.098 17.6969 100.363 17.35C100.499 17.1897 100.666 17.0645 100.851 16.9833C101.037 16.9021 101.237 16.8671 101.437 16.8807C101.807 16.8684 102.166 17.0159 102.437 17.2911C102.703 17.5647 102.836 17.9751 102.836 18.5223V24.6121H105.337V17.9884C105.337 16.918 105.073 16.0909 104.546 15.5069C104.276 15.2136 103.953 14.9844 103.598 14.8336C103.243 14.6829 102.863 14.6139 102.482 14.631V14.631Z" fill="#F7FAFB"/>
<path d="M108.568 10.724C108.214 10.7175 107.871 10.8636 107.615 11.1306C107.489 11.2533 107.388 11.4036 107.319 11.5717C107.25 11.7399 107.214 11.9221 107.214 12.1063C107.214 12.2906 107.25 12.4728 107.319 12.6409C107.388 12.8091 107.489 12.9594 107.615 13.082C107.876 13.3443 108.218 13.4899 108.573 13.4899C108.929 13.4899 109.271 13.3443 109.532 13.082C109.657 12.9587 109.757 12.8082 109.826 12.6401C109.894 12.4721 109.929 12.2902 109.929 12.1063C109.929 11.9224 109.894 11.7406 109.826 11.5725C109.757 11.4044 109.657 11.2539 109.532 11.1306C109.273 10.8613 108.926 10.7151 108.568 10.724V10.724Z" fill="#F7FAFB"/>
<path d="M109.816 14.7598H107.308V24.6155H109.816V14.7598Z" fill="#F7FAFB"/>
<path d="M120.084 20.3858V19.6258C120.098 18.8783 119.988 18.1343 119.76 17.4293C119.568 16.8427 119.26 16.3094 118.857 15.8674C118.473 15.4531 118.011 15.1342 117.503 14.9326C116.969 14.7216 116.404 14.6161 115.835 14.621C115.024 14.6 114.223 14.8221 113.519 15.2632C112.864 15.6886 112.334 16.3097 111.993 17.0531C111.636 17.8943 111.451 18.81 111.451 19.7369C111.451 20.6638 111.636 21.5796 111.993 22.4208C112.336 23.1606 112.874 23.7724 113.537 24.1784C114.273 24.6097 115.099 24.8233 115.935 24.7978C116.609 24.8097 117.279 24.6807 117.909 24.4178C118.444 24.1918 118.921 23.8311 119.303 23.3651C119.666 22.9128 119.915 22.3654 120.025 21.7767L117.712 21.6304C117.633 21.8688 117.504 22.0841 117.336 22.2593C117.166 22.4317 116.963 22.5614 116.742 22.6393C116.495 22.7271 116.236 22.7701 115.977 22.7666C115.596 22.7779 115.22 22.6782 114.887 22.4778C114.582 22.286 114.335 22.0005 114.178 21.657C114.004 21.2632 113.919 20.8302 113.929 20.3934V20.3934L120.084 20.3858ZM114.866 16.9657C115.167 16.7822 115.505 16.6836 115.85 16.6789C116.194 16.6743 116.534 16.7637 116.839 16.9391C117.112 17.1087 117.337 17.3564 117.489 17.6554C117.65 17.9754 117.731 18.3357 117.725 18.7005H113.934C113.945 18.3595 114.03 18.0262 114.182 17.7276C114.344 17.4098 114.58 17.1444 114.866 16.9581V16.9657Z" fill="#F7FAFB"/>
</svg>
