<svg width="120" height="115" viewBox="0 0 120 115" fill="none" xmlns="http://www.w3.org/2000/svg">
<path d="M27.3233 45.1111C25.6566 45.0989 24.36 45.8355 23.4344 47.2077C22.8055 48.1433 22.7 49.2255 22.6655 50.0822C22.6721 51.2112 22.8393 52.3336 23.1622 53.4155C23.6699 55.0764 24.322 56.6896 25.1111 58.2366C25.4166 58.8488 25.7578 59.4433 26.0911 60.0411C26.1266 60.1044 26.2233 60.1811 26.2811 60.1733C26.3389 60.1655 26.4055 60.0622 26.4211 59.9922C26.5111 59.5788 27.2666 54.6466 27.91 52.6666C28.9 52.6444 32.5111 51.8277 32.74 51.2022C32.9978 50.4966 33.7166 47.4722 33.74 47.0277C33.7889 45.5789 28.4166 45.1222 27.3233 45.1111Z" fill="#F7FAFB"/>
<path d="M26.6588 64.8856C27.6321 64.8856 28.421 64.0966 28.421 63.1234C28.421 62.1501 27.6321 61.3611 26.6588 61.3611C25.6856 61.3611 24.8966 62.1501 24.8966 63.1234C24.8966 64.0966 25.6856 64.8856 26.6588 64.8856Z" fill="#F7FAFB"/>
<path d="M42.61 50.5688C42.2615 50.35 41.8582 50.2344 41.4467 50.2355C41.168 50.2263 40.8911 50.2822 40.6378 50.3988C40.4368 50.4963 40.2582 50.6343 40.1134 50.8044C39.9904 50.9481 39.8872 51.1076 39.8067 51.2788H39.7356V50.311H38.16V58.2355H39.7589V55.1555H39.8067C39.8879 55.3283 39.9942 55.4882 40.1223 55.6299C40.2709 55.7944 40.4517 55.9267 40.6534 56.0188C40.9022 56.1275 41.172 56.1799 41.4434 56.1721C41.8629 56.1787 42.2753 56.0629 42.63 55.8388C43.0006 55.5931 43.2925 55.2459 43.4711 54.8388C43.6922 54.3231 43.7969 53.7651 43.7778 53.2044C43.7778 52.5444 43.6711 51.9947 43.4578 51.5555C43.2767 51.1515 42.9822 50.8087 42.61 50.5688V50.5688ZM42.0078 54.0844C41.9295 54.3188 41.7871 54.5267 41.5967 54.6843C41.4087 54.8312 41.1751 54.9074 40.9367 54.8999C40.7001 54.907 40.4682 54.8325 40.28 54.6888C40.0895 54.5328 39.9467 54.3265 39.8678 54.0932C39.7667 53.8054 39.7182 53.5016 39.7245 53.1966C39.7184 52.8941 39.767 52.593 39.8678 52.3077C39.9461 52.0775 40.0883 51.8744 40.2778 51.7221C40.4678 51.5808 40.7 51.5079 40.9367 51.5155C41.1771 51.5073 41.4128 51.5831 41.6034 51.7299C41.7921 51.8854 41.9338 52.0905 42.0123 52.3221C42.1095 52.6044 42.1565 52.9014 42.1511 53.1999C42.1551 53.5008 42.1066 53.8001 42.0078 54.0844V54.0844Z" fill="#F7FAFB"/>
<path d="M49.2344 50.5013C48.9144 50.3222 48.5522 50.232 48.1855 50.2402C47.8006 50.2259 47.4201 50.3273 47.0933 50.5313C46.8038 50.7249 46.5832 51.0054 46.4633 51.3324H46.3955V48.3946H44.84V56.079H46.4444V52.7457C46.4402 52.5253 46.4897 52.3071 46.5889 52.1102C46.6759 51.94 46.8117 51.7995 46.9789 51.7068C47.1556 51.6118 47.3538 51.564 47.5544 51.5679C47.695 51.5598 47.8356 51.5821 47.9668 51.6333C48.098 51.6845 48.2165 51.7634 48.3144 51.8646C48.4955 52.0613 48.5855 52.3379 48.5822 52.6935V56.0779H50.1777V52.4113C50.1904 52.0101 50.1061 51.6118 49.9322 51.2502C49.7773 50.938 49.5348 50.6778 49.2344 50.5013V50.5013Z" fill="#F7FAFB"/>
<path d="M55.9278 50.9689C55.6827 50.7265 55.3882 50.5401 55.0644 50.4222C54.7236 50.2988 54.3635 50.2371 54.0011 50.24C53.4838 50.2277 52.973 50.3576 52.5244 50.6155C52.1077 50.8662 51.7715 51.2309 51.5555 51.6666C51.3279 52.1585 51.21 52.6941 51.21 53.2361C51.21 53.7781 51.3279 54.3136 51.5555 54.8055C51.7745 55.2382 52.1172 55.5959 52.54 55.8333C53.0092 56.0855 53.5363 56.2104 54.0689 56.1955C54.4988 56.2025 54.9262 56.127 55.3278 55.9733C55.6685 55.8412 55.9731 55.6302 56.2166 55.3577C56.4479 55.0932 56.6065 54.7731 56.6766 54.4288L55.1978 54.3333C55.1472 54.4727 55.065 54.5986 54.9578 54.7011C54.8492 54.8019 54.7199 54.8777 54.5789 54.9233C54.4214 54.9746 54.2567 54.9998 54.0911 54.9977C53.8487 55.0044 53.6089 54.9461 53.3966 54.8289C53.2021 54.7167 53.0448 54.5498 52.9444 54.3489C52.8337 54.1186 52.7793 53.8654 52.7855 53.61V53.61H56.71V53.1655C56.7187 52.7284 56.6487 52.2933 56.5033 51.8811C56.3807 51.5384 56.1842 51.227 55.9278 50.9689V50.9689ZM52.7889 52.6155C52.796 52.4161 52.8501 52.2212 52.9466 52.0466C53.0508 51.8628 53.2014 51.7096 53.3833 51.6022C53.575 51.4949 53.7905 51.4372 54.0102 51.4345C54.2299 51.4318 54.4468 51.4841 54.6411 51.5866C54.8142 51.6843 54.9574 51.8271 55.0555 52C55.158 52.1871 55.2097 52.3978 55.2055 52.6111L52.7889 52.6155Z" fill="#F7FAFB"/>
<path d="M62.1244 50.5034C61.8058 50.3225 61.444 50.2315 61.0777 50.2401C60.6924 50.2285 60.3124 50.3313 59.9855 50.5356C59.6907 50.7245 59.4653 51.0041 59.3433 51.3323H59.2766V50.3156H57.7533V56.0789H59.3511V52.7456C59.3474 52.5256 59.3957 52.3078 59.4922 52.1101C59.5766 51.9406 59.7097 51.8002 59.8744 51.7067C60.0487 51.6117 60.2448 51.5639 60.4433 51.5678C60.583 51.5604 60.7228 51.5831 60.853 51.6345C60.9831 51.6859 61.1007 51.7647 61.1977 51.8656C61.3799 52.0649 61.4699 52.3408 61.4677 52.6934V56.0778H63.0655V52.4112C63.0762 52.0114 62.9913 51.6148 62.8177 51.2545C62.6651 50.9417 62.424 50.6805 62.1244 50.5034V50.5034Z" fill="#F7FAFB"/>
<path d="M68.4367 50.6133C67.9711 50.3681 67.4529 50.24 66.9267 50.24C66.4005 50.24 65.8822 50.3681 65.4167 50.6133C64.9956 50.8589 64.6547 51.2213 64.4355 51.6567C64.2079 52.1448 64.09 52.6769 64.09 53.2156C64.09 53.7542 64.2079 54.2863 64.4355 54.7744C64.6547 55.2098 64.9956 55.5722 65.4167 55.8178C65.8822 56.063 66.4005 56.1912 66.9267 56.1912C67.4529 56.1912 67.9711 56.063 68.4367 55.8178C68.8578 55.5722 69.1986 55.2098 69.4178 54.7744C69.6454 54.2863 69.7634 53.7542 69.7634 53.2156C69.7634 52.6769 69.6454 52.1448 69.4178 51.6567C69.1986 51.2213 68.8578 50.8589 68.4367 50.6133V50.6133ZM68 54.1111C67.924 54.3504 67.7846 54.5646 67.5967 54.7311C67.4103 54.8869 67.1727 54.968 66.93 54.9589C66.6854 54.9671 66.4461 54.8861 66.2567 54.7311C66.0656 54.5661 65.9237 54.3515 65.8467 54.1111C65.6644 53.5268 65.6644 52.9009 65.8467 52.3167C65.924 52.0758 66.0658 51.8606 66.2567 51.6944C66.446 51.5391 66.6852 51.4578 66.93 51.4656C67.1729 51.4567 67.4104 51.5383 67.5967 51.6944C67.7844 51.862 67.9237 52.0769 68 52.3167C68.1837 52.9007 68.1837 53.5271 68 54.1111V54.1111Z" fill="#F7FAFB"/>
<path d="M77.3644 50.24C76.9775 50.2304 76.5963 50.3343 76.2677 50.5389C75.9707 50.7232 75.745 51.0029 75.6278 51.3322H75.5677C75.4838 51.0088 75.2867 50.7261 75.0122 50.5356C74.7114 50.3433 74.3619 50.2411 74.005 50.2411C73.648 50.2411 73.2985 50.3433 72.9977 50.5356C72.717 50.7306 72.5063 51.0107 72.3966 51.3345H72.3333V50.3178H70.8066V56.0811H72.4044V52.6189C72.4 52.4263 72.4427 52.2356 72.5289 52.0633C72.6044 51.9118 72.7196 51.7836 72.8622 51.6922C73.0053 51.6027 73.1712 51.5564 73.34 51.5589C73.4578 51.5539 73.5753 51.5736 73.685 51.6169C73.7946 51.6601 73.894 51.7259 73.9766 51.81C74.0596 51.9011 74.1237 52.0076 74.1653 52.1236C74.2068 52.2395 74.2251 52.3626 74.2189 52.4856V56.08H75.7677V52.5556C75.755 52.2916 75.8423 52.0325 76.0122 51.83C76.0979 51.7367 76.2033 51.6636 76.3207 51.616C76.4381 51.5683 76.5646 51.5473 76.6911 51.5545C76.927 51.5473 77.1562 51.6335 77.3289 51.7945C77.4985 51.9545 77.5837 52.1945 77.5844 52.5145V56.0756H79.1789V52.2033C79.1789 51.5774 79.0107 51.0937 78.6744 50.7522C78.5029 50.5815 78.2981 50.448 78.0727 50.3598C77.8473 50.2717 77.6062 50.2309 77.3644 50.24V50.24Z" fill="#F7FAFB"/>
<path d="M87 50.24C86.6128 50.2304 86.2312 50.3343 85.9023 50.5388C85.6052 50.7228 85.3798 51.0027 85.2634 51.3322H85.2034C85.119 51.0089 84.922 50.7264 84.6478 50.5355C84.3468 50.3433 83.9972 50.2411 83.64 50.2411C83.2829 50.2411 82.9332 50.3433 82.6322 50.5355C82.3518 50.7306 82.1415 51.0107 82.0322 51.3344H81.9645V50.3177H80.4445V56.0811H82.0434V52.6188C82.0392 52.4264 82.0815 52.2358 82.1667 52.0633C82.2423 51.9118 82.3575 51.7836 82.5 51.6922C82.6431 51.6027 82.809 51.5564 82.9778 51.5588C83.0954 51.5539 83.2128 51.5737 83.3222 51.6169C83.4317 51.6602 83.5309 51.726 83.6134 51.81C83.6965 51.9009 83.7608 52.0074 83.8023 52.1234C83.8439 52.2394 83.862 52.3625 83.8556 52.4855V56.0799H85.4056V52.5555C85.3931 52.2917 85.4799 52.0328 85.6489 51.83C85.7355 51.7363 85.8418 51.663 85.9602 51.6155C86.0786 51.5681 86.2061 51.5476 86.3334 51.5555C86.5693 51.5483 86.7985 51.6346 86.9712 51.7955C87.1408 51.9555 87.2256 52.1955 87.2256 52.5155V56.0766H88.8201V52.2033C88.8201 51.5774 88.6519 51.0937 88.3156 50.7522C88.1435 50.5807 87.9378 50.4466 87.7114 50.3585C87.485 50.2703 87.2428 50.23 87 50.24V50.24Z" fill="#F7FAFB"/>
<path d="M90.8799 47.9555C90.654 47.9517 90.4356 48.0371 90.2722 48.1933C90.1917 48.265 90.1274 48.3529 90.0833 48.4512C90.0393 48.5495 90.0165 48.6561 90.0165 48.7638C90.0165 48.8716 90.0393 48.9781 90.0833 49.0764C90.1274 49.1748 90.1917 49.2627 90.2722 49.3344C90.4387 49.4877 90.6569 49.5729 90.8833 49.5729C91.1097 49.5729 91.3278 49.4877 91.4944 49.3344C91.5742 49.2623 91.638 49.1743 91.6816 49.076C91.7253 48.9777 91.7479 48.8714 91.7479 48.7638C91.7479 48.6563 91.7253 48.5499 91.6816 48.4517C91.638 48.3534 91.5742 48.2654 91.4944 48.1933C91.3291 48.0358 91.1082 47.9503 90.8799 47.9555V47.9555Z" fill="#F7FAFB"/>
<path d="M91.6755 50.3156H90.0767V56.0789H91.6755V50.3156Z" fill="#F7FAFB"/>
<path d="M98.2222 53.6055V53.161C98.231 52.7239 98.161 52.2888 98.0156 51.8766C97.8931 51.5335 97.6966 51.2217 97.44 50.9632C97.195 50.7209 96.9005 50.5345 96.5767 50.4166C96.2359 50.2932 95.8758 50.2315 95.5133 50.2343C94.996 50.2221 94.4853 50.352 94.0367 50.6099C93.6189 50.8587 93.2812 51.2219 93.0633 51.6566C92.8357 52.1485 92.7178 52.684 92.7178 53.226C92.7178 53.768 92.8357 54.3036 93.0633 54.7954C93.2823 55.2281 93.625 55.5859 94.0478 55.8232C94.517 56.0755 95.0442 56.2003 95.5767 56.1854C96.0066 56.1924 96.434 56.117 96.8356 55.9632C97.1763 55.8311 97.4809 55.6202 97.7245 55.3477C97.9558 55.0832 98.1143 54.7631 98.1845 54.4188L96.71 54.3332C96.6594 54.4727 96.5773 54.5986 96.47 54.701C96.3614 54.8018 96.2321 54.8777 96.0911 54.9232C95.9337 54.9746 95.7689 54.9997 95.6033 54.9977C95.3609 55.0043 95.1212 54.946 94.9089 54.8288C94.7143 54.7166 94.5571 54.5497 94.4567 54.3488C94.346 54.1185 94.2915 53.8653 94.2978 53.6099V53.6099L98.2222 53.6055ZM94.8956 51.6055C95.0873 51.4981 95.3028 51.4405 95.5225 51.4378C95.7422 51.435 95.959 51.4873 96.1533 51.5899C96.3272 51.6891 96.4705 51.8339 96.5678 52.0088C96.6703 52.1959 96.722 52.4066 96.7178 52.6199H94.3011C94.3083 52.4205 94.3624 52.2256 94.4589 52.051C94.5623 51.8652 94.7129 51.71 94.8956 51.601V51.6055Z" fill="#F7FAFB"/>
</svg>
