<svg width="329" height="740" viewBox="0 0 329 740" fill="none" xmlns="http://www.w3.org/2000/svg">
<path fill-rule="evenodd" clip-rule="evenodd" d="M376.201 30.5091C386.137 30.4945 396.092 30.744 406.026 31.2949C408.783 31.4479 410.894 33.8069 410.741 36.5641C410.589 39.3213 408.229 41.4325 405.472 41.2796C395.74 40.7398 385.975 40.4948 376.216 40.5091C366.492 40.5233 356.822 40.8944 347.217 41.6178C344.463 41.8251 342.063 39.761 341.855 37.0074C341.648 34.2537 343.712 31.8534 346.466 31.646C356.317 30.9041 366.233 30.5237 376.201 30.5091ZM418.454 37.1343C418.711 34.3849 421.149 32.3648 423.898 32.6222C433.839 33.553 443.738 34.8109 453.556 36.4343C456.28 36.8847 458.124 39.4585 457.673 42.1829C457.223 44.9074 454.649 46.7508 451.924 46.3003C442.353 44.7177 432.688 43.489 422.966 42.5787C420.216 42.3212 418.196 39.8837 418.454 37.1343ZM322.584 39.1827C322.997 41.9132 321.117 44.4609 318.387 44.8731C312.641 45.7405 306.923 46.7361 301.235 47.8588C298.526 48.3936 295.896 46.631 295.361 43.9218C294.826 41.2127 296.589 38.5829 299.298 38.0482C305.133 36.8963 310.999 35.8749 316.894 34.9851C319.624 34.5729 322.172 36.4522 322.584 39.1827ZM505.276 54.1041C506.185 51.4967 509.036 50.1199 511.643 51.029C517.319 53.0078 522.935 55.1506 528.484 57.4662C531.033 58.5297 532.236 61.4577 531.173 64.0061C530.109 66.5546 527.181 67.7583 524.633 66.6948C519.274 64.4585 513.844 62.3867 508.351 60.4715C505.744 59.5624 504.367 56.7116 505.276 54.1041ZM248.368 56.9304C249.302 59.5292 247.952 62.3929 245.354 63.3267C236.269 66.5914 227.29 70.1995 218.429 74.1465C215.907 75.2701 212.951 74.1362 211.827 71.6137C210.704 69.0912 211.838 66.1355 214.36 65.0118C223.445 60.9647 232.653 57.2644 241.972 53.9158C244.571 52.982 247.435 54.3317 248.368 56.9304ZM548.797 72.4763C550.128 70.0569 553.168 69.1747 555.588 70.5059C564.334 75.3178 572.852 80.6392 581.101 86.5083C589.421 92.4279 597.245 98.8049 604.62 105.577C606.654 107.445 606.789 110.608 604.922 112.642C603.054 114.676 599.891 114.811 597.857 112.943C590.773 106.439 583.272 100.325 575.304 94.6565C567.378 89.0177 559.187 83.8999 550.767 79.2673C548.348 77.9362 547.466 74.8957 548.797 72.4763ZM204.922 74.874C206.155 77.3447 205.152 80.3474 202.681 81.5807C194.059 85.8843 185.559 90.5171 177.193 95.4749C168.051 100.892 158.845 106.42 149.698 112.119C147.354 113.579 144.27 112.863 142.81 110.519C141.35 108.175 142.066 105.091 144.41 103.631C153.646 97.8767 162.923 92.3068 172.095 86.8719C180.667 81.7926 189.377 77.0448 198.215 72.6334C200.686 71.4001 203.689 72.4033 204.922 74.874ZM610.479 118.122C612.483 116.222 615.648 116.306 617.548 118.31C624.482 125.625 630.987 133.304 637.117 141.282C638.799 143.472 638.388 146.611 636.198 148.293C634.008 149.976 630.869 149.564 629.187 147.375C623.251 139.649 616.969 132.235 610.29 125.19C608.391 123.186 608.475 120.021 610.479 118.122ZM124.146 122.643C125.706 124.922 125.123 128.034 122.845 129.594C117.556 133.214 112.338 136.911 107.218 140.698C104.997 142.339 101.866 141.871 100.225 139.65C98.5826 137.43 99.0514 134.299 101.272 132.657C106.501 128.79 111.819 125.022 117.196 121.342C119.475 119.782 122.587 120.365 124.146 122.643ZM59.3257 175.606C61.3615 177.472 61.4994 180.635 59.6337 182.671C52.4636 190.494 45.8755 198.689 40.0051 207.314C38.4514 209.597 35.3412 210.188 33.0584 208.634C30.7755 207.08 30.1845 203.97 31.7383 201.687C37.9086 192.622 44.8036 184.052 52.2614 175.914C54.1271 173.878 57.2899 173.741 59.3257 175.606ZM662.804 189.816C665.23 188.497 668.266 189.395 669.585 191.82C672.444 197.078 675.209 202.396 677.891 207.763C679.125 210.233 678.124 213.236 675.654 214.471C673.184 215.705 670.181 214.704 668.946 212.234C666.311 206.962 663.599 201.746 660.8 196.597C659.481 194.171 660.378 191.135 662.804 189.816ZM28.1808 216.617C30.6098 217.931 31.5141 220.965 30.2006 223.394C25.2783 232.497 21.1409 242.065 17.9238 252.16C14.712 262.238 12.5359 272.429 11.2582 282.698C10.9173 285.438 8.41947 287.383 5.67918 287.042C2.93888 286.701 0.993813 284.204 1.33475 281.463C2.68451 270.614 4.98747 259.819 8.39595 249.123C11.8125 238.403 16.2008 228.26 21.4044 218.637C22.7179 216.208 25.7518 215.304 28.1808 216.617ZM684.012 232.28C686.536 231.16 689.491 232.298 690.611 234.822C694.649 243.921 698.511 253.098 702.243 262.293C703.409 265.166 704.584 268.051 705.763 270.946C708.599 277.912 711.46 284.937 714.281 291.99C715.307 294.554 714.059 297.464 711.496 298.489C708.932 299.515 706.022 298.268 704.996 295.704C702.185 288.677 699.342 281.694 696.509 274.737C695.329 271.838 694.151 268.945 692.978 266.054C689.277 256.937 685.457 247.861 681.471 238.879C680.35 236.355 681.488 233.4 684.012 232.28ZM714.867 307.063C717.446 306.076 720.337 307.365 721.325 309.944C725.168 319.979 728.861 330.098 732.249 340.279C733.122 342.899 731.705 345.73 729.084 346.602C726.464 347.474 723.633 346.057 722.761 343.437C719.432 333.434 715.793 323.459 711.987 313.521C710.999 310.942 712.289 308.051 714.867 307.063ZM4.80832 309.244C7.56771 309.138 9.89049 311.289 9.99639 314.048C10.237 320.317 10.7541 326.604 11.5185 332.901C11.8513 335.643 9.89878 338.135 7.15748 338.467C4.41618 338.8 1.92417 336.848 1.59142 334.106C0.796091 327.554 0.255544 320.993 0.00374829 314.432C-0.102152 311.672 2.04893 309.35 4.80832 309.244ZM19.5653 391.423C22.1888 390.561 25.0143 391.989 25.8762 394.612C29.1816 404.672 32.8684 414.677 36.8105 424.595C37.8305 427.161 36.5771 430.068 34.011 431.088C31.4449 432.108 28.5377 430.855 27.5177 428.288C23.5142 418.217 19.7551 408.018 16.3759 397.733C15.5139 395.11 16.9419 392.284 19.5653 391.423ZM742.239 398.973C744.971 398.572 747.511 400.461 747.912 403.193C748.864 409.676 749.576 416.174 750.011 422.682C750.195 425.437 748.111 427.82 745.356 428.004C742.6 428.188 740.217 426.104 740.033 423.348C739.617 417.124 738.934 410.889 738.018 404.646C737.617 401.914 739.506 399.374 742.239 398.973ZM37.5853 439.712C40.1232 438.623 43.0629 439.798 44.1513 442.336C48.3899 452.22 52.8067 461.985 57.2715 471.6C61.27 480.211 65.6816 488.505 70.4593 496.521C71.8731 498.893 71.0962 501.962 68.7242 503.376C66.3521 504.789 63.2831 504.013 61.8693 501.64C56.9242 493.343 52.3509 484.747 48.2017 475.812C43.7097 466.138 39.2497 456.279 34.9607 446.277C33.8723 443.74 35.0474 440.8 37.5853 439.712ZM745.159 450.019C747.909 450.274 749.932 452.709 749.677 455.459C748.678 466.256 746.743 477.047 743.7 487.806C740.626 498.679 736.64 509.062 731.88 518.999C730.688 521.49 727.702 522.542 725.211 521.349C722.721 520.156 721.669 517.17 722.861 514.68C727.387 505.23 731.166 495.381 734.078 485.085C736.944 474.946 738.774 464.76 739.72 454.537C739.974 451.788 742.409 449.765 745.159 450.019ZM79.0686 518.975C81.2988 517.346 84.4268 517.834 86.0552 520.065C89.3921 524.635 92.848 529.117 96.4123 533.52C98.1499 535.666 97.8185 538.815 95.6722 540.552C93.526 542.29 90.3775 541.958 88.64 539.812C84.9763 535.286 81.4186 530.673 77.9789 525.961C76.3505 523.731 76.8384 520.603 79.0686 518.975ZM720.686 529.732C723.054 531.152 723.823 534.223 722.402 536.592C716.715 546.073 710.331 555.125 703.394 563.795C701.668 565.951 698.522 566.3 696.366 564.575C694.21 562.85 693.86 559.703 695.586 557.547C702.272 549.191 708.393 540.506 713.826 531.448C715.247 529.08 718.318 528.311 720.686 529.732ZM128.023 575.219C129.929 573.22 133.094 573.144 135.092 575.05C141.937 581.574 148.976 587.959 156.163 594.246C158.242 596.064 158.453 599.223 156.635 601.301C154.816 603.38 151.658 603.591 149.579 601.773C142.303 595.408 135.157 588.926 128.193 582.288C126.194 580.383 126.118 577.218 128.023 575.219ZM657.735 603.766C659.534 605.86 659.294 609.017 657.2 610.817C652.223 615.092 647.149 619.273 642.005 623.37C639.845 625.09 636.699 624.734 634.979 622.574C633.259 620.414 633.615 617.268 635.775 615.547C640.832 611.52 645.81 607.418 650.684 603.231C652.779 601.432 655.935 601.671 657.735 603.766ZM162.126 606.004C163.905 603.892 167.059 603.62 169.171 605.398C176.442 611.518 183.826 617.56 191.277 623.565C198.585 629.454 205.878 635.478 213.168 641.5L214.955 642.976C217.085 644.735 217.385 647.886 215.627 650.015C213.868 652.144 210.717 652.445 208.588 650.686L206.804 649.213C199.506 643.185 192.259 637.199 185.002 631.351C177.513 625.316 170.072 619.227 162.732 613.049C160.62 611.271 160.348 608.117 162.126 606.004ZM616.998 636.168C618.618 638.404 618.118 641.53 615.881 643.15C607.001 649.581 598.042 655.823 589.133 661.913C580.43 667.863 571.568 673.748 562.555 679.458C560.223 680.936 557.134 680.243 555.656 677.911C554.178 675.578 554.871 672.489 557.203 671.011C566.097 665.376 574.86 659.557 583.49 653.658C592.352 647.599 601.232 641.412 610.016 635.051C612.252 633.431 615.379 633.931 616.998 636.168ZM231.539 663.037C233.263 660.88 236.41 660.529 238.567 662.253C243.328 666.06 248.108 669.812 252.919 673.479C255.115 675.154 255.538 678.291 253.864 680.487C252.19 682.683 249.052 683.106 246.856 681.432C241.971 677.708 237.129 673.907 232.322 670.064C230.165 668.34 229.815 665.193 231.539 663.037ZM547.985 682.63C549.396 685.004 548.616 688.072 546.242 689.483C537.073 694.933 527.753 700.147 518.291 705.016C515.835 706.279 512.821 705.313 511.557 702.857C510.294 700.402 511.26 697.387 513.716 696.124C522.972 691.361 532.112 686.248 541.132 680.887C543.506 679.476 546.574 680.256 547.985 682.63ZM296.455 708.697C297.758 706.263 300.788 705.345 303.223 706.647C312.09 711.392 321.133 715.565 330.402 719.016C332.99 719.98 334.307 722.859 333.343 725.447C332.38 728.035 329.501 729.351 326.913 728.388C317.167 724.759 307.714 720.392 298.505 715.465C296.07 714.162 295.153 711.132 296.455 708.697ZM462.305 723.243C463.101 725.888 461.602 728.676 458.958 729.472C452.767 731.335 446.523 732.982 440.228 734.386C437.533 734.987 434.861 733.29 434.26 730.595C433.658 727.9 435.356 725.227 438.051 724.626C444.096 723.277 450.104 721.693 456.077 719.896C458.721 719.1 461.51 720.599 462.305 723.243ZM341.286 727.986C341.991 725.317 344.727 723.724 347.397 724.43C356.85 726.928 366.563 728.634 376.588 729.398C386.972 730.188 397.261 730.121 407.454 729.302C410.206 729.08 412.617 731.132 412.838 733.885C413.059 736.638 411.007 739.048 408.255 739.27C397.569 740.128 386.757 740.201 375.829 739.369C365.161 738.556 354.848 736.742 344.842 734.098C342.172 733.392 340.58 730.656 341.286 727.986Z" fill="url(#paint0_linear)"/>
<path fill-rule="evenodd" clip-rule="evenodd" d="M408.201 20.5091C418.137 20.4945 428.092 20.744 438.026 21.2949C440.783 21.4479 442.894 23.8069 442.741 26.5641C442.589 29.3213 440.229 31.4325 437.472 31.2796C427.74 30.7398 417.975 30.4948 408.216 30.5091C398.492 30.5233 388.822 30.8944 379.217 31.6178C376.463 31.8251 374.063 29.761 373.855 27.0074C373.648 24.2537 375.712 21.8534 378.466 21.646C388.317 20.9041 398.233 20.5237 408.201 20.5091ZM450.454 27.1343C450.711 24.3849 453.149 22.3648 455.898 22.6222C465.839 23.553 475.738 24.8109 485.556 26.4343C488.28 26.8847 490.124 29.4585 489.673 32.1829C489.223 34.9074 486.649 36.7508 483.924 36.3003C474.353 34.7177 464.688 33.489 454.966 32.5787C452.216 32.3212 450.196 29.8837 450.454 27.1343ZM354.584 29.1827C354.997 31.9132 353.117 34.4609 350.387 34.8731C344.641 35.7405 338.923 36.7361 333.235 37.8588C330.526 38.3936 327.896 36.631 327.361 33.9218C326.826 31.2127 328.589 28.5829 331.298 28.0482C337.133 26.8963 342.999 25.8749 348.894 24.9851C351.624 24.5729 354.172 26.4522 354.584 29.1827ZM537.276 44.1041C538.185 41.4967 541.036 40.1199 543.643 41.029C549.319 43.0078 554.935 45.1506 560.484 47.4662C563.033 48.5297 564.236 51.4577 563.173 54.0061C562.109 56.5546 559.181 57.7583 556.633 56.6948C551.274 54.4585 545.844 52.3867 540.351 50.4715C537.744 49.5624 536.367 46.7116 537.276 44.1041ZM280.368 46.9304C281.302 49.5292 279.952 52.3929 277.354 53.3267C268.269 56.5914 259.29 60.1995 250.429 64.1465C247.907 65.2701 244.951 64.1362 243.827 61.6137C242.704 59.0912 243.838 56.1355 246.36 55.0118C255.445 50.9647 264.653 47.2644 273.972 43.9158C276.571 42.982 279.435 44.3317 280.368 46.9304ZM580.797 62.4763C582.128 60.0569 585.168 59.1747 587.588 60.5059C596.334 65.3178 604.852 70.6392 613.101 76.5083C621.421 82.4279 629.245 88.8049 636.62 95.577C638.654 97.4446 638.789 100.608 636.922 102.642C635.054 104.676 631.891 104.811 629.857 102.943C622.773 96.4389 615.272 90.3252 607.304 84.6565C599.378 79.0177 591.187 73.8999 582.767 69.2673C580.348 67.9362 579.466 64.8957 580.797 62.4763ZM236.922 64.874C238.155 67.3447 237.152 70.3474 234.681 71.5807C226.059 75.8843 217.559 80.5171 209.193 85.4749C200.051 90.892 190.845 96.4197 181.698 102.119C179.354 103.579 176.27 102.863 174.81 100.519C173.35 98.175 174.066 95.0913 176.41 93.6311C185.646 87.8767 194.923 82.3068 204.095 76.8719C212.667 71.7926 221.377 67.0448 230.215 62.6334C232.686 61.4001 235.689 62.4033 236.922 64.874ZM642.479 108.122C644.483 106.222 647.648 106.306 649.548 108.31C656.482 115.625 662.987 123.304 669.117 131.282C670.799 133.472 670.388 136.611 668.198 138.293C666.008 139.976 662.869 139.564 661.187 137.375C655.251 129.649 648.969 122.235 642.29 115.19C640.391 113.186 640.475 110.021 642.479 108.122ZM156.146 112.643C157.706 114.922 157.123 118.034 154.845 119.594C149.556 123.214 144.338 126.911 139.218 130.698C136.997 132.339 133.866 131.871 132.225 129.65C130.583 127.43 131.051 124.299 133.272 122.657C138.501 118.79 143.819 115.022 149.196 111.342C151.475 109.782 154.587 110.365 156.146 112.643ZM91.3257 165.606C93.3615 167.472 93.4994 170.635 91.6337 172.671C84.4636 180.494 77.8755 188.689 72.0051 197.314C70.4514 199.597 67.3412 200.188 65.0584 198.634C62.7755 197.08 62.1845 193.97 63.7383 191.687C69.9086 182.622 76.8036 174.052 84.2614 165.914C86.1271 163.878 89.2899 163.741 91.3257 165.606ZM694.804 179.816C697.23 178.497 700.266 179.395 701.585 181.82C704.444 187.078 707.209 192.396 709.891 197.763C711.125 200.233 710.124 203.236 707.654 204.471C705.184 205.705 702.181 204.704 700.946 202.234C698.311 196.962 695.599 191.746 692.8 186.597C691.481 184.171 692.378 181.135 694.804 179.816ZM60.1808 206.617C62.6098 207.931 63.5141 210.965 62.2006 213.394C57.2783 222.497 53.1409 232.065 49.9238 242.16C46.712 252.238 44.5359 262.429 43.2582 272.698C42.9173 275.438 40.4195 277.383 37.6792 277.042C34.9389 276.701 32.9938 274.204 33.3347 271.463C34.6845 260.614 36.9875 249.819 40.3959 239.123C43.8125 228.403 48.2008 218.26 53.4044 208.637C54.7179 206.208 57.7518 205.304 60.1808 206.617ZM716.012 222.28C718.536 221.16 721.491 222.298 722.611 224.822C726.649 233.921 730.511 243.098 734.243 252.293C735.409 255.166 736.584 258.051 737.763 260.946C740.599 267.912 743.46 274.937 746.281 281.99C747.307 284.554 746.059 287.464 743.496 288.489C740.932 289.515 738.022 288.268 736.996 285.704C734.185 278.677 731.342 271.694 728.509 264.737C727.329 261.838 726.151 258.945 724.978 256.054C721.277 246.937 717.457 237.861 713.471 228.879C712.35 226.355 713.488 223.4 716.012 222.28ZM746.867 297.063C749.446 296.076 752.337 297.365 753.325 299.944C757.168 309.979 760.861 320.098 764.249 330.279C765.122 332.899 763.705 335.73 761.084 336.602C758.464 337.474 755.633 336.057 754.761 333.437C751.432 323.434 747.793 313.459 743.987 303.521C742.999 300.942 744.289 298.051 746.867 297.063ZM36.8083 299.244C39.5677 299.138 41.8905 301.289 41.9964 304.048C42.237 310.317 42.7541 316.604 43.5185 322.901C43.8513 325.643 41.8988 328.135 39.1575 328.467C36.4162 328.8 33.9242 326.848 33.5914 324.106C32.7961 317.554 32.2555 310.993 32.0037 304.432C31.8978 301.672 34.0489 299.35 36.8083 299.244ZM51.5653 381.423C54.1888 380.561 57.0143 381.989 57.8762 384.612C61.1816 394.672 64.8684 404.677 68.8105 414.595C69.8305 417.161 68.5771 420.068 66.011 421.088C63.4449 422.108 60.5377 420.855 59.5177 418.288C55.5142 408.217 51.7551 398.018 48.3759 387.733C47.5139 385.11 48.9419 382.284 51.5653 381.423ZM774.239 388.973C776.971 388.572 779.511 390.461 779.912 393.193C780.864 399.676 781.576 406.174 782.011 412.682C782.195 415.437 780.111 417.82 777.356 418.004C774.6 418.188 772.217 416.104 772.033 413.348C771.617 407.124 770.934 400.889 770.018 394.646C769.617 391.914 771.506 389.374 774.239 388.973ZM69.5853 429.712C72.1232 428.623 75.0629 429.798 76.1513 432.336C80.3899 442.22 84.8067 451.985 89.2715 461.6C93.27 470.211 97.6816 478.505 102.459 486.521C103.873 488.893 103.096 491.962 100.724 493.376C98.3521 494.789 95.2831 494.013 93.8693 491.64C88.9242 483.343 84.3509 474.747 80.2017 465.812C75.7097 456.138 71.2497 446.279 66.9607 436.277C65.8723 433.74 67.0474 430.8 69.5853 429.712ZM777.159 440.019C779.909 440.274 781.932 442.709 781.677 445.459C780.678 456.256 778.743 467.047 775.7 477.806C772.626 488.679 768.64 499.062 763.88 508.999C762.688 511.49 759.702 512.542 757.211 511.349C754.721 510.156 753.669 507.17 754.861 504.68C759.387 495.23 763.166 485.381 766.078 475.085C768.944 464.946 770.774 454.76 771.72 444.537C771.974 441.788 774.409 439.765 777.159 440.019ZM111.069 508.975C113.299 507.346 116.427 507.834 118.055 510.065C121.392 514.635 124.848 519.117 128.412 523.52C130.15 525.666 129.819 528.815 127.672 530.552C125.526 532.29 122.378 531.958 120.64 529.812C116.976 525.286 113.419 520.673 109.979 515.961C108.35 513.731 108.838 510.603 111.069 508.975ZM752.686 519.732C755.054 521.152 755.823 524.223 754.402 526.592C748.715 536.073 742.331 545.125 735.394 553.795C733.668 555.951 730.522 556.3 728.366 554.575C726.21 552.85 725.86 549.703 727.586 547.547C734.272 539.191 740.393 530.506 745.826 521.448C747.247 519.08 750.318 518.311 752.686 519.732ZM160.023 565.219C161.929 563.22 165.094 563.144 167.092 565.05C173.937 571.574 180.976 577.959 188.163 584.246C190.242 586.064 190.453 589.223 188.635 591.301C186.816 593.38 183.658 593.591 181.579 591.773C174.303 585.408 167.157 578.926 160.193 572.288C158.194 570.383 158.118 567.218 160.023 565.219ZM689.735 593.766C691.534 595.86 691.294 599.017 689.2 600.817C684.223 605.092 679.149 609.273 674.005 613.37C671.845 615.09 668.699 614.734 666.979 612.574C665.259 610.414 665.615 607.268 667.775 605.547C672.832 601.52 677.81 597.418 682.684 593.231C684.779 591.432 687.935 591.671 689.735 593.766ZM194.126 596.004C195.905 593.892 199.059 593.62 201.171 595.398C208.442 601.518 215.826 607.56 223.277 613.565C230.585 619.454 237.878 625.478 245.168 631.5L246.955 632.976C249.085 634.735 249.385 637.886 247.627 640.015C245.868 642.144 242.717 642.445 240.588 640.686L238.804 639.213C231.506 633.185 224.259 627.199 217.002 621.351C209.513 615.316 202.072 609.227 194.732 603.049C192.62 601.271 192.348 598.117 194.126 596.004ZM648.998 626.168C650.618 628.404 650.118 631.53 647.881 633.15C639.001 639.581 630.042 645.823 621.133 651.913C612.43 657.863 603.568 663.748 594.555 669.458C592.223 670.936 589.134 670.243 587.656 667.911C586.178 665.578 586.871 662.489 589.203 661.011C598.097 655.376 606.86 649.557 615.49 643.658C624.352 637.599 633.232 631.412 642.016 625.051C644.252 623.431 647.379 623.931 648.998 626.168ZM263.539 653.037C265.263 650.88 268.41 650.529 270.567 652.253C275.328 656.06 280.108 659.812 284.919 663.479C287.115 665.154 287.538 668.291 285.864 670.487C284.19 672.683 281.052 673.106 278.856 671.432C273.971 667.708 269.129 663.907 264.322 660.064C262.165 658.34 261.815 655.193 263.539 653.037ZM579.985 672.63C581.396 675.004 580.616 678.072 578.242 679.483C569.073 684.933 559.753 690.147 550.291 695.016C547.835 696.279 544.821 695.313 543.557 692.857C542.294 690.402 543.26 687.387 545.716 686.124C554.972 681.361 564.112 676.248 573.132 670.887C575.506 669.476 578.574 670.256 579.985 672.63ZM328.455 698.697C329.758 696.263 332.788 695.345 335.223 696.647C344.09 701.392 353.133 705.565 362.402 709.016C364.99 709.98 366.307 712.859 365.343 715.447C364.38 718.035 361.501 719.351 358.913 718.388C349.167 714.759 339.714 710.392 330.505 705.465C328.07 704.162 327.153 701.132 328.455 698.697ZM494.305 713.243C495.101 715.888 493.602 718.676 490.958 719.472C484.767 721.335 478.523 722.982 472.228 724.386C469.533 724.987 466.861 723.29 466.26 720.595C465.658 717.9 467.356 715.227 470.051 714.626C476.096 713.277 482.104 711.693 488.077 709.896C490.721 709.1 493.51 710.599 494.305 713.243ZM373.286 717.986C373.991 715.317 376.727 713.724 379.397 714.43C388.85 716.928 398.563 718.634 408.588 719.398C418.972 720.188 429.261 720.121 439.454 719.302C442.206 719.08 444.617 721.132 444.838 723.885C445.059 726.638 443.007 729.048 440.255 729.27C429.569 730.128 418.757 730.201 407.829 729.369C397.161 728.556 386.848 726.742 376.842 724.098C374.172 723.392 372.58 720.656 373.286 717.986Z" fill="url(#paint1_linear)"/>
<path fill-rule="evenodd" clip-rule="evenodd" d="M440.201 10.5091C450.137 10.4945 460.092 10.744 470.026 11.2949C472.783 11.4479 474.894 13.8069 474.741 16.5641C474.589 19.3213 472.229 21.4325 469.472 21.2796C459.74 20.7398 449.975 20.4948 440.216 20.5091C430.492 20.5233 420.822 20.8944 411.217 21.6178C408.463 21.8251 406.063 19.761 405.855 17.0074C405.648 14.2537 407.712 11.8534 410.466 11.646C420.317 10.9041 430.233 10.5237 440.201 10.5091ZM482.454 17.1343C482.711 14.3849 485.149 12.3648 487.898 12.6222C497.839 13.553 507.738 14.8109 517.556 16.4343C520.28 16.8847 522.124 19.4585 521.673 22.1829C521.223 24.9074 518.649 26.7508 515.924 26.3003C506.353 24.7177 496.688 23.489 486.966 22.5787C484.216 22.3212 482.196 19.8837 482.454 17.1343ZM386.584 19.1827C386.997 21.9132 385.117 24.4609 382.387 24.8731C376.641 25.7405 370.923 26.7361 365.235 27.8588C362.526 28.3936 359.896 26.631 359.361 23.9218C358.826 21.2127 360.589 18.5829 363.298 18.0482C369.133 16.8963 374.999 15.8749 380.894 14.9851C383.624 14.5729 386.172 16.4522 386.584 19.1827ZM569.276 34.1041C570.185 31.4967 573.036 30.1199 575.643 31.029C581.319 33.0078 586.935 35.1506 592.484 37.4662C595.033 38.5297 596.236 41.4577 595.173 44.0061C594.109 46.5546 591.181 47.7583 588.633 46.6948C583.274 44.4585 577.844 42.3867 572.351 40.4715C569.744 39.5624 568.367 36.7116 569.276 34.1041ZM312.368 36.9304C313.302 39.5292 311.952 42.3929 309.354 43.3267C300.269 46.5914 291.29 50.1995 282.429 54.1465C279.907 55.2701 276.951 54.1362 275.827 51.6137C274.704 49.0912 275.838 46.1355 278.36 45.0118C287.445 40.9647 296.653 37.2644 305.972 33.9158C308.571 32.982 311.435 34.3317 312.368 36.9304ZM612.797 52.4763C614.128 50.0569 617.168 49.1747 619.588 50.5059C628.334 55.3178 636.852 60.6392 645.101 66.5083C653.421 72.4279 661.245 78.8049 668.62 85.577C670.654 87.4446 670.789 90.6076 668.922 92.6417C667.054 94.6757 663.891 94.8107 661.857 92.9431C654.773 86.4389 647.272 80.3252 639.304 74.6565C631.378 69.0177 623.187 63.8999 614.767 59.2673C612.348 57.9362 611.466 54.8957 612.797 52.4763ZM268.922 54.874C270.155 57.3447 269.152 60.3474 266.681 61.5807C258.059 65.8843 249.559 70.5171 241.193 75.4749C232.051 80.892 222.845 86.4197 213.698 92.1186C211.354 93.5788 208.27 92.8625 206.81 90.5188C205.35 88.175 206.066 85.0913 208.41 83.6311C217.646 77.8767 226.923 72.3068 236.095 66.8719C244.667 61.7926 253.377 57.0448 262.215 52.6334C264.686 51.4001 267.689 52.4033 268.922 54.874ZM674.479 98.1216C676.483 96.2218 679.648 96.3063 681.548 98.3104C688.482 105.625 694.987 113.304 701.117 121.282C702.799 123.472 702.388 126.611 700.198 128.293C698.008 129.976 694.869 129.564 693.187 127.375C687.251 119.649 680.969 112.235 674.29 105.19C672.391 103.186 672.475 100.021 674.479 98.1216ZM188.146 102.643C189.706 104.922 189.123 108.034 186.845 109.594C181.556 113.214 176.338 116.911 171.218 120.698C168.997 122.339 165.866 121.871 164.225 119.65C162.583 117.43 163.051 114.299 165.272 112.657C170.501 108.79 175.819 105.022 181.196 101.342C183.475 99.7819 186.587 100.365 188.146 102.643ZM123.326 155.606C125.362 157.472 125.499 160.635 123.634 162.671C116.464 170.494 109.876 178.689 104.005 187.314C102.451 189.597 99.3412 190.188 97.0584 188.634C94.7755 187.08 94.1845 183.97 95.7383 181.687C101.909 172.622 108.804 164.052 116.261 155.914C118.127 153.878 121.29 153.741 123.326 155.606ZM726.804 169.816C729.23 168.497 732.266 169.395 733.585 171.82C736.444 177.078 739.209 182.396 741.891 187.763C743.125 190.233 742.124 193.236 739.654 194.471C737.184 195.705 734.181 194.704 732.946 192.234C730.311 186.962 727.599 181.746 724.8 176.597C723.481 174.171 724.378 171.135 726.804 169.816ZM92.1808 196.617C94.6098 197.931 95.5141 200.965 94.2006 203.394C89.2783 212.497 85.1409 222.065 81.9238 232.16C78.712 242.238 76.5359 252.429 75.2582 262.698C74.9173 265.438 72.4195 267.383 69.6792 267.042C66.9389 266.701 64.9938 264.204 65.3347 261.463C66.6845 250.614 68.9875 239.819 72.3959 229.123C75.8125 218.403 80.2008 208.26 85.4044 198.637C86.7179 196.208 89.7518 195.304 92.1808 196.617ZM748.012 212.28C750.536 211.16 753.491 212.298 754.611 214.822C758.649 223.921 762.511 233.098 766.243 242.293C767.409 245.166 768.584 248.051 769.763 250.946C772.599 257.912 775.46 264.937 778.281 271.99C779.307 274.554 778.059 277.464 775.496 278.489C772.932 279.515 770.022 278.268 768.996 275.704C766.185 268.677 763.342 261.694 760.509 254.737C759.329 251.838 758.151 248.945 756.978 246.054C753.277 236.937 749.457 227.861 745.471 218.879C744.35 216.355 745.488 213.4 748.012 212.28ZM778.867 287.063C781.446 286.076 784.337 287.365 785.325 289.944C789.168 299.979 792.861 310.098 796.249 320.279C797.122 322.899 795.705 325.73 793.084 326.602C790.464 327.474 787.633 326.057 786.761 323.437C783.432 313.434 779.793 303.459 775.987 293.521C774.999 290.942 776.289 288.051 778.867 287.063ZM68.8083 289.244C71.5677 289.138 73.8905 291.289 73.9964 294.048C74.237 300.317 74.7541 306.604 75.5185 312.901C75.8513 315.643 73.8988 318.135 71.1575 318.467C68.4162 318.8 65.9242 316.848 65.5914 314.106C64.7961 307.554 64.2555 300.993 64.0037 294.432C63.8978 291.672 66.0489 289.35 68.8083 289.244ZM83.5653 371.423C86.1888 370.561 89.0143 371.989 89.8762 374.612C93.1816 384.672 96.8684 394.677 100.81 404.595C101.83 407.161 100.577 410.068 98.011 411.088C95.4449 412.108 92.5377 410.855 91.5177 408.288C87.5142 398.217 83.7551 388.018 80.3759 377.733C79.5139 375.11 80.9419 372.284 83.5653 371.423ZM806.239 378.973C808.971 378.572 811.511 380.461 811.912 383.193C812.864 389.676 813.576 396.174 814.011 402.682C814.195 405.437 812.111 407.82 809.356 408.004C806.6 408.188 804.217 406.104 804.033 403.348C803.617 397.124 802.934 390.889 802.018 384.646C801.617 381.914 803.506 379.374 806.239 378.973ZM101.585 419.712C104.123 418.623 107.063 419.798 108.151 422.336C112.39 432.22 116.807 441.985 121.272 451.6C125.27 460.211 129.682 468.505 134.459 476.521C135.873 478.893 135.096 481.962 132.724 483.376C130.352 484.789 127.283 484.013 125.869 481.64C120.924 473.343 116.351 464.747 112.202 455.812C107.71 446.138 103.25 436.279 98.9607 426.277C97.8723 423.74 99.0474 420.8 101.585 419.712ZM809.159 430.019C811.909 430.274 813.932 432.709 813.677 435.459C812.678 446.256 810.743 457.047 807.7 467.806C804.626 478.679 800.64 489.062 795.88 498.999C794.688 501.49 791.702 502.542 789.211 501.349C786.721 500.156 785.669 497.17 786.861 494.68C791.387 485.23 795.166 475.381 798.078 465.085C800.944 454.946 802.774 444.76 803.72 434.537C803.974 431.788 806.409 429.765 809.159 430.019ZM143.069 498.975C145.299 497.346 148.427 497.834 150.055 500.065C153.392 504.635 156.848 509.117 160.412 513.52C162.15 515.666 161.819 518.815 159.672 520.552C157.526 522.29 154.378 521.958 152.64 519.812C148.976 515.286 145.419 510.673 141.979 505.961C140.35 503.731 140.838 500.603 143.069 498.975ZM784.686 509.732C787.054 511.152 787.823 514.223 786.402 516.592C780.715 526.073 774.331 535.125 767.394 543.795C765.668 545.951 762.522 546.3 760.366 544.575C758.21 542.85 757.86 539.703 759.586 537.547C766.272 529.191 772.393 520.506 777.826 511.448C779.247 509.08 782.318 508.311 784.686 509.732ZM192.023 555.219C193.929 553.22 197.094 553.144 199.092 555.05C205.937 561.574 212.976 567.959 220.163 574.246C222.242 576.064 222.453 579.223 220.635 581.301C218.816 583.38 215.658 583.591 213.579 581.773C206.303 575.408 199.157 568.926 192.193 562.288C190.194 560.383 190.118 557.218 192.023 555.219ZM721.735 583.766C723.534 585.86 723.294 589.017 721.2 590.817C716.223 595.092 711.149 599.273 706.005 603.37C703.845 605.09 700.699 604.734 698.979 602.574C697.259 600.414 697.615 597.268 699.775 595.547C704.832 591.52 709.81 587.418 714.684 583.231C716.779 581.432 719.935 581.671 721.735 583.766ZM226.126 586.004C227.905 583.892 231.059 583.62 233.171 585.398C240.442 591.518 247.826 597.56 255.277 603.565C262.585 609.454 269.878 615.478 277.168 621.5L278.955 622.976C281.085 624.735 281.385 627.886 279.627 630.015C277.868 632.144 274.717 632.445 272.588 630.686L270.804 629.213C263.506 623.185 256.259 617.199 249.002 611.351C241.513 605.316 234.072 599.227 226.732 593.049C224.62 591.271 224.348 588.117 226.126 586.004ZM680.998 616.168C682.618 618.404 682.118 621.53 679.881 623.15C671.001 629.581 662.042 635.823 653.133 641.913C644.43 647.863 635.568 653.748 626.555 659.458C624.223 660.936 621.134 660.243 619.656 657.911C618.178 655.578 618.871 652.489 621.203 651.011C630.097 645.376 638.86 639.557 647.49 633.658C656.352 627.599 665.232 621.412 674.016 615.051C676.252 613.431 679.379 613.931 680.998 616.168ZM295.539 643.037C297.263 640.88 300.41 640.529 302.567 642.253C307.328 646.06 312.108 649.812 316.919 653.479C319.115 655.154 319.538 658.291 317.864 660.487C316.19 662.683 313.052 663.106 310.856 661.432C305.971 657.708 301.129 653.907 296.322 650.064C294.165 648.34 293.815 645.193 295.539 643.037ZM611.985 662.63C613.396 665.004 612.616 668.072 610.242 669.483C601.073 674.933 591.753 680.147 582.291 685.016C579.835 686.279 576.821 685.313 575.557 682.857C574.294 680.402 575.26 677.387 577.716 676.124C586.972 671.361 596.112 666.248 605.132 660.887C607.506 659.476 610.574 660.256 611.985 662.63ZM360.455 688.697C361.758 686.263 364.788 685.345 367.223 686.647C376.09 691.392 385.133 695.565 394.402 699.016C396.99 699.98 398.307 702.859 397.343 705.447C396.38 708.035 393.501 709.351 390.913 708.388C381.167 704.759 371.714 700.392 362.505 695.465C360.07 694.162 359.153 691.132 360.455 688.697ZM526.305 703.243C527.101 705.888 525.602 708.676 522.958 709.472C516.767 711.335 510.523 712.982 504.228 714.386C501.533 714.987 498.861 713.29 498.26 710.595C497.658 707.9 499.356 705.227 502.051 704.626C508.096 703.277 514.104 701.693 520.077 699.896C522.721 699.1 525.51 700.599 526.305 703.243ZM405.286 707.986C405.991 705.317 408.727 703.724 411.397 704.43C420.85 706.928 430.563 708.634 440.588 709.398C450.972 710.188 461.261 710.121 471.454 709.302C474.206 709.08 476.617 711.132 476.838 713.885C477.059 716.638 475.007 719.048 472.255 719.27C461.569 720.128 450.757 720.201 439.829 719.369C429.161 718.556 418.848 716.742 408.842 714.098C406.172 713.392 404.58 710.656 405.286 707.986Z" fill="url(#paint2_linear)"/>
<path fill-rule="evenodd" clip-rule="evenodd" d="M472.201 0.509085C482.137 0.494534 492.092 0.743999 502.026 1.29494C504.783 1.44785 506.894 3.80695 506.741 6.56414C506.589 9.32132 504.229 11.4325 501.472 11.2796C491.74 10.7398 481.975 10.4948 472.216 10.5091C462.492 10.5233 452.822 10.8944 443.217 11.6178C440.463 11.8251 438.063 9.761 437.855 7.00737C437.648 4.25375 439.712 1.85338 442.466 1.64601C452.317 0.904146 462.233 0.523682 472.201 0.509085ZM514.454 7.1343C514.711 4.38491 517.149 2.36478 519.898 2.62222C529.839 3.55303 539.738 4.81092 549.556 6.43427C552.28 6.88473 554.124 9.4585 553.673 12.1829C553.223 14.9074 550.649 16.7508 547.924 16.3003C538.353 14.7177 528.688 13.489 518.966 12.5787C516.216 12.3212 514.196 9.8837 514.454 7.1343ZM418.584 9.18272C418.997 11.9132 417.117 14.4609 414.387 14.8731C408.641 15.7405 402.923 16.7361 397.235 17.8588C394.526 18.3936 391.896 16.631 391.361 13.9218C390.826 11.2127 392.589 8.58294 395.298 8.04815C401.133 6.89629 406.999 5.87493 412.894 4.98509C415.624 4.57289 418.172 6.45223 418.584 9.18272ZM601.276 24.1041C602.185 21.4967 605.036 20.1199 607.643 21.029C613.319 23.0078 618.935 25.1506 624.484 27.4662C627.033 28.5297 628.236 31.4577 627.173 34.0061C626.109 36.5546 623.181 37.7583 620.633 36.6948C615.274 34.4585 609.844 32.3867 604.351 30.4715C601.744 29.5624 600.367 26.7116 601.276 24.1041ZM344.368 26.9304C345.302 29.5292 343.952 32.3929 341.354 33.3267C332.269 36.5914 323.29 40.1995 314.429 44.1465C311.907 45.2701 308.951 44.1362 307.827 41.6137C306.704 39.0912 307.838 36.1355 310.36 35.0118C319.445 30.9647 328.653 27.2644 337.972 23.9158C340.571 22.982 343.435 24.3317 344.368 26.9304ZM644.797 42.4763C646.128 40.0569 649.168 39.1747 651.588 40.5059C660.334 45.3178 668.852 50.6392 677.101 56.5083C685.421 62.4279 693.245 68.8049 700.62 75.577C702.654 77.4446 702.789 80.6076 700.922 82.6417C699.054 84.6757 695.891 84.8107 693.857 82.9431C686.773 76.4389 679.272 70.3252 671.304 64.6565C663.378 59.0177 655.187 53.8999 646.767 49.2673C644.348 47.9362 643.466 44.8957 644.797 42.4763ZM300.922 44.874C302.155 47.3447 301.152 50.3474 298.681 51.5807C290.059 55.8843 281.559 60.5171 273.193 65.4749C264.051 70.892 254.845 76.4197 245.698 82.1186C243.354 83.5788 240.27 82.8625 238.81 80.5188C237.35 78.175 238.066 75.0913 240.41 73.6311C249.646 67.8767 258.923 62.3068 268.095 56.8719C276.667 51.7926 285.377 47.0448 294.215 42.6334C296.686 41.4001 299.689 42.4033 300.922 44.874ZM706.479 88.1216C708.483 86.2218 711.648 86.3063 713.548 88.3104C720.482 95.6254 726.987 103.304 733.117 111.282C734.799 113.472 734.388 116.611 732.198 118.293C730.008 119.976 726.869 119.564 725.187 117.375C719.251 109.649 712.969 102.235 706.29 95.1901C704.391 93.186 704.475 90.0213 706.479 88.1216ZM220.146 92.6435C221.706 94.9222 221.123 98.0339 218.845 99.5937C213.556 103.214 208.338 106.911 203.218 110.698C200.997 112.339 197.866 111.871 196.225 109.65C194.583 107.43 195.051 104.299 197.272 102.657C202.501 98.7904 207.819 95.0223 213.196 91.3416C215.475 89.7819 218.587 90.3647 220.146 92.6435ZM155.326 145.606C157.362 147.472 157.499 150.635 155.634 152.671C148.464 160.494 141.876 168.689 136.005 177.314C134.451 179.597 131.341 180.188 129.058 178.634C126.776 177.08 126.185 173.97 127.738 171.687C133.909 162.622 140.804 154.052 148.261 145.914C150.127 143.878 153.29 143.741 155.326 145.606ZM758.804 159.816C761.23 158.497 764.266 159.395 765.585 161.82C768.444 167.078 771.209 172.396 773.891 177.763C775.125 180.233 774.124 183.236 771.654 184.471C769.184 185.705 766.181 184.704 764.946 182.234C762.311 176.962 759.599 171.746 756.8 166.597C755.481 164.171 756.378 161.135 758.804 159.816ZM124.181 186.617C126.61 187.931 127.514 190.965 126.201 193.394C121.278 202.497 117.141 212.065 113.924 222.16C110.712 232.238 108.536 242.429 107.258 252.698C106.917 255.438 104.419 257.383 101.679 257.042C98.9389 256.701 96.9938 254.204 97.3347 251.463C98.6845 240.614 100.987 229.819 104.396 219.123C107.813 208.403 112.201 198.26 117.404 188.637C118.718 186.208 121.752 185.304 124.181 186.617ZM780.012 202.28C782.536 201.16 785.491 202.298 786.611 204.822C790.649 213.921 794.511 223.098 798.243 232.293C799.409 235.166 800.584 238.051 801.763 240.946C804.599 247.912 807.46 254.937 810.281 261.99C811.307 264.554 810.059 267.464 807.496 268.489C804.932 269.515 802.022 268.268 800.996 265.704C798.185 258.677 795.342 251.694 792.509 244.737C791.329 241.838 790.151 238.945 788.978 236.054C785.277 226.937 781.457 217.861 777.471 208.879C776.35 206.355 777.488 203.4 780.012 202.28ZM810.867 277.063C813.446 276.076 816.337 277.365 817.325 279.944C821.168 289.979 824.861 300.098 828.249 310.279C829.122 312.899 827.705 315.73 825.084 316.602C822.464 317.474 819.633 316.057 818.761 313.437C815.432 303.434 811.793 293.459 807.987 283.521C806.999 280.942 808.289 278.051 810.867 277.063ZM100.808 279.244C103.568 279.138 105.89 281.289 105.996 284.048C106.237 290.317 106.754 296.604 107.519 302.901C107.851 305.643 105.899 308.135 103.157 308.467C100.416 308.8 97.9242 306.848 97.5914 304.106C96.7961 297.554 96.2555 290.993 96.0037 284.432C95.8978 281.672 98.0489 279.35 100.808 279.244ZM115.565 361.423C118.189 360.561 121.014 361.989 121.876 364.612C125.182 374.672 128.868 384.677 132.81 394.595C133.83 397.161 132.577 400.068 130.011 401.088C127.445 402.108 124.538 400.855 123.518 398.288C119.514 388.217 115.755 378.018 112.376 367.733C111.514 365.11 112.942 362.284 115.565 361.423ZM838.239 368.973C840.971 368.572 843.511 370.461 843.912 373.193C844.864 379.676 845.576 386.174 846.011 392.682C846.195 395.437 844.111 397.82 841.356 398.004C838.6 398.188 836.217 396.104 836.033 393.348C835.617 387.124 834.934 380.889 834.018 374.646C833.617 371.914 835.506 369.374 838.239 368.973ZM133.585 409.712C136.123 408.623 139.063 409.798 140.151 412.336C144.39 422.22 148.807 431.985 153.272 441.6C157.27 450.211 161.682 458.505 166.459 466.521C167.873 468.893 167.096 471.962 164.724 473.376C162.352 474.789 159.283 474.013 157.869 471.64C152.924 463.343 148.351 454.747 144.202 445.812C139.71 436.138 135.25 426.279 130.961 416.277C129.872 413.74 131.047 410.8 133.585 409.712ZM841.159 420.019C843.909 420.274 845.932 422.709 845.677 425.459C844.678 436.256 842.743 447.047 839.7 457.806C836.626 468.679 832.64 479.062 827.88 488.999C826.688 491.49 823.702 492.542 821.211 491.349C818.721 490.156 817.669 487.17 818.861 484.68C823.387 475.23 827.166 465.381 830.078 455.085C832.944 444.946 834.774 434.76 835.72 424.537C835.974 421.788 838.409 419.765 841.159 420.019ZM175.069 488.975C177.299 487.346 180.427 487.834 182.055 490.065C185.392 494.635 188.848 499.117 192.412 503.52C194.15 505.666 193.819 508.815 191.672 510.552C189.526 512.29 186.378 511.958 184.64 509.812C180.976 505.286 177.419 500.673 173.979 495.961C172.35 493.731 172.838 490.603 175.069 488.975ZM816.686 499.732C819.054 501.152 819.823 504.223 818.402 506.592C812.715 516.073 806.331 525.125 799.394 533.795C797.668 535.951 794.522 536.3 792.366 534.575C790.21 532.85 789.86 529.703 791.586 527.547C798.272 519.191 804.393 510.506 809.826 501.448C811.247 499.08 814.318 498.311 816.686 499.732ZM224.023 545.219C225.929 543.22 229.094 543.144 231.092 545.05C237.937 551.574 244.976 557.959 252.163 564.246C254.242 566.064 254.453 569.223 252.635 571.301C250.816 573.38 247.658 573.591 245.579 571.773C238.303 565.408 231.157 558.926 224.193 552.288C222.194 550.383 222.118 547.218 224.023 545.219ZM753.735 573.766C755.534 575.86 755.294 579.017 753.2 580.817C748.223 585.092 743.149 589.273 738.005 593.37C735.845 595.09 732.699 594.734 730.979 592.574C729.259 590.414 729.615 587.268 731.775 585.547C736.832 581.52 741.81 577.418 746.684 573.231C748.779 571.432 751.935 571.671 753.735 573.766ZM258.126 576.004C259.905 573.892 263.059 573.62 265.171 575.398C272.442 581.518 279.826 587.56 287.277 593.565C294.585 599.454 301.878 605.478 309.168 611.5L310.955 612.976C313.085 614.735 313.385 617.886 311.627 620.015C309.868 622.144 306.717 622.445 304.588 620.686L302.804 619.213C295.506 613.185 288.259 607.199 281.002 601.351C273.513 595.316 266.072 589.227 258.732 583.049C256.62 581.271 256.348 578.117 258.126 576.004ZM712.998 606.168C714.618 608.404 714.118 611.53 711.881 613.15C703.001 619.581 694.042 625.823 685.133 631.913C676.43 637.863 667.568 643.748 658.555 649.458C656.223 650.936 653.134 650.243 651.656 647.911C650.178 645.578 650.871 642.489 653.203 641.011C662.097 635.376 670.86 629.557 679.49 623.658C688.352 617.599 697.232 611.412 706.016 605.051C708.252 603.431 711.379 603.931 712.998 606.168ZM327.539 633.037C329.263 630.88 332.41 630.529 334.567 632.253C339.328 636.06 344.108 639.812 348.919 643.479C351.115 645.154 351.538 648.291 349.864 650.487C348.19 652.683 345.052 653.106 342.856 651.432C337.971 647.708 333.129 643.907 328.322 640.064C326.165 638.34 325.815 635.193 327.539 633.037ZM643.985 652.63C645.396 655.004 644.616 658.072 642.242 659.483C633.073 664.933 623.753 670.147 614.291 675.016C611.835 676.279 608.821 675.313 607.557 672.857C606.294 670.402 607.26 667.387 609.716 666.124C618.972 661.361 628.112 656.248 637.132 650.887C639.506 649.476 642.574 650.256 643.985 652.63ZM392.455 678.697C393.758 676.263 396.788 675.345 399.223 676.647C408.09 681.392 417.133 685.565 426.402 689.016C428.99 689.98 430.307 692.859 429.343 695.447C428.38 698.035 425.501 699.351 422.913 698.388C413.167 694.759 403.714 690.392 394.505 685.465C392.07 684.162 391.153 681.132 392.455 678.697ZM558.305 693.243C559.101 695.888 557.602 698.676 554.958 699.472C548.767 701.335 542.523 702.982 536.228 704.386C533.533 704.987 530.861 703.29 530.26 700.595C529.658 697.9 531.356 695.227 534.051 694.626C540.096 693.277 546.104 691.693 552.077 689.896C554.721 689.1 557.51 690.599 558.305 693.243ZM437.286 697.986C437.991 695.317 440.727 693.724 443.397 694.43C452.85 696.928 462.563 698.634 472.588 699.398C482.972 700.188 493.261 700.121 503.454 699.302C506.206 699.08 508.617 701.132 508.838 703.885C509.059 706.638 507.007 709.048 504.255 709.27C493.569 710.128 482.757 710.201 471.829 709.369C461.161 708.556 450.848 706.742 440.842 704.098C438.172 703.392 436.58 700.656 437.286 697.986Z" fill="url(#paint3_linear)"/>
<defs>
<linearGradient id="paint0_linear" x1="375.173" y1="35.5085" x2="592.086" y2="742.26" gradientUnits="userSpaceOnUse">
<stop stop-color="#F22C2C"/>
<stop offset="1" stop-color="#FF5C00"/>
</linearGradient>
<linearGradient id="paint1_linear" x1="407.173" y1="25.5085" x2="624.086" y2="732.26" gradientUnits="userSpaceOnUse">
<stop stop-color="#F22C2C"/>
<stop offset="1" stop-color="#FF5C00"/>
</linearGradient>
<linearGradient id="paint2_linear" x1="439.173" y1="15.5085" x2="656.086" y2="722.26" gradientUnits="userSpaceOnUse">
<stop stop-color="#F22C2C"/>
<stop offset="1" stop-color="#FF5C00"/>
</linearGradient>
<linearGradient id="paint3_linear" x1="471.173" y1="5.50848" x2="688.086" y2="712.26" gradientUnits="userSpaceOnUse">
<stop stop-color="#F22C2C"/>
<stop offset="1" stop-color="#FF5C00"/>
</linearGradient>
</defs>
</svg>
