<svg width="1500" height="785" viewBox="0 0 1500 785" fill="none" xmlns="http://www.w3.org/2000/svg">
<path opacity="0.555556" fill-rule="evenodd" clip-rule="evenodd" d="M1451.28 -443.709L52.0555 -75.4384C30.7282 -69.8251 18.1766 -48.0654 23.9958 -26.7934L230.383 727.653C236.223 748.998 258.339 761.755 279.739 756.123L1678.97 387.852C1700.29 382.239 1712.85 360.479 1707.03 339.207L1500.64 -415.239C1494.8 -436.584 1472.68 -449.341 1451.28 -443.709ZM49.5102 -85.109C22.8054 -78.0804 7.06374 -50.7903 14.3502 -24.1547L220.738 730.292C228.024 756.928 255.58 772.822 282.284 765.794L1681.51 397.523C1708.22 390.494 1723.96 363.204 1716.67 336.569L1510.28 -417.878C1503 -444.514 1475.44 -460.408 1448.74 -453.38L49.5102 -85.109Z" fill="url(#paint0_linear)"/>
<path opacity="0.666667" fill-rule="evenodd" clip-rule="evenodd" d="M1452.66 -418.199L47.2143 -74.4049C25.7923 -69.1647 12.8629 -47.6273 18.3099 -26.257L211.499 731.677C216.965 753.12 238.855 766.261 260.351 761.003L1665.79 417.209C1687.21 411.968 1700.14 390.431 1694.7 369.061L1501.51 -388.873C1496.04 -410.316 1474.15 -423.458 1452.66 -418.199ZM44.8382 -84.1185C18.0148 -77.557 1.79924 -50.5458 8.61975 -23.7871L201.809 734.147C208.63 760.905 235.903 777.278 262.727 770.717L1668.17 426.922C1694.99 420.361 1711.21 393.35 1704.39 366.591L1511.2 -391.343C1504.38 -418.101 1477.1 -434.474 1450.28 -427.913L44.8382 -84.1185Z" fill="url(#paint1_linear)"/>
<path opacity="0.777778" fill-rule="evenodd" clip-rule="evenodd" d="M1453.58 -392.67L42.3558 -73.4561C20.8456 -68.5906 7.54227 -47.2821 12.6155 -25.82L192.548 735.37C197.638 756.905 219.296 770.427 240.88 765.545L1652.11 446.331C1673.62 441.465 1686.92 420.157 1681.85 398.695L1501.92 -362.495C1496.82 -384.031 1475.17 -397.552 1453.58 -392.67ZM40.1496 -83.2097C13.2158 -77.1174 -3.46872 -50.3932 2.88374 -23.5196L182.816 737.67C189.168 764.544 216.152 781.391 243.086 775.298L1654.31 456.084C1681.25 449.992 1697.93 423.268 1691.58 396.394L1511.65 -364.796C1505.29 -391.669 1478.31 -408.516 1451.38 -402.424L40.1496 -83.2097Z" fill="url(#paint2_linear)"/>
<path opacity="0.888889" fill-rule="evenodd" clip-rule="evenodd" d="M1454.07 -367.128L37.4815 -72.5922C15.8897 -68.1029 2.21648 -47.0298 6.91441 -25.4824L173.535 738.732C178.249 760.353 199.667 774.25 221.333 769.745L1637.92 475.209C1659.51 470.72 1673.18 449.647 1668.48 428.1L1501.86 -336.115C1497.15 -357.736 1475.73 -371.633 1454.07 -367.128ZM35.4458 -82.3829C8.4098 -76.7615 -8.73855 -50.3326 -2.85606 -23.3522L163.764 740.862C169.647 767.842 196.332 785.157 223.368 779.536L1639.95 485C1666.99 479.379 1684.14 452.95 1678.25 425.969L1511.63 -338.245C1505.75 -365.225 1479.07 -382.54 1452.03 -376.919L35.4458 -82.3829Z" fill="url(#paint3_linear)"/>
<path fill-rule="evenodd" clip-rule="evenodd" d="M1454.1 -341.582L32.5928 -71.8137C10.926 -67.7018 -3.11292 -46.8706 1.20825 -25.2445L154.466 741.761C158.802 763.461 179.974 777.73 201.715 773.604L1623.22 503.836C1644.89 499.724 1658.93 478.893 1654.61 457.267L1501.35 -309.739C1497.01 -331.439 1475.84 -345.708 1454.1 -341.582ZM30.7284 -81.6383C3.59835 -76.4897 -14.0086 -50.3641 -8.59791 -23.2851L144.659 743.721C150.07 770.8 176.45 788.578 203.58 783.429L1625.09 513.661C1652.22 508.512 1669.83 482.386 1664.41 455.307L1511.16 -311.698C1505.75 -338.777 1479.37 -356.555 1452.24 -351.407L30.7284 -81.6383Z" fill="url(#paint4_linear)"/>
<defs>
<linearGradient id="paint0_linear" x1="-1.64636" y1="-238.91" x2="787.936" y2="1274.74" gradientUnits="userSpaceOnUse">
<stop stop-color="#087CA7"/>
<stop offset="1" stop-color="#0B08A7"/>
</linearGradient>
<linearGradient id="paint1_linear" x1="-3.62639" y1="-238.789" x2="759.419" y2="1288.41" gradientUnits="userSpaceOnUse">
<stop stop-color="#087CA7"/>
<stop offset="1" stop-color="#0B08A7"/>
</linearGradient>
<linearGradient id="paint2_linear" x1="-5.60824" y1="-238.702" x2="730.668" y2="1301.58" gradientUnits="userSpaceOnUse">
<stop stop-color="#087CA7"/>
<stop offset="1" stop-color="#0B08A7"/>
</linearGradient>
<linearGradient id="paint3_linear" x1="-7.5913" y1="-238.65" x2="701.691" y2="1314.25" gradientUnits="userSpaceOnUse">
<stop stop-color="#087CA7"/>
<stop offset="1" stop-color="#0B08A7"/>
</linearGradient>
<linearGradient id="paint4_linear" x1="-9.57496" y1="-238.633" x2="672.497" y2="1326.41" gradientUnits="userSpaceOnUse">
<stop stop-color="#087CA7"/>
<stop offset="1" stop-color="#0B08A7"/>
</linearGradient>
</defs>
</svg>
