<?xml version="1.0" encoding="UTF-8"?>
<svg xmlns="http://www.w3.org/2000/svg" xmlns:xlink="http://www.w3.org/1999/xlink" width="500pt" height="500pt" viewBox="0 0 500 500" version="1.1">
<g id="surface1">
<path style=" stroke:none;fill-rule:nonzero;fill:#5B5B5B;fill-opacity:1;" d="M 287.699219 8.058594 C 216.277344 8.058594 143.074219 29.839844 88.976563 98.894531 C 34.878906 167.953125 0 282.46875 0 466.269531 C -0.0390625 469.175781 1.203125 471.964844 3.449219 473.902344 C 5.65625 475.804688 8.5625 476.65625 11.472656 476.191406 C 11.472656 476.191406 69.058594 466.269531 178.570313 466.269531 C 178.765625 466.269531 178.996094 466.269531 179.191406 466.269531 C 198.488281 484.210938 221.160156 496.03125 248.015625 496.03125 C 274.910156 496.03125 299.441406 484.40625 320.558594 466.269531 C 320.675781 466.269531 320.753906 466.269531 320.871094 466.269531 C 321.375 466.308594 321.917969 466.308594 322.421875 466.269531 C 429.957031 466.269531 484.25 476.191406 484.25 476.191406 C 487.195313 476.734375 490.21875 475.957031 492.503906 474.019531 C 494.792969 472.121094 496.070313 469.253906 496.03125 466.269531 C 496.03125 417.09375 491.691406 382.449219 487.351563 359.933594 C 484.210938 343.695313 481.5 335.519531 479.910156 331.101563 C 483.785156 324.046875 486.109375 316.105469 486.109375 307.539063 L 486.109375 277.777344 C 486.109375 261.773438 478.167969 247.511719 466.269531 238.40625 C 465.726563 183.53125 449.335938 134.394531 420.386719 98.585938 C 392.523438 64.136719 352.375 42.859375 305.371094 40.613281 L 297.308594 14.882813 C 295.953125 10.734375 292.039063 7.984375 287.699219 8.058594 Z M 280.566406 28.523438 L 288.007813 52.703125 C 289.363281 56.851563 293.277344 59.601563 297.617188 59.523438 C 342.339844 59.523438 378.765625 78.707031 404.886719 110.988281 C 428.953125 140.75 443.910156 182.019531 446.117188 229.105469 C 442.980469 228.484375 439.800781 228.175781 436.507813 228.175781 L 416.667969 228.175781 C 416.355469 228.175781 416.046875 228.175781 415.738281 228.175781 C 410.621094 228.640625 406.707031 232.941406 406.746094 238.09375 L 406.746094 256.078125 C 401.515625 253.558594 396.4375 252.433594 392.796875 252.046875 C 380.898438 237.164063 331.332031 174.617188 307.539063 114.085938 C 305.5625 110.132813 302.578125 107.1875 297.617188 108.195313 C 293.667969 108.195313 289.636719 111.066406 288.628906 115.015625 C 278.707031 150.746094 196.320313 255.03125 110.988281 257.007813 C 106.027344 256 94.324219 254.023438 83.394531 261.964844 C 73.476563 269.910156 69.445313 280.878906 69.445313 295.757813 C 69.445313 318.585938 84.210938 337.300781 106.027344 342.261719 C 119.242188 376.789063 136.988281 416.433594 160.898438 446.738281 C 77.582031 447.511719 33.675781 453.171875 20.460938 455.109375 C 21.972656 281.109375 55.53125 173.726563 104.476563 111.296875 C 152.761719 49.679688 215.65625 29.917969 280.566406 28.523438 Z M 297.617188 142.917969 C 327.382813 206.394531 376.867188 264.875 378.84375 267.855469 C 380.820313 269.832031 383.921875 271.886719 386.90625 271.886719 C 386.90625 271.886719 401.050781 272.082031 406.746094 283.976563 L 406.746094 307.539063 C 406.746094 320.445313 381.945313 323.351563 381.945313 323.351563 C 377.992188 323.351563 373.960938 327.457031 372.953125 331.410156 C 367.992188 354.238281 360.011719 375.976563 349.082031 396.824219 L 371.09375 396.824219 C 379.039063 378.960938 386.050781 360.125 390.003906 342.261719 C 396.050781 340.984375 401.59375 338.773438 406.746094 336.0625 L 406.746094 347.222656 C 406.746094 352.6875 411.203125 357.144531 416.667969 357.144531 L 426.585938 357.144531 C 426.585938 384.464844 404.304688 406.746094 376.984375 406.746094 L 295.757813 406.746094 C 291.613281 395.273438 280.683594 386.90625 267.855469 386.90625 L 248.015625 386.90625 C 231.699219 386.90625 218.253906 400.351563 218.253906 416.667969 C 218.253906 432.980469 231.699219 446.429688 248.015625 446.429688 L 267.855469 446.429688 C 280.683594 446.429688 291.613281 438.058594 295.757813 426.585938 L 376.984375 426.585938 C 415.117188 426.585938 446.429688 395.273438 446.429688 357.144531 L 446.429688 356.210938 C 453.09375 354.816406 459.292969 352.222656 464.71875 348.460938 C 465.765625 352.570313 466.617188 357.453125 467.820313 363.652344 C 471.539063 382.835938 475.222656 413.722656 475.878906 454.800781 C 462.9375 452.824219 421.160156 447.476563 340.089844 446.738281 C 342.921875 443.40625 345.515625 440.074219 348.152344 436.507813 L 322.421875 436.507813 C 301.570313 460.300781 275.800781 476.191406 248.015625 476.191406 C 200.390625 476.191406 159.855469 428.449219 122.148438 329.242188 C 121.140625 325.289063 117.070313 323.351563 114.085938 323.351563 C 100.214844 322.34375 89.285156 310.640625 89.285156 295.757813 C 89.285156 289.792969 90.292969 281.691406 94.246094 278.707031 C 98.199219 275.722656 106.027344 276.847656 106.027344 276.847656 L 109.128906 276.847656 C 191.476563 276.847656 269.832031 195.507813 297.617188 142.917969 Z M 426.585938 248.015625 L 436.507813 248.015625 C 452.9375 248.015625 466.269531 261.347656 466.269531 277.777344 L 466.269531 307.539063 C 466.269531 313.46875 464.601563 319.011719 461.621094 323.660156 C 461 324.320313 460.496094 325.054688 460.070313 325.832031 C 454.605469 332.84375 446.042969 337.300781 436.507813 337.300781 L 426.585938 337.300781 L 426.585938 285.527344 C 427.285156 283.550781 427.402344 281.1875 426.585938 278.707031 Z M 248.015625 406.746094 L 267.855469 406.746094 C 273.359375 406.746094 277.777344 411.164063 277.777344 416.667969 C 277.777344 422.167969 273.359375 426.585938 267.855469 426.585938 L 248.015625 426.585938 C 242.511719 426.585938 238.09375 422.167969 238.09375 416.667969 C 238.09375 411.164063 242.511719 406.746094 248.015625 406.746094 Z "/>
</g>
</svg>
