<?xml version="1.0" encoding="UTF-8"?>
<svg xmlns="http://www.w3.org/2000/svg" xmlns:xlink="http://www.w3.org/1999/xlink" width="96pt" height="96pt" viewBox="0 0 96 96" version="1.1">
<g id="surface1">
<path style=" stroke:none;fill-rule:nonzero;fill:#5B5B5B;fill-opacity:1;" d="M 63.796875 8 C 59.703125 8 55.59375 9.59375 52.390625 12.796875 L 40.796875 24.40625 C 35.53125 29.65625 34.6875 37.34375 38.078125 43.46875 L 20.90625 60.640625 C 14.421875 66.578125 14.5 76.859375 20.71875 83.15625 C 26.6875 89.578125 36.953125 89.5 43.234375 83.234375 C 43.90625 82.546875 47.140625 79.421875 50.234375 76.421875 C 53.328125 73.421875 56.28125 70.578125 57.03125 69.828125 C 59.421875 67.4375 63.78125 67.4375 66.171875 69.828125 C 68.5625 72.21875 68.5625 76.578125 66.171875 78.96875 L 62.59375 82.546875 L 68.25 88.203125 L 71.828125 84.625 C 77.4375 79.015625 77.4375 69.78125 71.828125 64.171875 C 66.21875 58.5625 56.984375 58.5625 51.375 64.171875 C 50.9375 64.609375 47.765625 67.671875 44.671875 70.671875 C 41.578125 73.671875 38.484375 76.65625 37.5625 77.5625 C 34.265625 80.875 29.390625 80.796875 26.546875 77.6875 L 26.5 77.625 L 26.4375 77.5625 C 23.125 74.265625 23.203125 69.390625 26.3125 66.546875 L 26.375 66.5 L 43.5 49.375 C 49.765625 53.46875 58.046875 52.765625 63.609375 47.203125 L 75.203125 35.59375 C 81.609375 29.203125 81.609375 18.796875 75.203125 12.796875 C 72 9.59375 67.890625 8 63.796875 8 Z M 52 28 C 56.40625 28 60 31.59375 60 36 C 60 40.40625 56.40625 44 52 44 C 47.59375 44 44 40.40625 44 36 C 44 31.59375 47.59375 28 52 28 Z "/>
</g>
</svg>
